<ttFont>
<head>
    <!-- Most of this table will be recalculated by the compiler -->
    <tableVersion value="1.0"/>
    <fontRevision value="1.21"/>
    <checkSumAdjustment value="0xbd70d615"/>
    <magicNumber value="0x5f0f3cf5"/>
    <flags value="00000000 00000111"/>
    <unitsPerEm value="1000"/>
    <created value="Mon Sep 18 21:15:49 2017"/>
    <modified value="Mon Sep 18 21:56:15 2017"/>
    <xMin value="-170"/>
    <yMin value="-350"/>
    <xMax value="1330"/>
    <yMax value="1133"/>
    <macStyle value="00000000 00000001"/>
    <lowestRecPPEM value="6"/>
    <fontDirectionHint value="2"/>
    <indexToLocFormat value="0"/>
    <glyphDataFormat value="0"/>
  </head>
    <TTGlyph name=".notdef" xMin="78" yMin="-185" xMax="522" yMax="690">
      <contour>
        <pt x="78" y="-185" on="1"/>
        <pt x="78" y="690" on="1"/>
        <pt x="522" y="690" on="1"/>
        <pt x="522" y="-185" on="1"/>
      </contour>
      <contour>
        <pt x="218" y="-65" on="1"/>
        <pt x="382" y="-65" on="1"/>
        <pt x="382" y="570" on="1"/>
        <pt x="218" y="570" on="1"/>
      </contour>
    </TTGlyph>
    <TTGlyph name="A" xMin="0" yMin="0" xMax="656" yMax="690">
      <contour>
        <pt x="0" y="0" on="1"/>
        <pt x="251" y="690" on="1"/>
        <pt x="405" y="690" on="1"/>
        <pt x="656" y="0" on="1"/>
        <pt x="486" y="0" on="1"/>
        <pt x="441" y="136" on="1"/>
        <pt x="211" y="136" on="1"/>
        <pt x="166" y="0" on="1"/>
      </contour>
      <contour>
        <pt x="253" y="263" on="1"/>
        <pt x="399" y="263" on="1"/>
        <pt x="326" y="483" on="1"/>
      </contour>
    </TTGlyph>
    <TTGlyph name="AE" xMin="0" yMin="0" xMax="915" yMax="690">
      <contour>
        <pt x="0" y="0" on="1"/>
        <pt x="275" y="690" on="1"/>
        <pt x="910" y="690" on="1"/>
        <pt x="910" y="550" on="1"/>
        <pt x="585" y="550" on="1"/>
        <pt x="585" y="414" on="1"/>
        <pt x="863" y="414" on="1"/>
        <pt x="863" y="282" on="1"/>
        <pt x="585" y="282" on="1"/>
        <pt x="585" y="140" on="1"/>
        <pt x="915" y="140" on="1"/>
        <pt x="915" y="0" on="1"/>
        <pt x="425" y="0" on="1"/>
        <pt x="425" y="136" on="1"/>
        <pt x="221" y="136" on="1"/>
        <pt x="170" y="0" on="1"/>
      </contour>
      <contour>
        <pt x="268" y="263" on="1"/>
        <pt x="425" y="263" on="1"/>
        <pt x="425" y="550" on="1"/>
        <pt x="375" y="550" on="1"/>
      </contour>
    </TTGlyph>
    <TTGlyph name="AEacute" xMin="0" yMin="0" xMax="915" yMax="885">
      <component glyphName="AE" x="0" y="0" flags="0x204"/>
      <component glyphName="acute.cap" x="285" y="0" flags="0x4"/>
    </TTGlyph>
    <TTGlyph name="Aacute" xMin="0" yMin="0" xMax="656" yMax="885">
      <component glyphName="A" x="0" y="0" flags="0x204"/>
      <component glyphName="acute.cap" x="27" y="0" flags="0x4"/>
    </TTGlyph>
    <TTGlyph name="Abreve" xMin="0" yMin="0" xMax="656" yMax="885">
      <component glyphName="A" x="0" y="0" flags="0x204"/>
      <component glyphName="breve.cap" x="27" y="0" flags="0x4"/>
    </TTGlyph>
    <TTGlyph name="Acircumflex" xMin="0" yMin="0" xMax="656" yMax="885">
      <component glyphName="A" x="0" y="0" flags="0x204"/>
      <component glyphName="circumflex.cap" x="27" y="0" flags="0x4"/>
    </TTGlyph>
    <TTGlyph name="Adieresis" xMin="0" yMin="0" xMax="656" yMax="905">
      <component glyphName="A" x="0" y="0" flags="0x204"/>
      <component glyphName="dieresis.cap" x="27" y="0" flags="0x4"/>
    </TTGlyph>
    <TTGlyph name="Adotbelow" xMin="0" yMin="-220" xMax="656" yMax="690">
      <component glyphName="A" x="0" y="0" flags="0x204"/>
      <component glyphName="dotbelow" x="28" y="0" flags="0x4"/>
    </TTGlyph>
    <TTGlyph name="Agrave" xMin="0" yMin="0" xMax="656" yMax="885">
      <component glyphName="A" x="0" y="0" flags="0x204"/>
      <component glyphName="grave.cap" x="27" y="0" flags="0x4"/>
    </TTGlyph>
    <TTGlyph name="Amacron" xMin="0" yMin="0" xMax="656" yMax="882">
      <component glyphName="A" x="0" y="0" flags="0x204"/>
      <component glyphName="macron.cap" x="27" y="0" flags="0x4"/>
    </TTGlyph>
    <TTGlyph name="Aogonek" xMin="0" yMin="-197" xMax="656" yMax="690">
      <component glyphName="A" x="0" y="0" flags="0x204"/>
      <component glyphName="ogonek" x="186" y="0" flags="0x4"/>
    </TTGlyph>
    <TTGlyph name="Aring" xMin="0" yMin="0" xMax="656" yMax="958">
      <component glyphName="A" x="0" y="0" flags="0x204"/>
      <component glyphName="ring.cap" x="27" y="0" flags="0x4"/>
    </TTGlyph>
    <TTGlyph name="Aringacute" xMin="0" yMin="0" xMax="656" yMax="1133">
      <component glyphName="A" x="0" y="0" flags="0x204"/>
      <component glyphName="ring_acute.cap" x="27" y="0" flags="0x4"/>
    </TTGlyph>
    <TTGlyph name="Atilde" xMin="0" yMin="0" xMax="656" yMax="896">
      <component glyphName="A" x="0" y="0" flags="0x204"/>
      <component glyphName="tilde.cap" x="27" y="0" flags="0x4"/>
    </TTGlyph>
    <TTGlyph name="B" xMin="85" yMin="0" xMax="604" yMax="690">
      <contour>
        <pt x="85" y="0" on="1"/>
        <pt x="85" y="690" on="1"/>
        <pt x="342" y="690" on="1"/>
        <pt x="407" y="690" on="0"/>
        <pt x="513" y="645" on="0"/>
        <pt x="574" y="562" on="0"/>
        <pt x="574" y="505" on="1"/>
        <pt x="574" y="456" on="0"/>
        <pt x="530" y="385" on="0"/>
        <pt x="492" y="363" on="1"/>
        <pt x="544" y="339" on="0"/>
        <pt x="604" y="250" on="0"/>
        <pt x="604" y="190" on="1"/>
        <pt x="604" y="130" on="0"/>
        <pt x="541" y="45" on="0"/>
        <pt x="434" y="0" on="0"/>
        <pt x="367" y="0" on="1"/>
      </contour>
      <contour>
        <pt x="332" y="556" on="1"/>
        <pt x="245" y="556" on="1"/>
        <pt x="245" y="412" on="1"/>
        <pt x="332" y="412" on="1"/>
        <pt x="370" y="412" on="0"/>
        <pt x="416" y="449" on="0"/>
        <pt x="416" y="484" on="1"/>
        <pt x="416" y="519" on="0"/>
        <pt x="370" y="556" on="0"/>
      </contour>
      <contour>
        <pt x="352" y="288" on="1"/>
        <pt x="245" y="288" on="1"/>
        <pt x="245" y="134" on="1"/>
        <pt x="352" y="134" on="1"/>
        <pt x="392" y="134" on="0"/>
        <pt x="441" y="173" on="0"/>
        <pt x="441" y="211" on="1"/>
        <pt x="441" y="249" on="0"/>
        <pt x="392" y="288" on="0"/>
      </contour>
    </TTGlyph>
    <TTGlyph name="C" xMin="45" yMin="-12" xMax="618" yMax="702">
      <contour>
        <pt x="45" y="345" on="1"/>
        <pt x="45" y="429" on="0"/>
        <pt x="100" y="561" on="0"/>
        <pt x="195" y="653" on="0"/>
        <pt x="318" y="702" on="0"/>
        <pt x="387" y="702" on="1"/>
        <pt x="452" y="702" on="0"/>
        <pt x="560" y="666" on="0"/>
        <pt x="613" y="632" on="1"/>
        <pt x="526" y="504" on="1"/>
        <pt x="494" y="525" on="0"/>
        <pt x="423" y="552" on="0"/>
        <pt x="382" y="552" on="1"/>
        <pt x="334" y="552" on="0"/>
        <pt x="255" y="506" on="0"/>
        <pt x="208" y="414" on="0"/>
        <pt x="208" y="345" on="1"/>
        <pt x="208" y="276" on="0"/>
        <pt x="255" y="184" on="0"/>
        <pt x="334" y="138" on="0"/>
        <pt x="383" y="138" on="1"/>
        <pt x="424" y="138" on="0"/>
        <pt x="495" y="168" on="0"/>
        <pt x="526" y="193" on="1"/>
        <pt x="618" y="69" on="1"/>
        <pt x="567" y="28" on="0"/>
        <pt x="457" y="-12" on="0"/>
        <pt x="389" y="-12" on="1"/>
        <pt x="320" y="-12" on="0"/>
        <pt x="195" y="37" on="0"/>
        <pt x="100" y="129" on="0"/>
        <pt x="45" y="261" on="0"/>
      </contour>
    </TTGlyph>
    <TTGlyph name="Cacute" xMin="45" yMin="-12" xMax="618" yMax="885">
      <component glyphName="C" x="0" y="0" flags="0x204"/>
      <component glyphName="acute.cap" x="77" y="0" flags="0x4"/>
    </TTGlyph>
    <TTGlyph name="Ccaron" xMin="45" yMin="-12" xMax="618" yMax="885">
      <component glyphName="C" x="0" y="0" flags="0x204"/>
      <component glyphName="caron.cap" x="77" y="0" flags="0x4"/>
    </TTGlyph>
    <TTGlyph name="Ccedilla" xMin="45" yMin="-228" xMax="618" yMax="702">
      <component glyphName="C" x="0" y="0" flags="0x204"/>
      <component glyphName="cedilla" x="77" y="0" flags="0x4"/>
    </TTGlyph>
    <TTGlyph name="Ccircumflex" xMin="45" yMin="-12" xMax="618" yMax="885">
      <component glyphName="C" x="0" y="0" flags="0x204"/>
      <component glyphName="circumflex.cap" x="77" y="0" flags="0x4"/>
    </TTGlyph>
    <TTGlyph name="Cdotaccent" xMin="45" yMin="-12" xMax="618" yMax="905">
      <component glyphName="C" x="0" y="0" flags="0x204"/>
      <component glyphName="dotaccent.cap" x="77" y="0" flags="0x4"/>
    </TTGlyph>
    <TTGlyph name="D" xMin="85" yMin="0" xMax="679" yMax="690">
      <contour>
        <pt x="85" y="0" on="1"/>
        <pt x="85" y="690" on="1"/>
        <pt x="347" y="690" on="1"/>
        <pt x="440" y="690" on="0"/>
        <pt x="591" y="608" on="0"/>
        <pt x="679" y="454" on="0"/>
        <pt x="679" y="345" on="1"/>
        <pt x="679" y="237" on="0"/>
        <pt x="591" y="82" on="0"/>
        <pt x="440" y="0" on="0"/>
        <pt x="347" y="0" on="1"/>
      </contour>
      <contour>
        <pt x="332" y="550" on="1"/>
        <pt x="245" y="550" on="1"/>
        <pt x="245" y="140" on="1"/>
        <pt x="332" y="140" on="1"/>
        <pt x="414" y="140" on="0"/>
        <pt x="516" y="242" on="0"/>
        <pt x="516" y="345" on="1"/>
        <pt x="516" y="448" on="0"/>
        <pt x="414" y="550" on="0"/>
      </contour>
    </TTGlyph>
    <TTGlyph name="Dcaron" xMin="85" yMin="0" xMax="679" yMax="885">
      <component glyphName="D" x="0" y="0" flags="0x204"/>
      <component glyphName="caron.cap" x="22" y="0" flags="0x4"/>
    </TTGlyph>
    <TTGlyph name="Dcroat" xMin="35" yMin="0" xMax="684" yMax="690">
      <contour>
        <pt x="90" y="0" on="1"/>
        <pt x="90" y="273" on="1"/>
        <pt x="35" y="273" on="1"/>
        <pt x="35" y="407" on="1"/>
        <pt x="90" y="407" on="1"/>
        <pt x="90" y="690" on="1"/>
        <pt x="352" y="690" on="1"/>
        <pt x="446" y="690" on="0"/>
        <pt x="596" y="608" on="0"/>
        <pt x="684" y="454" on="0"/>
        <pt x="684" y="345" on="1"/>
        <pt x="684" y="237" on="0"/>
        <pt x="596" y="82" on="0"/>
        <pt x="446" y="0" on="0"/>
        <pt x="352" y="0" on="1"/>
      </contour>
      <contour>
        <pt x="381" y="273" on="1"/>
        <pt x="250" y="273" on="1"/>
        <pt x="250" y="140" on="1"/>
        <pt x="337" y="140" on="1"/>
        <pt x="420" y="140" on="0"/>
        <pt x="521" y="242" on="0"/>
        <pt x="521" y="345" on="1"/>
        <pt x="521" y="448" on="0"/>
        <pt x="420" y="550" on="0"/>
        <pt x="337" y="550" on="1"/>
        <pt x="250" y="550" on="1"/>
        <pt x="250" y="407" on="1"/>
        <pt x="381" y="407" on="1"/>
      </contour>
    </TTGlyph>
    <TTGlyph name="Delta" xMin="0" yMin="0" xMax="656" yMax="690">
      <contour>
        <pt x="0" y="0" on="1"/>
        <pt x="251" y="690" on="1"/>
        <pt x="405" y="690" on="1"/>
        <pt x="656" y="0" on="1"/>
      </contour>
      <contour>
        <pt x="212" y="140" on="1"/>
        <pt x="440" y="140" on="1"/>
        <pt x="326" y="483" on="1"/>
      </contour>
    </TTGlyph>
    <TTGlyph name="E" xMin="85" yMin="0" xMax="575" yMax="690">
      <contour>
        <pt x="85" y="0" on="1"/>
        <pt x="85" y="690" on="1"/>
        <pt x="570" y="690" on="1"/>
        <pt x="570" y="550" on="1"/>
        <pt x="245" y="550" on="1"/>
        <pt x="245" y="414" on="1"/>
        <pt x="523" y="414" on="1"/>
        <pt x="523" y="282" on="1"/>
        <pt x="245" y="282" on="1"/>
        <pt x="245" y="140" on="1"/>
        <pt x="575" y="140" on="1"/>
        <pt x="575" y="0" on="1"/>
      </contour>
    </TTGlyph>
    <TTGlyph name="Eacute" xMin="85" yMin="0" xMax="575" yMax="885">
      <component glyphName="E" x="0" y="0" flags="0x204"/>
      <component glyphName="acute.cap" x="23" y="0" flags="0x4"/>
    </TTGlyph>
    <TTGlyph name="Ebreve" xMin="85" yMin="0" xMax="575" yMax="885">
      <component glyphName="E" x="0" y="0" flags="0x204"/>
      <component glyphName="breve.cap" x="23" y="0" flags="0x4"/>
    </TTGlyph>
    <TTGlyph name="Ecaron" xMin="85" yMin="0" xMax="575" yMax="885">
      <component glyphName="E" x="0" y="0" flags="0x204"/>
      <component glyphName="caron.cap" x="23" y="0" flags="0x4"/>
    </TTGlyph>
    <TTGlyph name="Ecircumflex" xMin="85" yMin="0" xMax="575" yMax="885">
      <component glyphName="E" x="0" y="0" flags="0x204"/>
      <component glyphName="circumflex.cap" x="23" y="0" flags="0x4"/>
    </TTGlyph>
    <TTGlyph name="Edieresis" xMin="85" yMin="0" xMax="575" yMax="905">
      <component glyphName="E" x="0" y="0" flags="0x204"/>
      <component glyphName="dieresis.cap" x="23" y="0" flags="0x4"/>
    </TTGlyph>
    <TTGlyph name="Edotaccent" xMin="85" yMin="0" xMax="575" yMax="905">
      <component glyphName="E" x="0" y="0" flags="0x204"/>
      <component glyphName="dotaccent.cap" x="23" y="0" flags="0x4"/>
    </TTGlyph>
    <TTGlyph name="Edotbelow" xMin="85" yMin="-220" xMax="575" yMax="690">
      <component glyphName="E" x="0" y="0" flags="0x204"/>
      <component glyphName="dotbelow" x="23" y="0" flags="0x4"/>
    </TTGlyph>
    <TTGlyph name="Egrave" xMin="85" yMin="0" xMax="575" yMax="885">
      <component glyphName="E" x="0" y="0" flags="0x204"/>
      <component glyphName="grave.cap" x="23" y="0" flags="0x4"/>
    </TTGlyph>
    <TTGlyph name="Emacron" xMin="85" yMin="0" xMax="575" yMax="882">
      <component glyphName="E" x="0" y="0" flags="0x204"/>
      <component glyphName="macron.cap" x="23" y="0" flags="0x4"/>
    </TTGlyph>
    <TTGlyph name="Eng" xMin="85" yMin="-197" xMax="674" yMax="690">
      <contour>
        <pt x="85" y="0" on="1"/>
        <pt x="85" y="690" on="1"/>
        <pt x="290" y="690" on="1"/>
        <pt x="530" y="268" on="1"/>
        <pt x="530" y="690" on="1"/>
        <pt x="674" y="690" on="1"/>
        <pt x="674" y="8" on="1"/>
        <pt x="674" y="-95" on="0"/>
        <pt x="577" y="-197" on="0"/>
        <pt x="491" y="-197" on="1"/>
        <pt x="468" y="-197" on="0"/>
        <pt x="414" y="-188" on="0"/>
        <pt x="394" y="-181" on="1"/>
        <pt x="410" y="-57" on="1"/>
        <pt x="426" y="-62" on="0"/>
        <pt x="449" y="-66" on="0"/>
        <pt x="461" y="-66" on="1"/>
        <pt x="490" y="-66" on="0"/>
        <pt x="526" y="-37" on="0"/>
        <pt x="529" y="1" on="1"/>
        <pt x="229" y="528" on="1"/>
        <pt x="229" y="0" on="1"/>
      </contour>
    </TTGlyph>
    <TTGlyph name="Eogonek" xMin="85" yMin="-197" xMax="585" yMax="690">
      <component glyphName="E" x="0" y="0" flags="0x204"/>
      <component glyphName="ogonek" x="155" y="0" flags="0x4"/>
    </TTGlyph>
    <TTGlyph name="Eth" xMin="35" yMin="0" xMax="684" yMax="690">
      <contour>
        <pt x="90" y="0" on="1"/>
        <pt x="90" y="273" on="1"/>
        <pt x="35" y="273" on="1"/>
        <pt x="35" y="407" on="1"/>
        <pt x="90" y="407" on="1"/>
        <pt x="90" y="690" on="1"/>
        <pt x="352" y="690" on="1"/>
        <pt x="446" y="690" on="0"/>
        <pt x="596" y="608" on="0"/>
        <pt x="684" y="454" on="0"/>
        <pt x="684" y="345" on="1"/>
        <pt x="684" y="237" on="0"/>
        <pt x="596" y="82" on="0"/>
        <pt x="446" y="0" on="0"/>
        <pt x="352" y="0" on="1"/>
      </contour>
      <contour>
        <pt x="381" y="273" on="1"/>
        <pt x="250" y="273" on="1"/>
        <pt x="250" y="140" on="1"/>
        <pt x="337" y="140" on="1"/>
        <pt x="420" y="140" on="0"/>
        <pt x="521" y="242" on="0"/>
        <pt x="521" y="345" on="1"/>
        <pt x="521" y="448" on="0"/>
        <pt x="420" y="550" on="0"/>
        <pt x="337" y="550" on="1"/>
        <pt x="250" y="550" on="1"/>
        <pt x="250" y="407" on="1"/>
        <pt x="381" y="407" on="1"/>
      </contour>
    </TTGlyph>
    <TTGlyph name="Etilde" xMin="85" yMin="0" xMax="575" yMax="896">
      <component glyphName="E" x="0" y="0" flags="0x204"/>
      <component glyphName="tilde.cap" x="23" y="0" flags="0x4"/>
    </TTGlyph>
    <TTGlyph name="Euro" xMin="30" yMin="-12" xMax="603" yMax="702">
      <contour>
        <pt x="30" y="205" on="1"/>
        <pt x="30" y="315" on="1"/>
        <pt x="81" y="315" on="1"/>
        <pt x="80" y="330" on="0"/>
        <pt x="80" y="345" on="1"/>
        <pt x="80" y="360" on="0"/>
        <pt x="81" y="375" on="1"/>
        <pt x="30" y="375" on="1"/>
        <pt x="30" y="485" on="1"/>
        <pt x="100" y="485" on="1"/>
        <pt x="133" y="588" on="0"/>
        <pt x="286" y="702" on="0"/>
        <pt x="382" y="702" on="1"/>
        <pt x="447" y="702" on="0"/>
        <pt x="553" y="666" on="0"/>
        <pt x="598" y="632" on="1"/>
        <pt x="521" y="504" on="1"/>
        <pt x="492" y="525" on="0"/>
        <pt x="427" y="552" on="0"/>
        <pt x="387" y="552" on="1"/>
        <pt x="311" y="552" on="0"/>
        <pt x="273" y="485" on="1"/>
        <pt x="430" y="485" on="1"/>
        <pt x="430" y="375" on="1"/>
        <pt x="244" y="375" on="1"/>
        <pt x="243" y="361" on="0"/>
        <pt x="243" y="345" on="1"/>
        <pt x="243" y="329" on="0"/>
        <pt x="244" y="315" on="1"/>
        <pt x="430" y="315" on="1"/>
        <pt x="430" y="205" on="1"/>
        <pt x="273" y="205" on="1"/>
        <pt x="312" y="138" on="0"/>
        <pt x="388" y="138" on="1"/>
        <pt x="427" y="138" on="0"/>
        <pt x="492" y="168" on="0"/>
        <pt x="521" y="193" on="1"/>
        <pt x="603" y="69" on="1"/>
        <pt x="560" y="28" on="0"/>
        <pt x="452" y="-12" on="0"/>
        <pt x="384" y="-12" on="1"/>
        <pt x="287" y="-12" on="0"/>
        <pt x="133" y="102" on="0"/>
        <pt x="100" y="205" on="1"/>
      </contour>
    </TTGlyph>
    <TTGlyph name="F" xMin="85" yMin="0" xMax="555" yMax="690">
      <contour>
        <pt x="85" y="0" on="1"/>
        <pt x="85" y="690" on="1"/>
        <pt x="555" y="690" on="1"/>
        <pt x="555" y="550" on="1"/>
        <pt x="245" y="550" on="1"/>
        <pt x="245" y="387" on="1"/>
        <pt x="515" y="387" on="1"/>
        <pt x="515" y="247" on="1"/>
        <pt x="245" y="247" on="1"/>
        <pt x="245" y="0" on="1"/>
      </contour>
    </TTGlyph>
    <TTGlyph name="G" xMin="45" yMin="-12" xMax="643" yMax="702">
      <contour>
        <pt x="45" y="345" on="1"/>
        <pt x="45" y="429" on="0"/>
        <pt x="100" y="561" on="0"/>
        <pt x="195" y="653" on="0"/>
        <pt x="318" y="702" on="0"/>
        <pt x="387" y="702" on="1"/>
        <pt x="452" y="702" on="0"/>
        <pt x="566" y="670" on="0"/>
        <pt x="623" y="637" on="1"/>
        <pt x="547" y="501" on="1"/>
        <pt x="511" y="526" on="0"/>
        <pt x="434" y="554" on="0"/>
        <pt x="391" y="554" on="1"/>
        <pt x="340" y="554" on="0"/>
        <pt x="257" y="507" on="0"/>
        <pt x="208" y="414" on="0"/>
        <pt x="208" y="345" on="1"/>
        <pt x="208" y="276" on="0"/>
        <pt x="256" y="179" on="0"/>
        <pt x="338" y="128" on="0"/>
        <pt x="390" y="128" on="1"/>
        <pt x="411" y="128" on="0"/>
        <pt x="464" y="138" on="0"/>
        <pt x="489" y="149" on="1"/>
        <pt x="489" y="249" on="1"/>
        <pt x="359" y="249" on="1"/>
        <pt x="359" y="382" on="1"/>
        <pt x="643" y="382" on="1"/>
        <pt x="643" y="81" on="1"/>
        <pt x="582" y="34" on="0"/>
        <pt x="455" y="-12" on="0"/>
        <pt x="383" y="-12" on="1"/>
        <pt x="316" y="-12" on="0"/>
        <pt x="194" y="37" on="0"/>
        <pt x="100" y="129" on="0"/>
        <pt x="45" y="261" on="0"/>
      </contour>
    </TTGlyph>
    <TTGlyph name="Gbreve" xMin="45" yMin="-12" xMax="643" yMax="885">
      <component glyphName="G" x="0" y="0" flags="0x204"/>
      <component glyphName="breve.cap" x="77" y="0" flags="0x4"/>
    </TTGlyph>
    <TTGlyph name="Gcaron" xMin="45" yMin="-12" xMax="643" yMax="885">
      <component glyphName="G" x="0" y="0" flags="0x204"/>
      <component glyphName="caron.cap" x="77" y="0" flags="0x4"/>
    </TTGlyph>
    <TTGlyph name="Gcedilla" xMin="45" yMin="-340" xMax="643" yMax="702">
      <component glyphName="G" x="0" y="0" flags="0x204"/>
      <component glyphName="commaaccent" x="77" y="10" flags="0x4"/>
    </TTGlyph>
    <TTGlyph name="Gcircumflex" xMin="45" yMin="-12" xMax="643" yMax="885">
      <component glyphName="G" x="0" y="0" flags="0x204"/>
      <component glyphName="circumflex.cap" x="77" y="0" flags="0x4"/>
    </TTGlyph>
    <TTGlyph name="Gdotaccent" xMin="45" yMin="-12" xMax="643" yMax="905">
      <component glyphName="G" x="0" y="0" flags="0x204"/>
      <component glyphName="dotaccent.cap" x="77" y="0" flags="0x4"/>
    </TTGlyph>
    <TTGlyph name="Germandbls" xMin="35" yMin="-12" xMax="1231" yMax="702">
      <component glyphName="S" x="0" y="0" flags="0x4"/>
      <component glyphName="S" x="638" y="0" flags="0x4"/>
    </TTGlyph>
    <TTGlyph name="H" xMin="85" yMin="0" xMax="669" yMax="690">
      <contour>
        <pt x="85" y="0" on="1"/>
        <pt x="85" y="690" on="1"/>
        <pt x="245" y="690" on="1"/>
        <pt x="245" y="418" on="1"/>
        <pt x="509" y="418" on="1"/>
        <pt x="509" y="690" on="1"/>
        <pt x="669" y="690" on="1"/>
        <pt x="669" y="0" on="1"/>
        <pt x="509" y="0" on="1"/>
        <pt x="509" y="278" on="1"/>
        <pt x="245" y="278" on="1"/>
        <pt x="245" y="0" on="1"/>
      </contour>
    </TTGlyph>
    <TTGlyph name="Hbar" xMin="30" yMin="0" xMax="734" yMax="690">
      <contour>
        <pt x="90" y="0" on="1"/>
        <pt x="90" y="506" on="1"/>
        <pt x="30" y="506" on="1"/>
        <pt x="30" y="630" on="1"/>
        <pt x="90" y="630" on="1"/>
        <pt x="90" y="690" on="1"/>
        <pt x="250" y="690" on="1"/>
        <pt x="250" y="630" on="1"/>
        <pt x="514" y="630" on="1"/>
        <pt x="514" y="690" on="1"/>
        <pt x="674" y="690" on="1"/>
        <pt x="674" y="630" on="1"/>
        <pt x="734" y="630" on="1"/>
        <pt x="734" y="506" on="1"/>
        <pt x="674" y="506" on="1"/>
        <pt x="674" y="0" on="1"/>
        <pt x="514" y="0" on="1"/>
        <pt x="514" y="268" on="1"/>
        <pt x="250" y="268" on="1"/>
        <pt x="250" y="0" on="1"/>
      </contour>
      <contour>
        <pt x="250" y="408" on="1"/>
        <pt x="514" y="408" on="1"/>
        <pt x="514" y="506" on="1"/>
        <pt x="250" y="506" on="1"/>
      </contour>
    </TTGlyph>
    <TTGlyph name="Hcircumflex" xMin="85" yMin="0" xMax="669" yMax="885">
      <component glyphName="H" x="0" y="0" flags="0x204"/>
      <component glyphName="circumflex.cap" x="77" y="0" flags="0x4"/>
    </TTGlyph>
    <TTGlyph name="I" xMin="65" yMin="0" xMax="405" yMax="690">
      <contour>
        <pt x="65" y="0" on="1"/>
        <pt x="65" y="120" on="1"/>
        <pt x="155" y="120" on="1"/>
        <pt x="155" y="570" on="1"/>
        <pt x="65" y="570" on="1"/>
        <pt x="65" y="690" on="1"/>
        <pt x="405" y="690" on="1"/>
        <pt x="405" y="570" on="1"/>
        <pt x="315" y="570" on="1"/>
        <pt x="315" y="120" on="1"/>
        <pt x="405" y="120" on="1"/>
        <pt x="405" y="0" on="1"/>
      </contour>
    </TTGlyph>
    <TTGlyph name="I.alt" xMin="85" yMin="0" xMax="245" yMax="690">
      <contour>
        <pt x="85" y="0" on="1"/>
        <pt x="85" y="690" on="1"/>
        <pt x="245" y="690" on="1"/>
        <pt x="245" y="0" on="1"/>
      </contour>
    </TTGlyph>
    <TTGlyph name="IJ" xMin="85" yMin="-12" xMax="744" yMax="690">
      <contour>
        <pt x="85" y="0" on="1"/>
        <pt x="85" y="690" on="1"/>
        <pt x="245" y="690" on="1"/>
        <pt x="245" y="0" on="1"/>
      </contour>
      <contour>
        <pt x="328" y="26" on="1"/>
        <pt x="390" y="157" on="1"/>
        <pt x="405" y="146" on="0"/>
        <pt x="447" y="132" on="0"/>
        <pt x="473" y="132" on="1"/>
        <pt x="524" y="132" on="0"/>
        <pt x="584" y="199" on="0"/>
        <pt x="584" y="265" on="1"/>
        <pt x="584" y="690" on="1"/>
        <pt x="744" y="690" on="1"/>
        <pt x="744" y="245" on="1"/>
        <pt x="744" y="162" on="0"/>
        <pt x="671" y="48" on="0"/>
        <pt x="552" y="-12" on="0"/>
        <pt x="483" y="-12" on="1"/>
        <pt x="439" y="-12" on="0"/>
        <pt x="360" y="6" on="0"/>
      </contour>
    </TTGlyph>
    <TTGlyph name="IJacute" xMin="85" yMin="-12" xMax="874" yMax="885">
      <component glyphName="IJ" x="0" y="0" flags="0x204"/>
      <component glyphName="acute.cap" x="-135" y="0" flags="0x4"/>
      <component glyphName="acute.cap" x="364" y="0" flags="0x4"/>
    </TTGlyph>
    <TTGlyph name="Iacute" xMin="65" yMin="0" xMax="445" yMax="885">
      <component glyphName="I" x="0" y="0" flags="0x204"/>
      <component glyphName="acute.cap" x="-65" y="0" flags="0x4"/>
    </TTGlyph>
    <TTGlyph name="Iacute.alt" xMin="85" yMin="0" xMax="375" yMax="885">
      <component glyphName="I.alt" x="0" y="0" flags="0x204"/>
      <component glyphName="acute.cap" x="-135" y="0" flags="0x4"/>
    </TTGlyph>
    <TTGlyph name="Ibreve" xMin="65" yMin="0" xMax="405" yMax="885">
      <component glyphName="I" x="0" y="0" flags="0x204"/>
      <component glyphName="breve.cap" x="-65" y="0" flags="0x4"/>
    </TTGlyph>
    <TTGlyph name="Ibreve.alt" xMin="15" yMin="0" xMax="315" yMax="885">
      <component glyphName="I.alt" x="0" y="0" flags="0x204"/>
      <component glyphName="breve.cap" x="-135" y="0" flags="0x4"/>
    </TTGlyph>
    <TTGlyph name="Icircumflex" xMin="47" yMin="0" xMax="425" yMax="885">
      <component glyphName="I" x="0" y="0" flags="0x204"/>
      <component glyphName="circumflex.cap" x="-65" y="0" flags="0x4"/>
    </TTGlyph>
    <TTGlyph name="Icircumflex.alt" xMin="-23" yMin="0" xMax="355" yMax="885">
      <component glyphName="I.alt" x="0" y="0" flags="0x204"/>
      <component glyphName="circumflex.cap" x="-135" y="0" flags="0x4"/>
    </TTGlyph>
    <TTGlyph name="Idieresis" xMin="44" yMin="0" xMax="426" yMax="905">
      <component glyphName="I" x="0" y="0" flags="0x204"/>
      <component glyphName="dieresis.cap" x="-65" y="0" flags="0x4"/>
    </TTGlyph>
    <TTGlyph name="Idieresis.alt" xMin="-26" yMin="0" xMax="356" yMax="905">
      <component glyphName="I.alt" x="0" y="0" flags="0x204"/>
      <component glyphName="dieresis.cap" x="-135" y="0" flags="0x4"/>
    </TTGlyph>
    <TTGlyph name="Idotaccent" xMin="65" yMin="0" xMax="405" yMax="905">
      <component glyphName="I" x="0" y="0" flags="0x204"/>
      <component glyphName="dotaccent.cap" x="-65" y="0" flags="0x4"/>
    </TTGlyph>
    <TTGlyph name="Idotaccent.alt" xMin="85" yMin="0" xMax="245" yMax="905">
      <component glyphName="I.alt" x="0" y="0" flags="0x204"/>
      <component glyphName="dotaccent.cap" x="-135" y="0" flags="0x4"/>
    </TTGlyph>
    <TTGlyph name="Idotbelow" xMin="65" yMin="-220" xMax="405" yMax="690">
      <component glyphName="I" x="0" y="0" flags="0x204"/>
      <component glyphName="dotbelow" x="-65" y="0" flags="0x4"/>
    </TTGlyph>
    <TTGlyph name="Idotbelow.alt" xMin="85" yMin="-220" xMax="245" yMax="690">
      <component glyphName="I.alt" x="0" y="0" flags="0x204"/>
      <component glyphName="dotbelow" x="-135" y="0" flags="0x4"/>
    </TTGlyph>
    <TTGlyph name="Igrave" xMin="25" yMin="0" xMax="405" yMax="885">
      <component glyphName="I" x="0" y="0" flags="0x204"/>
      <component glyphName="grave.cap" x="-65" y="0" flags="0x4"/>
    </TTGlyph>
    <TTGlyph name="Igrave.alt" xMin="-45" yMin="0" xMax="245" yMax="885">
      <component glyphName="I.alt" x="0" y="0" flags="0x204"/>
      <component glyphName="grave.cap" x="-135" y="0" flags="0x4"/>
    </TTGlyph>
    <TTGlyph name="Imacron" xMin="65" yMin="0" xMax="405" yMax="882">
      <component glyphName="I" x="0" y="0" flags="0x204"/>
      <component glyphName="macron.cap" x="-65" y="0" flags="0x4"/>
    </TTGlyph>
    <TTGlyph name="Imacron.alt" xMin="-5" yMin="0" xMax="335" yMax="882">
      <component glyphName="I.alt" x="0" y="0" flags="0x204"/>
      <component glyphName="macron.cap" x="-135" y="0" flags="0x4"/>
    </TTGlyph>
    <TTGlyph name="Iogonek" xMin="65" yMin="-197" xMax="405" yMax="690">
      <component glyphName="I" x="0" y="0" flags="0x204"/>
      <component glyphName="ogonek" x="-145" y="0" flags="0x4"/>
    </TTGlyph>
    <TTGlyph name="Iogonek.alt" xMin="25" yMin="-197" xMax="245" yMax="690">
      <component glyphName="I.alt" x="0" y="0" flags="0x204"/>
      <component glyphName="ogonek" x="-215" y="0" flags="0x4"/>
    </TTGlyph>
    <TTGlyph name="Itilde" xMin="64" yMin="0" xMax="406" yMax="896">
      <component glyphName="I" x="0" y="0" flags="0x204"/>
      <component glyphName="tilde.cap" x="-65" y="0" flags="0x4"/>
    </TTGlyph>
    <TTGlyph name="Itilde.alt" xMin="-6" yMin="0" xMax="336" yMax="896">
      <component glyphName="I.alt" x="0" y="0" flags="0x204"/>
      <component glyphName="tilde.cap" x="-135" y="0" flags="0x4"/>
    </TTGlyph>
    <TTGlyph name="J" xMin="15" yMin="-12" xMax="494" yMax="690">
      <contour>
        <pt x="15" y="74" on="1"/>
        <pt x="111" y="186" on="1"/>
        <pt x="128" y="162" on="0"/>
        <pt x="184" y="131" on="0"/>
        <pt x="218" y="131" on="1"/>
        <pt x="273" y="131" on="0"/>
        <pt x="334" y="199" on="0"/>
        <pt x="334" y="265" on="1"/>
        <pt x="334" y="570" on="1"/>
        <pt x="170" y="570" on="1"/>
        <pt x="170" y="690" on="1"/>
        <pt x="494" y="690" on="1"/>
        <pt x="494" y="245" on="1"/>
        <pt x="494" y="162" on="0"/>
        <pt x="421" y="48" on="0"/>
        <pt x="298" y="-12" on="0"/>
        <pt x="223" y="-12" on="1"/>
        <pt x="158" y="-12" on="0"/>
        <pt x="55" y="34" on="0"/>
      </contour>
    </TTGlyph>
    <TTGlyph name="J.alt" xMin="15" yMin="-12" xMax="494" yMax="690">
      <contour>
        <pt x="15" y="74" on="1"/>
        <pt x="111" y="186" on="1"/>
        <pt x="128" y="162" on="0"/>
        <pt x="184" y="131" on="0"/>
        <pt x="218" y="131" on="1"/>
        <pt x="273" y="131" on="0"/>
        <pt x="334" y="199" on="0"/>
        <pt x="334" y="265" on="1"/>
        <pt x="334" y="690" on="1"/>
        <pt x="494" y="690" on="1"/>
        <pt x="494" y="245" on="1"/>
        <pt x="494" y="162" on="0"/>
        <pt x="421" y="48" on="0"/>
        <pt x="298" y="-12" on="0"/>
        <pt x="223" y="-12" on="1"/>
        <pt x="158" y="-12" on="0"/>
        <pt x="55" y="34" on="0"/>
      </contour>
    </TTGlyph>
    <TTGlyph name="Jcircumflex" xMin="15" yMin="-12" xMax="522" yMax="885">
      <component glyphName="J" x="0" y="0" flags="0x204"/>
      <component glyphName="circumflex.cap" x="32" y="0" flags="0x4"/>
    </TTGlyph>
    <TTGlyph name="Jcircumflex.alt" xMin="15" yMin="-12" xMax="606" yMax="885">
      <component glyphName="J.alt" x="0" y="0" flags="0x204"/>
      <component glyphName="circumflex.cap" x="116" y="0" flags="0x4"/>
    </TTGlyph>
    <TTGlyph name="K" xMin="85" yMin="0" xMax="675" yMax="690">
      <contour>
        <pt x="85" y="0" on="1"/>
        <pt x="85" y="690" on="1"/>
        <pt x="245" y="690" on="1"/>
        <pt x="245" y="404" on="1"/>
        <pt x="463" y="690" on="1"/>
        <pt x="662" y="690" on="1"/>
        <pt x="410" y="391" on="1"/>
        <pt x="675" y="0" on="1"/>
        <pt x="481" y="0" on="1"/>
        <pt x="309" y="270" on="1"/>
        <pt x="245" y="195" on="1"/>
        <pt x="245" y="0" on="1"/>
      </contour>
    </TTGlyph>
    <TTGlyph name="Kcedilla" xMin="85" yMin="-340" xMax="675" yMax="690">
      <component glyphName="K" x="0" y="0" flags="0x204"/>
      <component glyphName="commaaccent" x="60" y="10" flags="0x4"/>
    </TTGlyph>
    <TTGlyph name="L" xMin="85" yMin="0" xMax="555" yMax="690">
      <contour>
        <pt x="85" y="0" on="1"/>
        <pt x="85" y="690" on="1"/>
        <pt x="245" y="690" on="1"/>
        <pt x="245" y="140" on="1"/>
        <pt x="555" y="140" on="1"/>
        <pt x="555" y="0" on="1"/>
      </contour>
    </TTGlyph>
    <TTGlyph name="Lacute" xMin="85" yMin="0" xMax="555" yMax="885">
      <component glyphName="L" x="0" y="0" flags="0x204"/>
      <component glyphName="acute.cap" x="-135" y="0" flags="0x4"/>
    </TTGlyph>
    <TTGlyph name="Lcaron" xMin="85" yMin="0" xMax="555" yMax="692">
      <component glyphName="L" x="0" y="0" flags="0x204"/>
      <component glyphName="caron.alt" x="70" y="-40" flags="0x4"/>
    </TTGlyph>
    <TTGlyph name="Lcedilla" xMin="85" yMin="-340" xMax="555" yMax="690">
      <component glyphName="L" x="0" y="0" flags="0x204"/>
      <component glyphName="commaaccent" x="20" y="10" flags="0x4"/>
    </TTGlyph>
    <TTGlyph name="Ldot" xMin="85" yMin="0" xMax="555" yMax="690">
      <component glyphName="L" x="0" y="0" flags="0x204"/>
      <component glyphName="periodcentered" x="321" y="70" flags="0x4"/>
    </TTGlyph>
    <TTGlyph name="Lslash" xMin="30" yMin="0" xMax="560" yMax="690">
      <contour>
        <pt x="90" y="0" on="1"/>
        <pt x="90" y="204" on="1"/>
        <pt x="30" y="170" on="1"/>
        <pt x="30" y="320" on="1"/>
        <pt x="90" y="354" on="1"/>
        <pt x="90" y="690" on="1"/>
        <pt x="250" y="690" on="1"/>
        <pt x="250" y="443" on="1"/>
        <pt x="370" y="510" on="1"/>
        <pt x="370" y="360" on="1"/>
        <pt x="250" y="293" on="1"/>
        <pt x="250" y="140" on="1"/>
        <pt x="560" y="140" on="1"/>
        <pt x="560" y="0" on="1"/>
      </contour>
    </TTGlyph>
    <TTGlyph name="M" xMin="85" yMin="0" xMax="769" yMax="690">
      <contour>
        <pt x="85" y="0" on="1"/>
        <pt x="85" y="690" on="1"/>
        <pt x="304" y="690" on="1"/>
        <pt x="427" y="357" on="1"/>
        <pt x="550" y="690" on="1"/>
        <pt x="769" y="690" on="1"/>
        <pt x="769" y="0" on="1"/>
        <pt x="616" y="0" on="1"/>
        <pt x="616" y="485" on="1"/>
        <pt x="480" y="141" on="1"/>
        <pt x="374" y="141" on="1"/>
        <pt x="238" y="485" on="1"/>
        <pt x="238" y="0" on="1"/>
      </contour>
    </TTGlyph>
    <TTGlyph name="N" xMin="85" yMin="0" xMax="674" yMax="690">
      <contour>
        <pt x="85" y="0" on="1"/>
        <pt x="85" y="690" on="1"/>
        <pt x="290" y="690" on="1"/>
        <pt x="530" y="202" on="1"/>
        <pt x="530" y="690" on="1"/>
        <pt x="674" y="690" on="1"/>
        <pt x="674" y="0" on="1"/>
        <pt x="480" y="0" on="1"/>
        <pt x="229" y="511" on="1"/>
        <pt x="229" y="0" on="1"/>
      </contour>
    </TTGlyph>
    <TTGlyph name="Nacute" xMin="85" yMin="0" xMax="674" yMax="885">
      <component glyphName="N" x="0" y="0" flags="0x204"/>
      <component glyphName="acute.cap" x="97" y="0" flags="0x4"/>
    </TTGlyph>
    <TTGlyph name="Ncaron" xMin="85" yMin="0" xMax="674" yMax="885">
      <component glyphName="N" x="0" y="0" flags="0x204"/>
      <component glyphName="caron.cap" x="97" y="0" flags="0x4"/>
    </TTGlyph>
    <TTGlyph name="Ncedilla" xMin="85" yMin="-340" xMax="674" yMax="690">
      <component glyphName="N" x="0" y="0" flags="0x204"/>
      <component glyphName="commaaccent" x="60" y="10" flags="0x4"/>
    </TTGlyph>
    <TTGlyph name="Nhookleft" xMin="-51" yMin="-197" xMax="674" yMax="690">
      <contour>
        <pt x="-51" y="-181" on="1"/>
        <pt x="-35" y="-57" on="1"/>
        <pt x="-19" y="-62" on="0"/>
        <pt x="4" y="-66" on="0"/>
        <pt x="16" y="-66" on="1"/>
        <pt x="48" y="-66" on="0"/>
        <pt x="85" y="-30" on="0"/>
        <pt x="85" y="16" on="1"/>
        <pt x="85" y="690" on="1"/>
        <pt x="290" y="690" on="1"/>
        <pt x="530" y="202" on="1"/>
        <pt x="530" y="690" on="1"/>
        <pt x="674" y="690" on="1"/>
        <pt x="674" y="0" on="1"/>
        <pt x="480" y="0" on="1"/>
        <pt x="229" y="511" on="1"/>
        <pt x="229" y="8" on="1"/>
        <pt x="229" y="-95" on="0"/>
        <pt x="132" y="-197" on="0"/>
        <pt x="46" y="-197" on="1"/>
        <pt x="23" y="-197" on="0"/>
        <pt x="-31" y="-188" on="0"/>
      </contour>
    </TTGlyph>
    <TTGlyph name="Ntilde" xMin="85" yMin="0" xMax="674" yMax="896">
      <component glyphName="N" x="0" y="0" flags="0x204"/>
      <component glyphName="tilde.cap" x="97" y="0" flags="0x4"/>
    </TTGlyph>
    <TTGlyph name="O" xMin="45" yMin="-12" xMax="699" yMax="702">
      <contour>
        <pt x="45" y="345" on="1"/>
        <pt x="45" y="456" on="0"/>
        <pt x="134" y="616" on="0"/>
        <pt x="282" y="702" on="0"/>
        <pt x="372" y="702" on="1"/>
        <pt x="462" y="702" on="0"/>
        <pt x="610" y="616" on="0"/>
        <pt x="699" y="456" on="0"/>
        <pt x="699" y="345" on="1"/>
        <pt x="699" y="234" on="0"/>
        <pt x="610" y="74" on="0"/>
        <pt x="462" y="-12" on="0"/>
        <pt x="372" y="-12" on="1"/>
        <pt x="282" y="-12" on="0"/>
        <pt x="134" y="74" on="0"/>
        <pt x="45" y="234" on="0"/>
      </contour>
      <contour>
        <pt x="208" y="345" on="1"/>
        <pt x="208" y="237" on="0"/>
        <pt x="302" y="131" on="0"/>
        <pt x="372" y="131" on="1"/>
        <pt x="442" y="131" on="0"/>
        <pt x="536" y="237" on="0"/>
        <pt x="536" y="345" on="1"/>
        <pt x="536" y="453" on="0"/>
        <pt x="442" y="559" on="0"/>
        <pt x="372" y="559" on="1"/>
        <pt x="302" y="559" on="0"/>
        <pt x="208" y="453" on="0"/>
      </contour>
    </TTGlyph>
    <TTGlyph name="OE" xMin="45" yMin="0" xMax="940" yMax="690">
      <contour>
        <pt x="45" y="345" on="1"/>
        <pt x="45" y="429" on="0"/>
        <pt x="102" y="557" on="0"/>
        <pt x="203" y="645" on="0"/>
        <pt x="336" y="690" on="0"/>
        <pt x="412" y="690" on="1"/>
        <pt x="935" y="690" on="1"/>
        <pt x="935" y="550" on="1"/>
        <pt x="640" y="550" on="1"/>
        <pt x="640" y="414" on="1"/>
        <pt x="888" y="414" on="1"/>
        <pt x="888" y="282" on="1"/>
        <pt x="640" y="282" on="1"/>
        <pt x="640" y="140" on="1"/>
        <pt x="940" y="140" on="1"/>
        <pt x="940" y="0" on="1"/>
        <pt x="412" y="0" on="1"/>
        <pt x="336" y="0" on="0"/>
        <pt x="203" y="45" on="0"/>
        <pt x="102" y="133" on="0"/>
        <pt x="45" y="261" on="0"/>
      </contour>
      <contour>
        <pt x="412" y="140" on="1"/>
        <pt x="480" y="140" on="1"/>
        <pt x="480" y="550" on="1"/>
        <pt x="412" y="550" on="1"/>
        <pt x="354" y="550" on="0"/>
        <pt x="261" y="508" on="0"/>
        <pt x="208" y="417" on="0"/>
        <pt x="208" y="345" on="1"/>
        <pt x="208" y="273" on="0"/>
        <pt x="261" y="182" on="0"/>
        <pt x="354" y="140" on="0"/>
      </contour>
    </TTGlyph>
    <TTGlyph name="Oacute" xMin="45" yMin="-12" xMax="699" yMax="885">
      <component glyphName="O" x="0" y="0" flags="0x204"/>
      <component glyphName="acute.cap" x="72" y="0" flags="0x4"/>
    </TTGlyph>
    <TTGlyph name="Obreve" xMin="45" yMin="-12" xMax="699" yMax="885">
      <component glyphName="O" x="0" y="0" flags="0x204"/>
      <component glyphName="breve.cap" x="72" y="0" flags="0x4"/>
    </TTGlyph>
    <TTGlyph name="Ocircumflex" xMin="45" yMin="-12" xMax="699" yMax="885">
      <component glyphName="O" x="0" y="0" flags="0x204"/>
      <component glyphName="circumflex.cap" x="72" y="0" flags="0x4"/>
    </TTGlyph>
    <TTGlyph name="Odieresis" xMin="45" yMin="-12" xMax="699" yMax="905">
      <component glyphName="O" x="0" y="0" flags="0x204"/>
      <component glyphName="dieresis.cap" x="72" y="0" flags="0x4"/>
    </TTGlyph>
    <TTGlyph name="Odotbelow" xMin="45" yMin="-220" xMax="699" yMax="702">
      <component glyphName="O" x="0" y="0" flags="0x204"/>
      <component glyphName="dotbelow" x="72" y="0" flags="0x4"/>
    </TTGlyph>
    <TTGlyph name="Ograve" xMin="45" yMin="-12" xMax="699" yMax="885">
      <component glyphName="O" x="0" y="0" flags="0x204"/>
      <component glyphName="grave.cap" x="72" y="0" flags="0x4"/>
    </TTGlyph>
    <TTGlyph name="Ohungarumlaut" xMin="45" yMin="-12" xMax="699" yMax="885">
      <component glyphName="O" x="0" y="0" flags="0x204"/>
      <component glyphName="hungarumlaut.cap" x="72" y="0" flags="0x4"/>
    </TTGlyph>
    <TTGlyph name="Omacron" xMin="45" yMin="-12" xMax="699" yMax="882">
      <component glyphName="O" x="0" y="0" flags="0x204"/>
      <component glyphName="macron.cap" x="72" y="0" flags="0x4"/>
    </TTGlyph>
    <TTGlyph name="Omega" xMin="70" yMin="0" xMax="656" yMax="702">
      <contour>
        <pt x="363" y="552" on="1"/>
        <pt x="302" y="552" on="0"/>
        <pt x="220" y="454" on="0"/>
        <pt x="220" y="365" on="1"/>
        <pt x="220" y="301" on="0"/>
        <pt x="261" y="198" on="0"/>
        <pt x="293" y="160" on="1"/>
        <pt x="293" y="0" on="1"/>
        <pt x="70" y="0" on="1"/>
        <pt x="70" y="130" on="1"/>
        <pt x="180" y="130" on="1"/>
        <pt x="131" y="174" on="0"/>
        <pt x="70" y="300" on="0"/>
        <pt x="70" y="380" on="1"/>
        <pt x="70" y="480" on="0"/>
        <pt x="149" y="624" on="0"/>
        <pt x="282" y="702" on="0"/>
        <pt x="363" y="702" on="1"/>
        <pt x="444" y="702" on="0"/>
        <pt x="577" y="624" on="0"/>
        <pt x="656" y="480" on="0"/>
        <pt x="656" y="380" on="1"/>
        <pt x="656" y="300" on="0"/>
        <pt x="595" y="174" on="0"/>
        <pt x="546" y="130" on="1"/>
        <pt x="656" y="130" on="1"/>
        <pt x="656" y="0" on="1"/>
        <pt x="433" y="0" on="1"/>
        <pt x="433" y="160" on="1"/>
        <pt x="465" y="198" on="0"/>
        <pt x="506" y="301" on="0"/>
        <pt x="506" y="365" on="1"/>
        <pt x="506" y="454" on="0"/>
        <pt x="424" y="552" on="0"/>
      </contour>
    </TTGlyph>
    <TTGlyph name="Oogonek" xMin="45" yMin="-197" xMax="699" yMax="702">
      <contour>
        <pt x="540" y="-170" on="1"/>
        <pt x="521" y="-181" on="0"/>
        <pt x="476" y="-197" on="0"/>
        <pt x="450" y="-197" on="1"/>
        <pt x="405" y="-197" on="0"/>
        <pt x="350" y="-151" on="0"/>
        <pt x="350" y="-110" on="1"/>
        <pt x="350" y="-53" on="0"/>
        <pt x="396" y="-11" on="1"/>
        <pt x="390" y="-12" on="0"/>
        <pt x="378" y="-12" on="0"/>
        <pt x="372" y="-12" on="1"/>
        <pt x="282" y="-12" on="0"/>
        <pt x="134" y="74" on="0"/>
        <pt x="45" y="234" on="0"/>
        <pt x="45" y="345" on="1"/>
        <pt x="45" y="456" on="0"/>
        <pt x="134" y="616" on="0"/>
        <pt x="282" y="702" on="0"/>
        <pt x="372" y="702" on="1"/>
        <pt x="462" y="702" on="0"/>
        <pt x="610" y="616" on="0"/>
        <pt x="699" y="456" on="0"/>
        <pt x="699" y="345" on="1"/>
        <pt x="699" y="230" on="0"/>
        <pt x="605" y="74" on="0"/>
        <pt x="530" y="26" on="1"/>
        <pt x="474" y="-10" on="0"/>
        <pt x="435" y="-68" on="0"/>
        <pt x="435" y="-90" on="1"/>
        <pt x="435" y="-101" on="0"/>
        <pt x="448" y="-117" on="0"/>
        <pt x="462" y="-117" on="1"/>
        <pt x="476" y="-117" on="0"/>
        <pt x="498" y="-106" on="0"/>
        <pt x="510" y="-99" on="1"/>
      </contour>
      <contour>
        <pt x="208" y="345" on="1"/>
        <pt x="208" y="237" on="0"/>
        <pt x="302" y="131" on="0"/>
        <pt x="372" y="131" on="1"/>
        <pt x="442" y="131" on="0"/>
        <pt x="536" y="237" on="0"/>
        <pt x="536" y="345" on="1"/>
        <pt x="536" y="453" on="0"/>
        <pt x="442" y="559" on="0"/>
        <pt x="372" y="559" on="1"/>
        <pt x="302" y="559" on="0"/>
        <pt x="208" y="453" on="0"/>
      </contour>
    </TTGlyph>
    <TTGlyph name="Oslash" xMin="25" yMin="-12" xMax="719" yMax="702">
      <contour>
        <pt x="25" y="70" on="1"/>
        <pt x="95" y="143" on="1"/>
        <pt x="72" y="184" on="0"/>
        <pt x="45" y="286" on="0"/>
        <pt x="45" y="345" on="1"/>
        <pt x="45" y="456" on="0"/>
        <pt x="134" y="616" on="0"/>
        <pt x="282" y="702" on="0"/>
        <pt x="372" y="702" on="1"/>
        <pt x="486" y="702" on="0"/>
        <pt x="571" y="636" on="1"/>
        <pt x="634" y="702" on="1"/>
        <pt x="719" y="620" on="1"/>
        <pt x="649" y="547" on="1"/>
        <pt x="672" y="506" on="0"/>
        <pt x="699" y="404" on="0"/>
        <pt x="699" y="345" on="1"/>
        <pt x="699" y="234" on="0"/>
        <pt x="610" y="74" on="0"/>
        <pt x="462" y="-12" on="0"/>
        <pt x="372" y="-12" on="1"/>
        <pt x="258" y="-12" on="0"/>
        <pt x="173" y="54" on="1"/>
        <pt x="110" y="-12" on="1"/>
      </contour>
      <contour>
        <pt x="205" y="345" on="1"/>
        <pt x="205" y="301" on="0"/>
        <pt x="213" y="265" on="1"/>
        <pt x="470" y="532" on="1"/>
        <pt x="429" y="564" on="0"/>
        <pt x="372" y="564" on="1"/>
        <pt x="300" y="564" on="0"/>
        <pt x="205" y="456" on="0"/>
      </contour>
      <contour>
        <pt x="539" y="345" on="1"/>
        <pt x="539" y="389" on="0"/>
        <pt x="531" y="425" on="1"/>
        <pt x="274" y="158" on="1"/>
        <pt x="315" y="126" on="0"/>
        <pt x="372" y="126" on="1"/>
        <pt x="444" y="126" on="0"/>
        <pt x="539" y="234" on="0"/>
      </contour>
    </TTGlyph>
    <TTGlyph name="Oslashacute" xMin="25" yMin="-12" xMax="719" yMax="885">
      <component glyphName="Oslash" x="0" y="0" flags="0x204"/>
      <component glyphName="acute.cap" x="72" y="0" flags="0x4"/>
    </TTGlyph>
    <TTGlyph name="Otilde" xMin="45" yMin="-12" xMax="699" yMax="896">
      <component glyphName="O" x="0" y="0" flags="0x204"/>
      <component glyphName="tilde.cap" x="72" y="0" flags="0x4"/>
    </TTGlyph>
    <TTGlyph name="P" xMin="85" yMin="0" xMax="614" yMax="690">
      <contour>
        <pt x="85" y="0" on="1"/>
        <pt x="85" y="690" on="1"/>
        <pt x="337" y="690" on="1"/>
        <pt x="415" y="690" on="0"/>
        <pt x="540" y="630" on="0"/>
        <pt x="614" y="518" on="0"/>
        <pt x="614" y="440" on="1"/>
        <pt x="614" y="362" on="0"/>
        <pt x="540" y="250" on="0"/>
        <pt x="415" y="190" on="0"/>
        <pt x="337" y="190" on="1"/>
        <pt x="245" y="190" on="1"/>
        <pt x="245" y="0" on="1"/>
      </contour>
      <contour>
        <pt x="322" y="550" on="1"/>
        <pt x="245" y="550" on="1"/>
        <pt x="245" y="330" on="1"/>
        <pt x="322" y="330" on="1"/>
        <pt x="380" y="330" on="0"/>
        <pt x="451" y="384" on="0"/>
        <pt x="451" y="440" on="1"/>
        <pt x="451" y="496" on="0"/>
        <pt x="380" y="550" on="0"/>
      </contour>
    </TTGlyph>
    <TTGlyph name="Q" xMin="45" yMin="-172" xMax="699" yMax="702">
      <contour>
        <pt x="45" y="345" on="1"/>
        <pt x="45" y="456" on="0"/>
        <pt x="134" y="616" on="0"/>
        <pt x="282" y="702" on="0"/>
        <pt x="372" y="702" on="1"/>
        <pt x="462" y="702" on="0"/>
        <pt x="610" y="616" on="0"/>
        <pt x="699" y="456" on="0"/>
        <pt x="699" y="345" on="1"/>
        <pt x="699" y="238" on="0"/>
        <pt x="617" y="82" on="0"/>
        <pt x="549" y="39" on="1"/>
        <pt x="566" y="6" on="0"/>
        <pt x="631" y="-22" on="0"/>
        <pt x="680" y="-22" on="1"/>
        <pt x="680" y="-172" on="1"/>
        <pt x="577" y="-172" on="0"/>
        <pt x="449" y="-92" on="0"/>
        <pt x="421" y="-9" on="1"/>
        <pt x="397" y="-12" on="0"/>
        <pt x="372" y="-12" on="1"/>
        <pt x="282" y="-12" on="0"/>
        <pt x="134" y="74" on="0"/>
        <pt x="45" y="234" on="0"/>
      </contour>
      <contour>
        <pt x="208" y="345" on="1"/>
        <pt x="208" y="237" on="0"/>
        <pt x="302" y="131" on="0"/>
        <pt x="372" y="131" on="1"/>
        <pt x="442" y="131" on="0"/>
        <pt x="536" y="237" on="0"/>
        <pt x="536" y="345" on="1"/>
        <pt x="536" y="453" on="0"/>
        <pt x="442" y="559" on="0"/>
        <pt x="372" y="559" on="1"/>
        <pt x="302" y="559" on="0"/>
        <pt x="208" y="453" on="0"/>
      </contour>
    </TTGlyph>
    <TTGlyph name="R" xMin="85" yMin="0" xMax="624" yMax="690">
      <contour>
        <pt x="85" y="0" on="1"/>
        <pt x="85" y="690" on="1"/>
        <pt x="347" y="690" on="1"/>
        <pt x="420" y="690" on="0"/>
        <pt x="536" y="635" on="0"/>
        <pt x="604" y="532" on="0"/>
        <pt x="604" y="460" on="1"/>
        <pt x="604" y="389" on="0"/>
        <pt x="531" y="288" on="0"/>
        <pt x="471" y="263" on="1"/>
        <pt x="624" y="0" on="1"/>
        <pt x="447" y="0" on="1"/>
        <pt x="322" y="240" on="1"/>
        <pt x="245" y="240" on="1"/>
        <pt x="245" y="0" on="1"/>
      </contour>
      <contour>
        <pt x="332" y="550" on="1"/>
        <pt x="245" y="550" on="1"/>
        <pt x="245" y="370" on="1"/>
        <pt x="332" y="370" on="1"/>
        <pt x="381" y="370" on="0"/>
        <pt x="441" y="414" on="0"/>
        <pt x="441" y="460" on="1"/>
        <pt x="441" y="506" on="0"/>
        <pt x="381" y="550" on="0"/>
      </contour>
    </TTGlyph>
    <TTGlyph name="Racute" xMin="85" yMin="0" xMax="624" yMax="885">
      <component glyphName="R" x="0" y="0" flags="0x204"/>
      <component glyphName="acute.cap" x="22" y="0" flags="0x4"/>
    </TTGlyph>
    <TTGlyph name="Rcaron" xMin="85" yMin="0" xMax="624" yMax="885">
      <component glyphName="R" x="0" y="0" flags="0x204"/>
      <component glyphName="caron.cap" x="22" y="0" flags="0x4"/>
    </TTGlyph>
    <TTGlyph name="Rcedilla" xMin="85" yMin="-340" xMax="624" yMax="690">
      <component glyphName="R" x="0" y="0" flags="0x204"/>
      <component glyphName="commaaccent" x="40" y="10" flags="0x4"/>
    </TTGlyph>
    <TTGlyph name="S" xMin="35" yMin="-12" xMax="593" yMax="702">
      <contour>
        <pt x="35" y="74" on="1"/>
        <pt x="111" y="207" on="1"/>
        <pt x="155" y="171" on="0"/>
        <pt x="271" y="126" on="0"/>
        <pt x="326" y="126" on="1"/>
        <pt x="375" y="126" on="0"/>
        <pt x="428" y="160" on="0"/>
        <pt x="428" y="184" on="1"/>
        <pt x="428" y="198" on="0"/>
        <pt x="407" y="228" on="0"/>
        <pt x="352" y="260" on="0"/>
        <pt x="299" y="277" on="1"/>
        <pt x="176" y="317" on="0"/>
        <pt x="70" y="432" on="0"/>
        <pt x="70" y="500" on="1"/>
        <pt x="70" y="555" on="0"/>
        <pt x="129" y="647" on="0"/>
        <pt x="244" y="702" on="0"/>
        <pt x="330" y="702" on="1"/>
        <pt x="398" y="702" on="0"/>
        <pt x="533" y="658" on="0"/>
        <pt x="579" y="627" on="1"/>
        <pt x="508" y="500" on="1"/>
        <pt x="467" y="529" on="0"/>
        <pt x="369" y="566" on="0"/>
        <pt x="317" y="566" on="1"/>
        <pt x="275" y="566" on="0"/>
        <pt x="231" y="534" on="0"/>
        <pt x="231" y="513" on="1"/>
        <pt x="231" y="490" on="0"/>
        <pt x="286" y="449" on="0"/>
        <pt x="356" y="426" on="1"/>
        <pt x="484" y="384" on="0"/>
        <pt x="593" y="271" on="0"/>
        <pt x="593" y="195" on="1"/>
        <pt x="593" y="140" on="0"/>
        <pt x="531" y="46" on="0"/>
        <pt x="404" y="-12" on="0"/>
        <pt x="309" y="-12" on="1"/>
        <pt x="238" y="-12" on="0"/>
        <pt x="99" y="34" on="0"/>
      </contour>
    </TTGlyph>
    <TTGlyph name="Sacute" xMin="35" yMin="-12" xMax="593" yMax="885">
      <component glyphName="S" x="0" y="0" flags="0x204"/>
      <component glyphName="acute.cap" x="30" y="0" flags="0x4"/>
    </TTGlyph>
    <TTGlyph name="Scaron" xMin="35" yMin="-12" xMax="593" yMax="885">
      <component glyphName="S" x="0" y="0" flags="0x204"/>
      <component glyphName="caron.cap" x="30" y="0" flags="0x4"/>
    </TTGlyph>
    <TTGlyph name="Scedilla" xMin="35" yMin="-228" xMax="593" yMax="702">
      <component glyphName="S" x="0" y="0" flags="0x204"/>
      <component glyphName="cedilla" x="9" y="0" flags="0x4"/>
    </TTGlyph>
    <TTGlyph name="Schwa" xMin="45" yMin="-12" xMax="679" yMax="702">
      <contour>
        <pt x="45" y="345" on="1"/>
        <pt x="45" y="356" on="0"/>
        <pt x="48" y="390" on="0"/>
        <pt x="50" y="400" on="1"/>
        <pt x="511" y="400" on="1"/>
        <pt x="497" y="479" on="0"/>
        <pt x="391" y="552" on="0"/>
        <pt x="320" y="552" on="1"/>
        <pt x="290" y="552" on="0"/>
        <pt x="224" y="536" on="0"/>
        <pt x="165" y="512" on="0"/>
        <pt x="145" y="500" on="1"/>
        <pt x="90" y="635" on="1"/>
        <pt x="120" y="652" on="0"/>
        <pt x="202" y="683" on="0"/>
        <pt x="295" y="702" on="0"/>
        <pt x="340" y="702" on="1"/>
        <pt x="435" y="702" on="0"/>
        <pt x="589" y="617" on="0"/>
        <pt x="679" y="458" on="0"/>
        <pt x="679" y="345" on="1"/>
        <pt x="679" y="232" on="0"/>
        <pt x="593" y="73" on="0"/>
        <pt x="449" y="-12" on="0"/>
        <pt x="362" y="-12" on="1"/>
        <pt x="275" y="-12" on="0"/>
        <pt x="131" y="74" on="0"/>
        <pt x="45" y="234" on="0"/>
      </contour>
      <contour>
        <pt x="362" y="131" on="1"/>
        <pt x="417" y="131" on="0"/>
        <pt x="498" y="204" on="0"/>
        <pt x="511" y="280" on="1"/>
        <pt x="213" y="280" on="1"/>
        <pt x="226" y="205" on="0"/>
        <pt x="307" y="131" on="0"/>
      </contour>
    </TTGlyph>
    <TTGlyph name="Scircumflex" xMin="35" yMin="-12" xMax="593" yMax="885">
      <component glyphName="S" x="0" y="0" flags="0x204"/>
      <component glyphName="circumflex.cap" x="30" y="0" flags="0x4"/>
    </TTGlyph>
    <TTGlyph name="Scommaaccent" xMin="35" yMin="-340" xMax="593" yMax="702">
      <component glyphName="S" x="0" y="0" flags="0x204"/>
      <component glyphName="commaaccent" x="9" y="10" flags="0x4"/>
    </TTGlyph>
    <TTGlyph name="T" xMin="25" yMin="0" xMax="561" yMax="690">
      <contour>
        <pt x="213" y="0" on="1"/>
        <pt x="213" y="550" on="1"/>
        <pt x="25" y="550" on="1"/>
        <pt x="25" y="690" on="1"/>
        <pt x="561" y="690" on="1"/>
        <pt x="561" y="550" on="1"/>
        <pt x="373" y="550" on="1"/>
        <pt x="373" y="0" on="1"/>
      </contour>
    </TTGlyph>
    <TTGlyph name="Tbar" xMin="30" yMin="0" xMax="566" yMax="690">
      <contour>
        <pt x="218" y="0" on="1"/>
        <pt x="218" y="246" on="1"/>
        <pt x="78" y="246" on="1"/>
        <pt x="78" y="380" on="1"/>
        <pt x="218" y="380" on="1"/>
        <pt x="218" y="550" on="1"/>
        <pt x="30" y="550" on="1"/>
        <pt x="30" y="690" on="1"/>
        <pt x="566" y="690" on="1"/>
        <pt x="566" y="550" on="1"/>
        <pt x="378" y="550" on="1"/>
        <pt x="378" y="380" on="1"/>
        <pt x="518" y="380" on="1"/>
        <pt x="518" y="246" on="1"/>
        <pt x="378" y="246" on="1"/>
        <pt x="378" y="0" on="1"/>
      </contour>
    </TTGlyph>
    <TTGlyph name="Tcaron" xMin="25" yMin="0" xMax="561" yMax="885">
      <component glyphName="T" x="0" y="0" flags="0x204"/>
      <component glyphName="caron.cap" x="-7" y="0" flags="0x4"/>
    </TTGlyph>
    <TTGlyph name="Tcedilla" xMin="25" yMin="-228" xMax="561" yMax="690">
      <component glyphName="T" x="0" y="0" flags="0x204"/>
      <component glyphName="cedilla" x="-7" y="0" flags="0x4"/>
    </TTGlyph>
    <TTGlyph name="Tcommaaccent" xMin="25" yMin="-340" xMax="561" yMax="690">
      <component glyphName="T" x="0" y="0" flags="0x204"/>
      <component glyphName="commaaccent" x="-7" y="10" flags="0x4"/>
    </TTGlyph>
    <TTGlyph name="Thorn" xMin="85" yMin="0" xMax="614" yMax="690">
      <contour>
        <pt x="85" y="0" on="1"/>
        <pt x="85" y="690" on="1"/>
        <pt x="245" y="690" on="1"/>
        <pt x="245" y="590" on="1"/>
        <pt x="347" y="590" on="1"/>
        <pt x="422" y="590" on="0"/>
        <pt x="543" y="532" on="0"/>
        <pt x="614" y="422" on="0"/>
        <pt x="614" y="345" on="1"/>
        <pt x="614" y="268" on="0"/>
        <pt x="543" y="158" on="0"/>
        <pt x="422" y="100" on="0"/>
        <pt x="347" y="100" on="1"/>
        <pt x="245" y="100" on="1"/>
        <pt x="245" y="0" on="1"/>
      </contour>
      <contour>
        <pt x="332" y="450" on="1"/>
        <pt x="245" y="450" on="1"/>
        <pt x="245" y="240" on="1"/>
        <pt x="332" y="240" on="1"/>
        <pt x="385" y="240" on="0"/>
        <pt x="451" y="292" on="0"/>
        <pt x="451" y="345" on="1"/>
        <pt x="451" y="398" on="0"/>
        <pt x="385" y="450" on="0"/>
      </contour>
    </TTGlyph>
    <TTGlyph name="U" xMin="75" yMin="-12" xMax="649" yMax="690">
      <contour>
        <pt x="75" y="275" on="1"/>
        <pt x="75" y="690" on="1"/>
        <pt x="235" y="690" on="1"/>
        <pt x="235" y="295" on="1"/>
        <pt x="235" y="210" on="0"/>
        <pt x="308" y="131" on="0"/>
        <pt x="364" y="131" on="1"/>
        <pt x="420" y="131" on="0"/>
        <pt x="493" y="210" on="0"/>
        <pt x="493" y="295" on="1"/>
        <pt x="493" y="690" on="1"/>
        <pt x="649" y="690" on="1"/>
        <pt x="649" y="275" on="1"/>
        <pt x="649" y="183" on="0"/>
        <pt x="573" y="55" on="0"/>
        <pt x="442" y="-12" on="0"/>
        <pt x="362" y="-12" on="1"/>
        <pt x="282" y="-12" on="0"/>
        <pt x="151" y="55" on="0"/>
        <pt x="75" y="183" on="0"/>
      </contour>
    </TTGlyph>
    <TTGlyph name="Uacute" xMin="75" yMin="-12" xMax="649" yMax="885">
      <component glyphName="U" x="0" y="0" flags="0x204"/>
      <component glyphName="acute.cap" x="64" y="0" flags="0x4"/>
    </TTGlyph>
    <TTGlyph name="Ubreve" xMin="75" yMin="-12" xMax="649" yMax="885">
      <component glyphName="U" x="0" y="0" flags="0x204"/>
      <component glyphName="breve.cap" x="64" y="0" flags="0x4"/>
    </TTGlyph>
    <TTGlyph name="Ucircumflex" xMin="75" yMin="-12" xMax="649" yMax="885">
      <component glyphName="U" x="0" y="0" flags="0x204"/>
      <component glyphName="circumflex.cap" x="64" y="0" flags="0x4"/>
    </TTGlyph>
    <TTGlyph name="Udieresis" xMin="75" yMin="-12" xMax="649" yMax="905">
      <component glyphName="U" x="0" y="0" flags="0x204"/>
      <component glyphName="dieresis.cap" x="64" y="0" flags="0x4"/>
    </TTGlyph>
    <TTGlyph name="Udotbelow" xMin="75" yMin="-220" xMax="649" yMax="690">
      <component glyphName="U" x="0" y="0" flags="0x204"/>
      <component glyphName="dotbelow" x="62" y="0" flags="0x4"/>
    </TTGlyph>
    <TTGlyph name="Ugrave" xMin="75" yMin="-12" xMax="649" yMax="885">
      <component glyphName="U" x="0" y="0" flags="0x204"/>
      <component glyphName="grave.cap" x="64" y="0" flags="0x4"/>
    </TTGlyph>
    <TTGlyph name="Uhungarumlaut" xMin="75" yMin="-12" xMax="649" yMax="885">
      <component glyphName="U" x="0" y="0" flags="0x204"/>
      <component glyphName="hungarumlaut.cap" x="64" y="0" flags="0x4"/>
    </TTGlyph>
    <TTGlyph name="Umacron" xMin="75" yMin="-12" xMax="649" yMax="882">
      <component glyphName="U" x="0" y="0" flags="0x204"/>
      <component glyphName="macron.cap" x="64" y="0" flags="0x4"/>
    </TTGlyph>
    <TTGlyph name="Uogonek" xMin="75" yMin="-197" xMax="649" yMax="690">
      <contour>
        <pt x="525" y="-170" on="1"/>
        <pt x="506" y="-181" on="0"/>
        <pt x="461" y="-197" on="0"/>
        <pt x="435" y="-197" on="1"/>
        <pt x="390" y="-197" on="0"/>
        <pt x="335" y="-151" on="0"/>
        <pt x="335" y="-110" on="1"/>
        <pt x="335" y="-52" on="0"/>
        <pt x="381" y="-12" on="1"/>
        <pt x="362" y="-12" on="1"/>
        <pt x="282" y="-12" on="0"/>
        <pt x="151" y="55" on="0"/>
        <pt x="75" y="183" on="0"/>
        <pt x="75" y="275" on="1"/>
        <pt x="75" y="690" on="1"/>
        <pt x="235" y="690" on="1"/>
        <pt x="235" y="295" on="1"/>
        <pt x="235" y="210" on="0"/>
        <pt x="308" y="131" on="0"/>
        <pt x="364" y="131" on="1"/>
        <pt x="420" y="131" on="0"/>
        <pt x="493" y="210" on="0"/>
        <pt x="493" y="295" on="1"/>
        <pt x="493" y="690" on="1"/>
        <pt x="649" y="690" on="1"/>
        <pt x="649" y="275" on="1"/>
        <pt x="649" y="186" on="0"/>
        <pt x="578" y="65" on="0"/>
        <pt x="518" y="26" on="1"/>
        <pt x="460" y="-12" on="0"/>
        <pt x="420" y="-68" on="0"/>
        <pt x="420" y="-90" on="1"/>
        <pt x="420" y="-101" on="0"/>
        <pt x="434" y="-117" on="0"/>
        <pt x="447" y="-117" on="1"/>
        <pt x="460" y="-117" on="0"/>
        <pt x="483" y="-106" on="0"/>
        <pt x="495" y="-99" on="1"/>
      </contour>
    </TTGlyph>
    <TTGlyph name="Uring" xMin="75" yMin="-12" xMax="649" yMax="958">
      <component glyphName="U" x="0" y="0" flags="0x204"/>
      <component glyphName="ring.cap" x="64" y="0" flags="0x4"/>
    </TTGlyph>
    <TTGlyph name="Utilde" xMin="75" yMin="-12" xMax="649" yMax="896">
      <component glyphName="U" x="0" y="0" flags="0x204"/>
      <component glyphName="tilde.cap" x="64" y="0" flags="0x4"/>
    </TTGlyph>
    <TTGlyph name="V" xMin="0" yMin="0" xMax="656" yMax="690">
      <contour>
        <pt x="0" y="690" on="1"/>
        <pt x="170" y="690" on="1"/>
        <pt x="330" y="207" on="1"/>
        <pt x="490" y="690" on="1"/>
        <pt x="656" y="690" on="1"/>
        <pt x="405" y="0" on="1"/>
        <pt x="251" y="0" on="1"/>
      </contour>
    </TTGlyph>
    <TTGlyph name="W" xMin="0" yMin="0" xMax="956" yMax="690">
      <contour>
        <pt x="0" y="690" on="1"/>
        <pt x="168" y="690" on="1"/>
        <pt x="284" y="229" on="1"/>
        <pt x="414" y="690" on="1"/>
        <pt x="546" y="690" on="1"/>
        <pt x="675" y="227" on="1"/>
        <pt x="792" y="690" on="1"/>
        <pt x="956" y="690" on="1"/>
        <pt x="750" y="0" on="1"/>
        <pt x="598" y="0" on="1"/>
        <pt x="478" y="425" on="1"/>
        <pt x="356" y="0" on="1"/>
        <pt x="205" y="0" on="1"/>
      </contour>
    </TTGlyph>
    <TTGlyph name="Wacute" xMin="0" yMin="0" xMax="956" yMax="885">
      <component glyphName="W" x="0" y="0" flags="0x204"/>
      <component glyphName="acute.cap" x="178" y="0" flags="0x4"/>
    </TTGlyph>
    <TTGlyph name="Wcircumflex" xMin="0" yMin="0" xMax="956" yMax="885">
      <component glyphName="W" x="0" y="0" flags="0x204"/>
      <component glyphName="circumflex.cap" x="178" y="0" flags="0x4"/>
    </TTGlyph>
    <TTGlyph name="Wdieresis" xMin="0" yMin="0" xMax="956" yMax="905">
      <component glyphName="W" x="0" y="0" flags="0x204"/>
      <component glyphName="dieresis.cap" x="178" y="0" flags="0x4"/>
    </TTGlyph>
    <TTGlyph name="Wgrave" xMin="0" yMin="0" xMax="956" yMax="885">
      <component glyphName="W" x="0" y="0" flags="0x204"/>
      <component glyphName="grave.cap" x="178" y="0" flags="0x4"/>
    </TTGlyph>
    <TTGlyph name="X" xMin="5" yMin="0" xMax="619" yMax="690">
      <contour>
        <pt x="5" y="0" on="1"/>
        <pt x="225" y="353" on="1"/>
        <pt x="15" y="690" on="1"/>
        <pt x="199" y="690" on="1"/>
        <pt x="318" y="488" on="1"/>
        <pt x="430" y="690" on="1"/>
        <pt x="609" y="690" on="1"/>
        <pt x="399" y="353" on="1"/>
        <pt x="619" y="0" on="1"/>
        <pt x="435" y="0" on="1"/>
        <pt x="306" y="219" on="1"/>
        <pt x="184" y="0" on="1"/>
      </contour>
    </TTGlyph>
    <TTGlyph name="Y" xMin="0" yMin="0" xMax="656" yMax="690">
      <contour>
        <pt x="248" y="0" on="1"/>
        <pt x="248" y="281" on="1"/>
        <pt x="0" y="690" on="1"/>
        <pt x="184" y="690" on="1"/>
        <pt x="330" y="428" on="1"/>
        <pt x="476" y="690" on="1"/>
        <pt x="656" y="690" on="1"/>
        <pt x="408" y="281" on="1"/>
        <pt x="408" y="0" on="1"/>
      </contour>
    </TTGlyph>
    <TTGlyph name="Yacute" xMin="0" yMin="0" xMax="656" yMax="885">
      <component glyphName="Y" x="0" y="0" flags="0x204"/>
      <component glyphName="acute.cap" x="29" y="0" flags="0x4"/>
    </TTGlyph>
    <TTGlyph name="Ycircumflex" xMin="0" yMin="0" xMax="656" yMax="885">
      <component glyphName="Y" x="0" y="0" flags="0x204"/>
      <component glyphName="circumflex.cap" x="29" y="0" flags="0x4"/>
    </TTGlyph>
    <TTGlyph name="Ydieresis" xMin="0" yMin="0" xMax="656" yMax="905">
      <component glyphName="Y" x="0" y="0" flags="0x204"/>
      <component glyphName="dieresis.cap" x="29" y="0" flags="0x4"/>
    </TTGlyph>
    <TTGlyph name="Ygrave" xMin="0" yMin="0" xMax="656" yMax="885">
      <component glyphName="Y" x="0" y="0" flags="0x204"/>
      <component glyphName="grave.cap" x="29" y="0" flags="0x4"/>
    </TTGlyph>
    <TTGlyph name="Ymacron" xMin="0" yMin="0" xMax="656" yMax="882">
      <component glyphName="Y" x="0" y="0" flags="0x204"/>
      <component glyphName="macron.cap" x="29" y="0" flags="0x4"/>
    </TTGlyph>
    <TTGlyph name="Ytilde" xMin="0" yMin="0" xMax="656" yMax="896">
      <component glyphName="Y" x="0" y="0" flags="0x204"/>
      <component glyphName="tilde.cap" x="29" y="0" flags="0x4"/>
    </TTGlyph>
    <TTGlyph name="Z" xMin="55" yMin="0" xMax="591" yMax="690">
      <contour>
        <pt x="55" y="0" on="1"/>
        <pt x="55" y="105" on="1"/>
        <pt x="365" y="550" on="1"/>
        <pt x="65" y="550" on="1"/>
        <pt x="65" y="690" on="1"/>
        <pt x="581" y="690" on="1"/>
        <pt x="581" y="585" on="1"/>
        <pt x="271" y="140" on="1"/>
        <pt x="591" y="140" on="1"/>
        <pt x="591" y="0" on="1"/>
      </contour>
    </TTGlyph>
    <TTGlyph name="Zacute" xMin="55" yMin="0" xMax="591" yMax="885">
      <component glyphName="Z" x="0" y="0" flags="0x204"/>
      <component glyphName="acute.cap" x="23" y="0" flags="0x4"/>
    </TTGlyph>
    <TTGlyph name="Zcaron" xMin="55" yMin="0" xMax="591" yMax="885">
      <component glyphName="Z" x="0" y="0" flags="0x204"/>
      <component glyphName="caron.cap" x="23" y="0" flags="0x4"/>
    </TTGlyph>
    <TTGlyph name="Zdotaccent" xMin="55" yMin="0" xMax="591" yMax="905">
      <component glyphName="Z" x="0" y="0" flags="0x204"/>
      <component glyphName="dotaccent.cap" x="23" y="0" flags="0x4"/>
    </TTGlyph>
    <TTGlyph name="a" xMin="35" yMin="-12" xMax="502" yMax="537">
      <contour>
        <pt x="35" y="138" on="1"/>
        <pt x="35" y="211" on="0"/>
        <pt x="156" y="308" on="0"/>
        <pt x="280" y="312" on="1"/>
        <pt x="337" y="314" on="1"/>
        <pt x="337" y="318" on="1"/>
        <pt x="337" y="362" on="0"/>
        <pt x="288" y="412" on="0"/>
        <pt x="236" y="412" on="1"/>
        <pt x="194" y="412" on="0"/>
        <pt x="120" y="389" on="0"/>
        <pt x="92" y="375" on="1"/>
        <pt x="52" y="493" on="1"/>
        <pt x="90" y="510" on="0"/>
        <pt x="198" y="537" on="0"/>
        <pt x="259" y="537" on="1"/>
        <pt x="360" y="537" on="0"/>
        <pt x="487" y="430" on="0"/>
        <pt x="487" y="326" on="1"/>
        <pt x="487" y="125" on="1"/>
        <pt x="487" y="104" on="0"/>
        <pt x="490" y="71" on="0"/>
        <pt x="494" y="49" on="1"/>
        <pt x="502" y="0" on="1"/>
        <pt x="356" y="0" on="1"/>
        <pt x="344" y="65" on="1"/>
        <pt x="318" y="31" on="0"/>
        <pt x="238" y="-12" on="0"/>
        <pt x="190" y="-12" on="1"/>
        <pt x="148" y="-12" on="0"/>
        <pt x="78" y="26" on="0"/>
        <pt x="35" y="93" on="0"/>
      </contour>
      <contour>
        <pt x="170" y="155" on="1"/>
        <pt x="170" y="129" on="0"/>
        <pt x="204" y="100" on="0"/>
        <pt x="230" y="100" on="1"/>
        <pt x="259" y="100" on="0"/>
        <pt x="314" y="125" on="0"/>
        <pt x="337" y="147" on="1"/>
        <pt x="337" y="228" on="1"/>
        <pt x="290" y="226" on="1"/>
        <pt x="223" y="223" on="0"/>
        <pt x="170" y="181" on="0"/>
      </contour>
    </TTGlyph>
    <TTGlyph name="a.alt" xMin="35" yMin="-12" xMax="528" yMax="537">
      <contour>
        <pt x="35" y="138" on="1"/>
        <pt x="35" y="211" on="0"/>
        <pt x="156" y="308" on="0"/>
        <pt x="280" y="312" on="1"/>
        <pt x="337" y="314" on="1"/>
        <pt x="337" y="318" on="1"/>
        <pt x="337" y="362" on="0"/>
        <pt x="288" y="412" on="0"/>
        <pt x="236" y="412" on="1"/>
        <pt x="194" y="412" on="0"/>
        <pt x="120" y="389" on="0"/>
        <pt x="92" y="375" on="1"/>
        <pt x="52" y="493" on="1"/>
        <pt x="90" y="510" on="0"/>
        <pt x="198" y="537" on="0"/>
        <pt x="259" y="537" on="1"/>
        <pt x="360" y="537" on="0"/>
        <pt x="487" y="430" on="0"/>
        <pt x="487" y="326" on="1"/>
        <pt x="487" y="147" on="1"/>
        <pt x="487" y="118" on="0"/>
        <pt x="510" y="118" on="1"/>
        <pt x="519" y="118" on="0"/>
        <pt x="528" y="121" on="1"/>
        <pt x="528" y="0" on="1"/>
        <pt x="514" y="-5" on="0"/>
        <pt x="480" y="-12" on="0"/>
        <pt x="464" y="-12" on="1"/>
        <pt x="423" y="-12" on="0"/>
        <pt x="359" y="27" on="0"/>
        <pt x="348" y="71" on="1"/>
        <pt x="323" y="34" on="0"/>
        <pt x="240" y="-12" on="0"/>
        <pt x="190" y="-12" on="1"/>
        <pt x="148" y="-12" on="0"/>
        <pt x="78" y="26" on="0"/>
        <pt x="35" y="93" on="0"/>
      </contour>
      <contour>
        <pt x="170" y="155" on="1"/>
        <pt x="170" y="129" on="0"/>
        <pt x="204" y="100" on="0"/>
        <pt x="230" y="100" on="1"/>
        <pt x="259" y="100" on="0"/>
        <pt x="314" y="125" on="0"/>
        <pt x="337" y="147" on="1"/>
        <pt x="337" y="228" on="1"/>
        <pt x="290" y="226" on="1"/>
        <pt x="223" y="223" on="0"/>
        <pt x="170" y="181" on="0"/>
      </contour>
    </TTGlyph>
    <TTGlyph name="aacute" xMin="35" yMin="-12" xMax="502" yMax="750">
      <component glyphName="a" x="0" y="0" flags="0x204"/>
      <component glyphName="acute" x="-36" y="0" flags="0x4"/>
    </TTGlyph>
    <TTGlyph name="aacute.alt" xMin="35" yMin="-12" xMax="528" yMax="750">
      <component glyphName="a.alt" x="0" y="0" flags="0x204"/>
      <component glyphName="acute" x="-36" y="0" flags="0x4"/>
    </TTGlyph>
    <TTGlyph name="abreve" xMin="35" yMin="-12" xMax="502" yMax="750">
      <component glyphName="a" x="0" y="0" flags="0x204"/>
      <component glyphName="breve" x="-36" y="0" flags="0x4"/>
    </TTGlyph>
    <TTGlyph name="abreve.alt" xMin="35" yMin="-12" xMax="528" yMax="750">
      <component glyphName="a.alt" x="0" y="0" flags="0x204"/>
      <component glyphName="breve" x="-36" y="0" flags="0x4"/>
    </TTGlyph>
    <TTGlyph name="acircumflex" xMin="35" yMin="-12" xMax="502" yMax="750">
      <component glyphName="a" x="0" y="0" flags="0x204"/>
      <component glyphName="circumflex" x="-36" y="0" flags="0x4"/>
    </TTGlyph>
    <TTGlyph name="acircumflex.alt" xMin="35" yMin="-12" xMax="528" yMax="750">
      <component glyphName="a.alt" x="0" y="0" flags="0x204"/>
      <component glyphName="circumflex" x="-36" y="0" flags="0x4"/>
    </TTGlyph>
    <TTGlyph name="acute" xMin="234" yMin="600" xMax="494" yMax="750">
      <contour>
        <pt x="234" y="600" on="1"/>
        <pt x="323" y="750" on="1"/>
        <pt x="494" y="750" on="1"/>
        <pt x="355" y="600" on="1"/>
      </contour>
    </TTGlyph>
    <TTGlyph name="acute.cap" xMin="232" yMin="750" xMax="510" yMax="885">
      <contour>
        <pt x="232" y="750" on="1"/>
        <pt x="336" y="885" on="1"/>
        <pt x="510" y="885" on="1"/>
        <pt x="358" y="750" on="1"/>
      </contour>
    </TTGlyph>
    <TTGlyph name="adieresis" xMin="35" yMin="-12" xMax="502" yMax="745">
      <component glyphName="a" x="0" y="0" flags="0x204"/>
      <component glyphName="dieresis" x="-36" y="0" flags="0x4"/>
    </TTGlyph>
    <TTGlyph name="adieresis.alt" xMin="35" yMin="-12" xMax="528" yMax="745">
      <component glyphName="a.alt" x="0" y="0" flags="0x204"/>
      <component glyphName="dieresis" x="-36" y="0" flags="0x4"/>
    </TTGlyph>
    <TTGlyph name="adotbelow" xMin="35" yMin="-220" xMax="502" yMax="537">
      <component glyphName="a" x="0" y="0" flags="0x204"/>
      <component glyphName="dotbelow" x="-36" y="0" flags="0x4"/>
    </TTGlyph>
    <TTGlyph name="adotbelow.alt" xMin="35" yMin="-220" xMax="528" yMax="537">
      <component glyphName="a.alt" x="0" y="0" flags="0x204"/>
      <component glyphName="dotbelow" x="-36" y="0" flags="0x4"/>
    </TTGlyph>
    <TTGlyph name="ae" xMin="35" yMin="-12" xMax="821" yMax="537">
      <contour>
        <pt x="35" y="138" on="1"/>
        <pt x="35" y="211" on="0"/>
        <pt x="156" y="308" on="0"/>
        <pt x="280" y="312" on="1"/>
        <pt x="338" y="314" on="1"/>
        <pt x="338" y="318" on="1"/>
        <pt x="338" y="362" on="0"/>
        <pt x="288" y="411" on="0"/>
        <pt x="236" y="411" on="1"/>
        <pt x="195" y="411" on="0"/>
        <pt x="122" y="386" on="0"/>
        <pt x="93" y="372" on="1"/>
        <pt x="52" y="493" on="1"/>
        <pt x="90" y="510" on="0"/>
        <pt x="198" y="537" on="0"/>
        <pt x="259" y="537" on="1"/>
        <pt x="367" y="537" on="0"/>
        <pt x="424" y="478" on="1"/>
        <pt x="455" y="506" on="0"/>
        <pt x="537" y="537" on="0"/>
        <pt x="587" y="537" on="1"/>
        <pt x="694" y="537" on="0"/>
        <pt x="821" y="396" on="0"/>
        <pt x="821" y="274" on="1"/>
        <pt x="821" y="257" on="0"/>
        <pt x="818" y="227" on="0"/>
        <pt x="816" y="218" on="1"/>
        <pt x="479" y="218" on="1"/>
        <pt x="490" y="163" on="0"/>
        <pt x="566" y="110" on="0"/>
        <pt x="626" y="110" on="1"/>
        <pt x="656" y="110" on="0"/>
        <pt x="720" y="126" on="0"/>
        <pt x="746" y="140" on="1"/>
        <pt x="787" y="28" on="1"/>
        <pt x="751" y="12" on="0"/>
        <pt x="662" y="-12" on="0"/>
        <pt x="609" y="-12" on="1"/>
        <pt x="535" y="-12" on="0"/>
        <pt x="428" y="33" on="0"/>
        <pt x="395" y="73" on="1"/>
        <pt x="357" y="36" on="0"/>
        <pt x="260" y="-12" on="0"/>
        <pt x="200" y="-12" on="1"/>
        <pt x="153" y="-12" on="0"/>
        <pt x="78" y="26" on="0"/>
        <pt x="35" y="93" on="0"/>
      </contour>
      <contour>
        <pt x="584" y="420" on="1"/>
        <pt x="545" y="420" on="0"/>
        <pt x="488" y="369" on="0"/>
        <pt x="479" y="313" on="1"/>
        <pt x="675" y="313" on="1"/>
        <pt x="669" y="369" on="0"/>
        <pt x="622" y="420" on="0"/>
      </contour>
      <contour>
        <pt x="170" y="155" on="1"/>
        <pt x="170" y="129" on="0"/>
        <pt x="204" y="100" on="0"/>
        <pt x="230" y="100" on="1"/>
        <pt x="264" y="100" on="0"/>
        <pt x="327" y="134" on="0"/>
        <pt x="350" y="160" on="1"/>
        <pt x="341" y="192" on="0"/>
        <pt x="339" y="228" on="1"/>
        <pt x="290" y="226" on="1"/>
        <pt x="223" y="223" on="0"/>
        <pt x="170" y="181" on="0"/>
      </contour>
    </TTGlyph>
    <TTGlyph name="aeacute" xMin="35" yMin="-12" xMax="821" yMax="740">
      <component glyphName="ae" x="0" y="0" flags="0x204"/>
      <component glyphName="acute" x="130" y="-10" flags="0x4"/>
    </TTGlyph>
    <TTGlyph name="agrave" xMin="35" yMin="-12" xMax="502" yMax="750">
      <component glyphName="a" x="0" y="0" flags="0x204"/>
      <component glyphName="grave" x="-36" y="0" flags="0x4"/>
    </TTGlyph>
    <TTGlyph name="agrave.alt" xMin="35" yMin="-12" xMax="528" yMax="750">
      <component glyphName="a.alt" x="0" y="0" flags="0x204"/>
      <component glyphName="grave" x="-36" y="0" flags="0x4"/>
    </TTGlyph>
    <TTGlyph name="amacron" xMin="35" yMin="-12" xMax="502" yMax="732">
      <component glyphName="a" x="0" y="0" flags="0x204"/>
      <component glyphName="macron" x="-36" y="0" flags="0x4"/>
    </TTGlyph>
    <TTGlyph name="amacron.alt" xMin="35" yMin="-12" xMax="528" yMax="732">
      <component glyphName="a.alt" x="0" y="0" flags="0x204"/>
      <component glyphName="macron" x="-36" y="0" flags="0x4"/>
    </TTGlyph>
    <TTGlyph name="ampersand" xMin="40" yMin="-12" xMax="670" yMax="702">
      <contour>
        <pt x="40" y="170" on="1"/>
        <pt x="40" y="231" on="0"/>
        <pt x="109" y="328" on="0"/>
        <pt x="177" y="368" on="1"/>
        <pt x="148" y="404" on="0"/>
        <pt x="110" y="478" on="0"/>
        <pt x="110" y="525" on="1"/>
        <pt x="110" y="578" on="0"/>
        <pt x="162" y="657" on="0"/>
        <pt x="255" y="702" on="0"/>
        <pt x="315" y="702" on="1"/>
        <pt x="375" y="702" on="0"/>
        <pt x="464" y="658" on="0"/>
        <pt x="513" y="580" on="0"/>
        <pt x="513" y="530" on="1"/>
        <pt x="513" y="470" on="0"/>
        <pt x="449" y="387" on="0"/>
        <pt x="381" y="348" on="1"/>
        <pt x="454" y="261" on="1"/>
        <pt x="475" y="302" on="0"/>
        <pt x="490" y="350" on="1"/>
        <pt x="620" y="300" on="1"/>
        <pt x="603" y="262" on="0"/>
        <pt x="564" y="189" on="0"/>
        <pt x="541" y="156" on="1"/>
        <pt x="670" y="0" on="1"/>
        <pt x="480" y="0" on="1"/>
        <pt x="439" y="50" on="1"/>
        <pt x="400" y="21" on="0"/>
        <pt x="306" y="-12" on="0"/>
        <pt x="250" y="-12" on="1"/>
        <pt x="190" y="-12" on="0"/>
        <pt x="95" y="33" on="0"/>
        <pt x="40" y="115" on="0"/>
      </contour>
      <contour>
        <pt x="255" y="525" on="1"/>
        <pt x="255" y="501" on="0"/>
        <pt x="283" y="463" on="0"/>
        <pt x="305" y="438" on="1"/>
        <pt x="338" y="456" on="0"/>
        <pt x="375" y="496" on="0"/>
        <pt x="375" y="525" on="1"/>
        <pt x="375" y="551" on="0"/>
        <pt x="344" y="590" on="0"/>
        <pt x="315" y="590" on="1"/>
        <pt x="286" y="590" on="0"/>
        <pt x="255" y="551" on="0"/>
      </contour>
      <contour>
        <pt x="195" y="185" on="1"/>
        <pt x="195" y="155" on="0"/>
        <pt x="236" y="118" on="0"/>
        <pt x="270" y="118" on="1"/>
        <pt x="316" y="118" on="0"/>
        <pt x="359" y="147" on="1"/>
        <pt x="254" y="275" on="1"/>
        <pt x="222" y="254" on="0"/>
        <pt x="195" y="208" on="0"/>
      </contour>
    </TTGlyph>
    <TTGlyph name="aogonek" xMin="35" yMin="-197" xMax="502" yMax="537">
      <component glyphName="a" x="0" y="0" flags="0x204"/>
      <component glyphName="ogonek" x="56" y="0" flags="0x4"/>
    </TTGlyph>
    <TTGlyph name="aogonek.alt" xMin="35" yMin="-197" xMax="538" yMax="537">
      <contour>
        <pt x="35" y="138" on="1"/>
        <pt x="35" y="211" on="0"/>
        <pt x="156" y="308" on="0"/>
        <pt x="280" y="312" on="1"/>
        <pt x="337" y="314" on="1"/>
        <pt x="337" y="318" on="1"/>
        <pt x="337" y="362" on="0"/>
        <pt x="288" y="412" on="0"/>
        <pt x="236" y="412" on="1"/>
        <pt x="194" y="412" on="0"/>
        <pt x="120" y="389" on="0"/>
        <pt x="92" y="375" on="1"/>
        <pt x="52" y="493" on="1"/>
        <pt x="90" y="510" on="0"/>
        <pt x="198" y="537" on="0"/>
        <pt x="259" y="537" on="1"/>
        <pt x="360" y="537" on="0"/>
        <pt x="487" y="430" on="0"/>
        <pt x="487" y="326" on="1"/>
        <pt x="487" y="147" on="1"/>
        <pt x="487" y="118" on="0"/>
        <pt x="510" y="118" on="1"/>
        <pt x="519" y="118" on="0"/>
        <pt x="528" y="121" on="1"/>
        <pt x="528" y="0" on="1"/>
        <pt x="476" y="-22" on="0"/>
        <pt x="433" y="-68" on="0"/>
        <pt x="433" y="-90" on="1"/>
        <pt x="433" y="-101" on="0"/>
        <pt x="446" y="-117" on="0"/>
        <pt x="460" y="-117" on="1"/>
        <pt x="474" y="-117" on="0"/>
        <pt x="496" y="-106" on="0"/>
        <pt x="508" y="-99" on="1"/>
        <pt x="538" y="-170" on="1"/>
        <pt x="519" y="-181" on="0"/>
        <pt x="474" y="-197" on="0"/>
        <pt x="448" y="-197" on="1"/>
        <pt x="403" y="-197" on="0"/>
        <pt x="348" y="-151" on="0"/>
        <pt x="348" y="-110" on="1"/>
        <pt x="348" y="-45" on="0"/>
        <pt x="407" y="-1" on="1"/>
        <pt x="385" y="8" on="0"/>
        <pt x="354" y="44" on="0"/>
        <pt x="348" y="71" on="1"/>
        <pt x="323" y="34" on="0"/>
        <pt x="240" y="-12" on="0"/>
        <pt x="190" y="-12" on="1"/>
        <pt x="148" y="-12" on="0"/>
        <pt x="78" y="26" on="0"/>
        <pt x="35" y="93" on="0"/>
      </contour>
      <contour>
        <pt x="170" y="155" on="1"/>
        <pt x="170" y="129" on="0"/>
        <pt x="204" y="100" on="0"/>
        <pt x="230" y="100" on="1"/>
        <pt x="259" y="100" on="0"/>
        <pt x="314" y="125" on="0"/>
        <pt x="337" y="147" on="1"/>
        <pt x="337" y="228" on="1"/>
        <pt x="290" y="226" on="1"/>
        <pt x="223" y="223" on="0"/>
        <pt x="170" y="181" on="0"/>
      </contour>
    </TTGlyph>
    <TTGlyph name="approxequal" xMin="50" yMin="83" xMax="550" yMax="497">
      <contour>
        <pt x="130" y="327" on="1"/>
        <pt x="50" y="417" on="1"/>
        <pt x="80" y="447" on="0"/>
        <pt x="155" y="497" on="0"/>
        <pt x="200" y="497" on="1"/>
        <pt x="240" y="497" on="0"/>
        <pt x="294" y="477" on="0"/>
        <pt x="345" y="457" on="0"/>
        <pt x="380" y="457" on="1"/>
        <pt x="410" y="457" on="0"/>
        <pt x="455" y="482" on="0"/>
        <pt x="470" y="497" on="1"/>
        <pt x="550" y="407" on="1"/>
        <pt x="520" y="377" on="0"/>
        <pt x="445" y="327" on="0"/>
        <pt x="400" y="327" on="1"/>
        <pt x="360" y="327" on="0"/>
        <pt x="306" y="347" on="0"/>
        <pt x="255" y="367" on="0"/>
        <pt x="220" y="367" on="1"/>
        <pt x="190" y="367" on="0"/>
        <pt x="145" y="342" on="0"/>
      </contour>
      <contour>
        <pt x="130" y="83" on="1"/>
        <pt x="50" y="173" on="1"/>
        <pt x="80" y="203" on="0"/>
        <pt x="155" y="253" on="0"/>
        <pt x="200" y="253" on="1"/>
        <pt x="240" y="253" on="0"/>
        <pt x="294" y="233" on="0"/>
        <pt x="345" y="213" on="0"/>
        <pt x="380" y="213" on="1"/>
        <pt x="410" y="213" on="0"/>
        <pt x="455" y="238" on="0"/>
        <pt x="470" y="253" on="1"/>
        <pt x="550" y="163" on="1"/>
        <pt x="520" y="133" on="0"/>
        <pt x="445" y="83" on="0"/>
        <pt x="400" y="83" on="1"/>
        <pt x="360" y="83" on="0"/>
        <pt x="306" y="103" on="0"/>
        <pt x="255" y="123" on="0"/>
        <pt x="220" y="123" on="1"/>
        <pt x="190" y="123" on="0"/>
        <pt x="145" y="98" on="0"/>
      </contour>
    </TTGlyph>
    <TTGlyph name="aring" xMin="35" yMin="-12" xMax="502" yMax="828">
      <component glyphName="a" x="0" y="0" flags="0x204"/>
      <component glyphName="ring" x="-36" y="0" flags="0x4"/>
    </TTGlyph>
    <TTGlyph name="aring.alt" xMin="35" yMin="-12" xMax="528" yMax="828">
      <component glyphName="a.alt" x="0" y="0" flags="0x204"/>
      <component glyphName="ring" x="-36" y="0" flags="0x4"/>
    </TTGlyph>
    <TTGlyph name="aringacute" xMin="35" yMin="-12" xMax="502" yMax="1018">
      <component glyphName="a" x="0" y="0" flags="0x204"/>
      <component glyphName="ring_acute" x="-36" y="0" flags="0x4"/>
    </TTGlyph>
    <TTGlyph name="aringacute.alt" xMin="35" yMin="-12" xMax="528" yMax="1018">
      <component glyphName="a.alt" x="0" y="0" flags="0x204"/>
      <component glyphName="ring_acute" x="-36" y="0" flags="0x4"/>
    </TTGlyph>
    <TTGlyph name="asciicircum" xMin="62" yMin="248" xMax="560" yMax="690">
      <contour>
        <pt x="62" y="248" on="1"/>
        <pt x="250" y="690" on="1"/>
        <pt x="372" y="690" on="1"/>
        <pt x="560" y="248" on="1"/>
        <pt x="406" y="248" on="1"/>
        <pt x="308" y="506" on="1"/>
        <pt x="212" y="248" on="1"/>
      </contour>
    </TTGlyph>
    <TTGlyph name="asciitilde" xMin="76" yMin="285" xMax="524" yMax="475">
      <contour>
        <pt x="76" y="290" on="1"/>
        <pt x="80" y="386" on="0"/>
        <pt x="156" y="475" on="0"/>
        <pt x="213" y="475" on="1"/>
        <pt x="244" y="475" on="0"/>
        <pt x="295" y="451" on="0"/>
        <pt x="338" y="420" on="0"/>
        <pt x="377" y="396" on="0"/>
        <pt x="397" y="396" on="1"/>
        <pt x="416" y="396" on="0"/>
        <pt x="446" y="428" on="0"/>
        <pt x="454" y="470" on="1"/>
        <pt x="524" y="470" on="1"/>
        <pt x="520" y="374" on="0"/>
        <pt x="444" y="285" on="0"/>
        <pt x="387" y="285" on="1"/>
        <pt x="355" y="285" on="0"/>
        <pt x="304" y="309" on="0"/>
        <pt x="262" y="340" on="0"/>
        <pt x="223" y="364" on="0"/>
        <pt x="203" y="364" on="1"/>
        <pt x="184" y="364" on="0"/>
        <pt x="155" y="332" on="0"/>
        <pt x="146" y="290" on="1"/>
      </contour>
    </TTGlyph>
    <TTGlyph name="asterisk" xMin="55" yMin="238" xMax="564" yMax="720">
      <contour>
        <pt x="55" y="485" on="1"/>
        <pt x="99" y="620" on="1"/>
        <pt x="260" y="546" on="1"/>
        <pt x="239" y="720" on="1"/>
        <pt x="380" y="720" on="1"/>
        <pt x="360" y="546" on="1"/>
        <pt x="521" y="620" on="1"/>
        <pt x="564" y="485" on="1"/>
        <pt x="392" y="450" on="1"/>
        <pt x="511" y="322" on="1"/>
        <pt x="396" y="238" on="1"/>
        <pt x="310" y="393" on="1"/>
        <pt x="223" y="238" on="1"/>
        <pt x="109" y="322" on="1"/>
        <pt x="228" y="450" on="1"/>
      </contour>
    </TTGlyph>
    <TTGlyph name="at" xMin="45" yMin="-197" xMax="961" yMax="702">
      <contour>
        <pt x="45" y="255" on="1"/>
        <pt x="45" y="356" on="0"/>
        <pt x="113" y="520" on="0"/>
        <pt x="239" y="638" on="0"/>
        <pt x="412" y="702" on="0"/>
        <pt x="516" y="702" on="1"/>
        <pt x="653" y="702" on="0"/>
        <pt x="853" y="599" on="0"/>
        <pt x="961" y="406" on="0"/>
        <pt x="961" y="270" on="1"/>
        <pt x="961" y="186" on="0"/>
        <pt x="914" y="59" on="0"/>
        <pt x="816" y="-12" on="0"/>
        <pt x="740" y="-12" on="1"/>
        <pt x="612" y="-12" on="0"/>
        <pt x="575" y="95" on="1"/>
        <pt x="547" y="56" on="0"/>
        <pt x="472" y="8" on="0"/>
        <pt x="425" y="8" on="1"/>
        <pt x="378" y="8" on="0"/>
        <pt x="297" y="69" on="0"/>
        <pt x="248" y="182" on="0"/>
        <pt x="248" y="259" on="1"/>
        <pt x="248" y="340" on="0"/>
        <pt x="300" y="450" on="0"/>
        <pt x="389" y="507" on="0"/>
        <pt x="444" y="507" on="1"/>
        <pt x="527" y="507" on="0"/>
        <pt x="574" y="440" on="1"/>
        <pt x="584" y="495" on="1"/>
        <pt x="730" y="495" on="1"/>
        <pt x="722" y="446" on="1"/>
        <pt x="718" y="424" on="0"/>
        <pt x="715" y="391" on="0"/>
        <pt x="715" y="370" on="1"/>
        <pt x="715" y="165" on="1"/>
        <pt x="715" y="98" on="0"/>
        <pt x="763" y="98" on="1"/>
        <pt x="782" y="98" on="0"/>
        <pt x="815" y="129" on="0"/>
        <pt x="836" y="204" on="0"/>
        <pt x="836" y="270" on="1"/>
        <pt x="836" y="362" on="0"/>
        <pt x="766" y="508" on="0"/>
        <pt x="626" y="592" on="0"/>
        <pt x="520" y="592" on="1"/>
        <pt x="406" y="592" on="0"/>
        <pt x="250" y="505" on="0"/>
        <pt x="170" y="352" on="0"/>
        <pt x="170" y="254" on="1"/>
        <pt x="170" y="152" on="0"/>
        <pt x="251" y="-2" on="0"/>
        <pt x="404" y="-87" on="0"/>
        <pt x="512" y="-87" on="1"/>
        <pt x="566" y="-87" on="0"/>
        <pt x="672" y="-68" on="0"/>
        <pt x="711" y="-55" on="1"/>
        <pt x="750" y="-166" on="1"/>
        <pt x="701" y="-181" on="0"/>
        <pt x="586" y="-197" on="0"/>
        <pt x="513" y="-197" on="1"/>
        <pt x="364" y="-197" on="0"/>
        <pt x="155" y="-81" on="0"/>
        <pt x="45" y="122" on="0"/>
      </contour>
      <contour>
        <pt x="398" y="267" on="1"/>
        <pt x="398" y="205" on="0"/>
        <pt x="440" y="144" on="0"/>
        <pt x="475" y="144" on="1"/>
        <pt x="523" y="144" on="0"/>
        <pt x="565" y="183" on="1"/>
        <pt x="565" y="268" on="1"/>
        <pt x="565" y="330" on="0"/>
        <pt x="524" y="389" on="0"/>
        <pt x="489" y="389" on="1"/>
        <pt x="450" y="389" on="0"/>
        <pt x="398" y="326" on="0"/>
      </contour>
    </TTGlyph>
    <TTGlyph name="atilde" xMin="35" yMin="-12" xMax="502" yMax="745">
      <component glyphName="a" x="0" y="0" flags="0x204"/>
      <component glyphName="tilde" x="-36" y="0" flags="0x4"/>
    </TTGlyph>
    <TTGlyph name="atilde.alt" xMin="35" yMin="-12" xMax="528" yMax="745">
      <component glyphName="a.alt" x="0" y="0" flags="0x204"/>
      <component glyphName="tilde" x="-36" y="0" flags="0x4"/>
    </TTGlyph>
    <TTGlyph name="b" xMin="60" yMin="-12" xMax="572" yMax="735">
      <contour>
        <pt x="60" y="0" on="1"/>
        <pt x="68" y="49" on="1"/>
        <pt x="72" y="71" on="0"/>
        <pt x="75" y="104" on="0"/>
        <pt x="75" y="125" on="1"/>
        <pt x="75" y="715" on="1"/>
        <pt x="225" y="735" on="1"/>
        <pt x="225" y="461" on="1"/>
        <pt x="254" y="495" on="0"/>
        <pt x="329" y="537" on="0"/>
        <pt x="375" y="537" on="1"/>
        <pt x="428" y="537" on="0"/>
        <pt x="518" y="469" on="0"/>
        <pt x="572" y="346" on="0"/>
        <pt x="572" y="261" on="1"/>
        <pt x="572" y="172" on="0"/>
        <pt x="514" y="51" on="0"/>
        <pt x="414" y="-12" on="0"/>
        <pt x="351" y="-12" on="1"/>
        <pt x="265" y="-12" on="0"/>
        <pt x="217" y="57" on="1"/>
        <pt x="206" y="0" on="1"/>
      </contour>
      <contour>
        <pt x="225" y="227" on="1"/>
        <pt x="225" y="165" on="0"/>
        <pt x="271" y="106" on="0"/>
        <pt x="311" y="106" on="1"/>
        <pt x="359" y="106" on="0"/>
        <pt x="422" y="182" on="0"/>
        <pt x="422" y="253" on="1"/>
        <pt x="422" y="328" on="0"/>
        <pt x="368" y="401" on="0"/>
        <pt x="325" y="401" on="1"/>
        <pt x="272" y="401" on="0"/>
        <pt x="225" y="361" on="1"/>
      </contour>
    </TTGlyph>
    <TTGlyph name="backslash" xMin="0" yMin="-30" xMax="394" yMax="720">
      <contour>
        <pt x="0" y="720" on="1"/>
        <pt x="147" y="720" on="1"/>
        <pt x="394" y="-30" on="1"/>
        <pt x="247" y="-30" on="1"/>
      </contour>
    </TTGlyph>
    <TTGlyph name="bar" xMin="85" yMin="-215" xMax="225" yMax="720">
      <contour>
        <pt x="85" y="-215" on="1"/>
        <pt x="85" y="720" on="1"/>
        <pt x="225" y="720" on="1"/>
        <pt x="225" y="-215" on="1"/>
      </contour>
    </TTGlyph>
    <TTGlyph name="braceleft" xMin="60" yMin="-278" xMax="348" yMax="813">
      <contour>
        <pt x="60" y="221" on="1"/>
        <pt x="60" y="315" on="1"/>
        <pt x="110" y="324" on="0"/>
        <pt x="163" y="348" on="0"/>
        <pt x="182" y="382" on="0"/>
        <pt x="182" y="404" on="1"/>
        <pt x="182" y="432" on="0"/>
        <pt x="158" y="481" on="0"/>
        <pt x="127" y="529" on="0"/>
        <pt x="103" y="583" on="0"/>
        <pt x="103" y="616" on="1"/>
        <pt x="103" y="687" on="0"/>
        <pt x="212" y="796" on="0"/>
        <pt x="322" y="813" on="1"/>
        <pt x="348" y="730" on="1"/>
        <pt x="285" y="708" on="0"/>
        <pt x="243" y="651" on="0"/>
        <pt x="243" y="617" on="1"/>
        <pt x="243" y="589" on="0"/>
        <pt x="262" y="540" on="0"/>
        <pt x="287" y="490" on="0"/>
        <pt x="306" y="434" on="0"/>
        <pt x="306" y="400" on="1"/>
        <pt x="306" y="352" on="0"/>
        <pt x="241" y="280" on="0"/>
        <pt x="181" y="268" on="1"/>
        <pt x="241" y="256" on="0"/>
        <pt x="306" y="185" on="0"/>
        <pt x="306" y="137" on="1"/>
        <pt x="306" y="102" on="0"/>
        <pt x="287" y="46" on="0"/>
        <pt x="262" y="-4" on="0"/>
        <pt x="243" y="-54" on="0"/>
        <pt x="243" y="-82" on="1"/>
        <pt x="243" y="-116" on="0"/>
        <pt x="285" y="-173" on="0"/>
        <pt x="348" y="-195" on="1"/>
        <pt x="322" y="-278" on="1"/>
        <pt x="212" y="-261" on="0"/>
        <pt x="103" y="-152" on="0"/>
        <pt x="103" y="-81" on="1"/>
        <pt x="103" y="-48" on="0"/>
        <pt x="127" y="7" on="0"/>
        <pt x="158" y="55" on="0"/>
        <pt x="182" y="104" on="0"/>
        <pt x="182" y="132" on="1"/>
        <pt x="182" y="154" on="0"/>
        <pt x="163" y="188" on="0"/>
        <pt x="110" y="212" on="0"/>
      </contour>
    </TTGlyph>
    <TTGlyph name="braceright" xMin="15" yMin="-278" xMax="303" yMax="813">
      <contour>
        <pt x="15" y="-195" on="1"/>
        <pt x="78" y="-173" on="0"/>
        <pt x="120" y="-116" on="0"/>
        <pt x="120" y="-82" on="1"/>
        <pt x="120" y="-54" on="0"/>
        <pt x="101" y="-4" on="0"/>
        <pt x="76" y="46" on="0"/>
        <pt x="57" y="102" on="0"/>
        <pt x="57" y="137" on="1"/>
        <pt x="57" y="185" on="0"/>
        <pt x="122" y="256" on="0"/>
        <pt x="182" y="268" on="1"/>
        <pt x="122" y="280" on="0"/>
        <pt x="57" y="352" on="0"/>
        <pt x="57" y="400" on="1"/>
        <pt x="57" y="434" on="0"/>
        <pt x="76" y="490" on="0"/>
        <pt x="101" y="540" on="0"/>
        <pt x="120" y="589" on="0"/>
        <pt x="120" y="617" on="1"/>
        <pt x="120" y="651" on="0"/>
        <pt x="78" y="708" on="0"/>
        <pt x="15" y="730" on="1"/>
        <pt x="41" y="813" on="1"/>
        <pt x="151" y="796" on="0"/>
        <pt x="260" y="687" on="0"/>
        <pt x="260" y="616" on="1"/>
        <pt x="260" y="583" on="0"/>
        <pt x="236" y="529" on="0"/>
        <pt x="205" y="481" on="0"/>
        <pt x="181" y="432" on="0"/>
        <pt x="181" y="404" on="1"/>
        <pt x="181" y="382" on="0"/>
        <pt x="200" y="348" on="0"/>
        <pt x="252" y="324" on="0"/>
        <pt x="303" y="315" on="1"/>
        <pt x="303" y="221" on="1"/>
        <pt x="252" y="212" on="0"/>
        <pt x="200" y="188" on="0"/>
        <pt x="181" y="154" on="0"/>
        <pt x="181" y="132" on="1"/>
        <pt x="181" y="104" on="0"/>
        <pt x="205" y="55" on="0"/>
        <pt x="236" y="7" on="0"/>
        <pt x="260" y="-48" on="0"/>
        <pt x="260" y="-81" on="1"/>
        <pt x="260" y="-152" on="0"/>
        <pt x="151" y="-261" on="0"/>
        <pt x="41" y="-278" on="1"/>
      </contour>
    </TTGlyph>
    <TTGlyph name="bracketleft" xMin="85" yMin="-295" xMax="370" yMax="830">
      <contour>
        <pt x="85" y="-295" on="1"/>
        <pt x="85" y="830" on="1"/>
        <pt x="370" y="830" on="1"/>
        <pt x="370" y="710" on="1"/>
        <pt x="225" y="710" on="1"/>
        <pt x="225" y="-175" on="1"/>
        <pt x="370" y="-175" on="1"/>
        <pt x="370" y="-295" on="1"/>
      </contour>
    </TTGlyph>
    <TTGlyph name="bracketright" xMin="-50" yMin="-295" xMax="235" yMax="830">
      <contour>
        <pt x="-50" y="-295" on="1"/>
        <pt x="-50" y="-175" on="1"/>
        <pt x="95" y="-175" on="1"/>
        <pt x="95" y="710" on="1"/>
        <pt x="-50" y="710" on="1"/>
        <pt x="-50" y="830" on="1"/>
        <pt x="235" y="830" on="1"/>
        <pt x="235" y="-295" on="1"/>
      </contour>
    </TTGlyph>
    <TTGlyph name="breve" xMin="150" yMin="590" xMax="450" yMax="750">
      <contour>
        <pt x="150" y="750" on="1"/>
        <pt x="235" y="750" on="1"/>
        <pt x="239" y="720" on="0"/>
        <pt x="272" y="685" on="0"/>
        <pt x="300" y="685" on="1"/>
        <pt x="328" y="685" on="0"/>
        <pt x="361" y="720" on="0"/>
        <pt x="365" y="750" on="1"/>
        <pt x="450" y="750" on="1"/>
        <pt x="446" y="675" on="0"/>
        <pt x="363" y="590" on="0"/>
        <pt x="300" y="590" on="1"/>
        <pt x="237" y="590" on="0"/>
        <pt x="154" y="675" on="0"/>
      </contour>
    </TTGlyph>
    <TTGlyph name="breve.cap" xMin="150" yMin="740" xMax="450" yMax="885">
      <contour>
        <pt x="150" y="885" on="1"/>
        <pt x="235" y="885" on="1"/>
        <pt x="239" y="862" on="0"/>
        <pt x="270" y="830" on="0"/>
        <pt x="300" y="830" on="1"/>
        <pt x="330" y="830" on="0"/>
        <pt x="361" y="862" on="0"/>
        <pt x="365" y="885" on="1"/>
        <pt x="450" y="885" on="1"/>
        <pt x="446" y="818" on="0"/>
        <pt x="368" y="740" on="0"/>
        <pt x="300" y="740" on="1"/>
        <pt x="232" y="740" on="0"/>
        <pt x="154" y="818" on="0"/>
      </contour>
    </TTGlyph>
    <TTGlyph name="brokenbar" xMin="85" yMin="-215" xMax="225" yMax="720">
      <contour>
        <pt x="85" y="355" on="1"/>
        <pt x="85" y="720" on="1"/>
        <pt x="225" y="720" on="1"/>
        <pt x="225" y="355" on="1"/>
      </contour>
      <contour>
        <pt x="85" y="-215" on="1"/>
        <pt x="85" y="150" on="1"/>
        <pt x="225" y="150" on="1"/>
        <pt x="225" y="-215" on="1"/>
      </contour>
    </TTGlyph>
    <TTGlyph name="bullet" xMin="80" yMin="170" xMax="320" yMax="410">
      <contour>
        <pt x="80" y="290" on="1"/>
        <pt x="80" y="342" on="0"/>
        <pt x="148" y="410" on="0"/>
        <pt x="200" y="410" on="1"/>
        <pt x="252" y="410" on="0"/>
        <pt x="320" y="342" on="0"/>
        <pt x="320" y="290" on="1"/>
        <pt x="320" y="238" on="0"/>
        <pt x="252" y="170" on="0"/>
        <pt x="200" y="170" on="1"/>
        <pt x="148" y="170" on="0"/>
        <pt x="80" y="238" on="0"/>
      </contour>
    </TTGlyph>
    <TTGlyph name="bulletoperator" xMin="180" yMin="170" xMax="420" yMax="410">
      <contour>
        <pt x="180" y="290" on="1"/>
        <pt x="180" y="342" on="0"/>
        <pt x="248" y="410" on="0"/>
        <pt x="300" y="410" on="1"/>
        <pt x="352" y="410" on="0"/>
        <pt x="420" y="342" on="0"/>
        <pt x="420" y="290" on="1"/>
        <pt x="420" y="238" on="0"/>
        <pt x="352" y="170" on="0"/>
        <pt x="300" y="170" on="1"/>
        <pt x="248" y="170" on="0"/>
        <pt x="180" y="238" on="0"/>
      </contour>
    </TTGlyph>
    <TTGlyph name="c" xMin="38" yMin="-12" xMax="472" yMax="537">
      <contour>
        <pt x="38" y="252" on="1"/>
        <pt x="38" y="339" on="0"/>
        <pt x="108" y="467" on="0"/>
        <pt x="231" y="537" on="0"/>
        <pt x="311" y="537" on="1"/>
        <pt x="357" y="537" on="0"/>
        <pt x="435" y="513" on="0"/>
        <pt x="468" y="495" on="1"/>
        <pt x="414" y="376" on="1"/>
        <pt x="395" y="390" on="0"/>
        <pt x="343" y="407" on="0"/>
        <pt x="315" y="407" on="1"/>
        <pt x="262" y="407" on="0"/>
        <pt x="190" y="334" on="0"/>
        <pt x="190" y="257" on="1"/>
        <pt x="190" y="190" on="0"/>
        <pt x="264" y="120" on="0"/>
        <pt x="321" y="120" on="1"/>
        <pt x="346" y="120" on="0"/>
        <pt x="399" y="136" on="0"/>
        <pt x="418" y="149" on="1"/>
        <pt x="472" y="30" on="1"/>
        <pt x="439" y="12" on="0"/>
        <pt x="352" y="-12" on="0"/>
        <pt x="299" y="-12" on="1"/>
        <pt x="220" y="-12" on="0"/>
        <pt x="103" y="53" on="0"/>
        <pt x="38" y="172" on="0"/>
      </contour>
    </TTGlyph>
    <TTGlyph name="cacute" xMin="38" yMin="-12" xMax="495" yMax="750">
      <component glyphName="c" x="0" y="0" flags="0x204"/>
      <component glyphName="acute" x="1" y="0" flags="0x4"/>
    </TTGlyph>
    <TTGlyph name="caron" xMin="125" yMin="600" xMax="475" yMax="750">
      <contour>
        <pt x="125" y="750" on="1"/>
        <pt x="246" y="750" on="1"/>
        <pt x="300" y="685" on="1"/>
        <pt x="354" y="750" on="1"/>
        <pt x="475" y="750" on="1"/>
        <pt x="373" y="600" on="1"/>
        <pt x="227" y="600" on="1"/>
      </contour>
    </TTGlyph>
    <TTGlyph name="caron.alt" xMin="262" yMin="525" xMax="432" yMax="732">
      <contour>
        <pt x="262" y="525" on="1"/>
        <pt x="292" y="732" on="1"/>
        <pt x="432" y="732" on="1"/>
        <pt x="382" y="525" on="1"/>
      </contour>
    </TTGlyph>
    <TTGlyph name="caron.cap" xMin="112" yMin="750" xMax="490" yMax="885">
      <contour>
        <pt x="112" y="885" on="1"/>
        <pt x="238" y="885" on="1"/>
        <pt x="301" y="825" on="1"/>
        <pt x="364" y="885" on="1"/>
        <pt x="490" y="885" on="1"/>
        <pt x="386" y="750" on="1"/>
        <pt x="216" y="750" on="1"/>
      </contour>
    </TTGlyph>
    <TTGlyph name="ccaron" xMin="38" yMin="-12" xMax="476" yMax="750">
      <component glyphName="c" x="0" y="0" flags="0x204"/>
      <component glyphName="caron" x="1" y="0" flags="0x4"/>
    </TTGlyph>
    <TTGlyph name="ccedilla" xMin="38" yMin="-228" xMax="472" yMax="537">
      <component glyphName="c" x="0" y="0" flags="0x204"/>
      <component glyphName="cedilla" x="-11" y="0" flags="0x4"/>
    </TTGlyph>
    <TTGlyph name="ccircumflex" xMin="38" yMin="-12" xMax="476" yMax="750">
      <component glyphName="c" x="0" y="0" flags="0x204"/>
      <component glyphName="circumflex" x="1" y="0" flags="0x4"/>
    </TTGlyph>
    <TTGlyph name="cdotaccent" xMin="38" yMin="-12" xMax="472" yMax="745">
      <component glyphName="c" x="0" y="0" flags="0x204"/>
      <component glyphName="dotaccent" x="1" y="0" flags="0x4"/>
    </TTGlyph>
    <TTGlyph name="cedilla" xMin="220" yMin="-228" xMax="408" yMax="15">
      <contour>
        <pt x="220" y="-228" on="1"/>
        <pt x="234" y="-168" on="1"/>
        <pt x="280" y="-168" on="0"/>
        <pt x="308" y="-146" on="0"/>
        <pt x="308" y="-129" on="1"/>
        <pt x="308" y="-116" on="0"/>
        <pt x="287" y="-97" on="0"/>
        <pt x="262" y="-95" on="1"/>
        <pt x="242" y="-93" on="1"/>
        <pt x="264" y="15" on="1"/>
        <pt x="338" y="9" on="1"/>
        <pt x="327" y="-50" on="1"/>
        <pt x="371" y="-58" on="0"/>
        <pt x="408" y="-99" on="0"/>
        <pt x="408" y="-127" on="1"/>
        <pt x="408" y="-170" on="0"/>
        <pt x="338" y="-228" on="0"/>
        <pt x="256" y="-228" on="1"/>
      </contour>
    </TTGlyph>
    <TTGlyph name="cent" xMin="88" yMin="-100" xMax="522" yMax="695">
      <contour>
        <pt x="270" y="-100" on="1"/>
        <pt x="270" y="33" on="1"/>
        <pt x="186" y="54" on="0"/>
        <pt x="88" y="188" on="0"/>
        <pt x="88" y="287" on="1"/>
        <pt x="88" y="391" on="0"/>
        <pt x="187" y="533" on="0"/>
        <pt x="270" y="559" on="1"/>
        <pt x="270" y="695" on="1"/>
        <pt x="410" y="695" on="1"/>
        <pt x="410" y="568" on="1"/>
        <pt x="440" y="563" on="0"/>
        <pt x="494" y="543" on="0"/>
        <pt x="518" y="530" on="1"/>
        <pt x="464" y="411" on="1"/>
        <pt x="423" y="442" on="0"/>
        <pt x="365" y="442" on="1"/>
        <pt x="312" y="442" on="0"/>
        <pt x="240" y="369" on="0"/>
        <pt x="240" y="292" on="1"/>
        <pt x="240" y="224" on="0"/>
        <pt x="314" y="155" on="0"/>
        <pt x="371" y="155" on="1"/>
        <pt x="396" y="155" on="0"/>
        <pt x="449" y="171" on="0"/>
        <pt x="468" y="184" on="1"/>
        <pt x="522" y="65" on="1"/>
        <pt x="499" y="52" on="0"/>
        <pt x="443" y="33" on="0"/>
        <pt x="410" y="28" on="1"/>
        <pt x="410" y="-100" on="1"/>
      </contour>
    </TTGlyph>
    <TTGlyph name="circumflex" xMin="125" yMin="600" xMax="475" yMax="750">
      <contour>
        <pt x="125" y="600" on="1"/>
        <pt x="227" y="750" on="1"/>
        <pt x="373" y="750" on="1"/>
        <pt x="475" y="600" on="1"/>
        <pt x="354" y="600" on="1"/>
        <pt x="300" y="665" on="1"/>
        <pt x="246" y="600" on="1"/>
      </contour>
    </TTGlyph>
    <TTGlyph name="circumflex.cap" xMin="112" yMin="750" xMax="490" yMax="885">
      <contour>
        <pt x="112" y="750" on="1"/>
        <pt x="216" y="885" on="1"/>
        <pt x="386" y="885" on="1"/>
        <pt x="490" y="750" on="1"/>
        <pt x="364" y="750" on="1"/>
        <pt x="301" y="810" on="1"/>
        <pt x="238" y="750" on="1"/>
      </contour>
    </TTGlyph>
    <TTGlyph name="colon" xMin="45" yMin="-12" xMax="233" yMax="537">
      <contour>
        <pt x="45" y="445" on="1"/>
        <pt x="45" y="485" on="0"/>
        <pt x="98" y="537" on="0"/>
        <pt x="139" y="537" on="1"/>
        <pt x="180" y="537" on="0"/>
        <pt x="233" y="485" on="0"/>
        <pt x="233" y="445" on="1"/>
        <pt x="233" y="406" on="0"/>
        <pt x="180" y="353" on="0"/>
        <pt x="139" y="353" on="1"/>
        <pt x="98" y="353" on="0"/>
        <pt x="45" y="406" on="0"/>
      </contour>
      <contour>
        <pt x="45" y="80" on="1"/>
        <pt x="45" y="120" on="0"/>
        <pt x="98" y="172" on="0"/>
        <pt x="139" y="172" on="1"/>
        <pt x="180" y="172" on="0"/>
        <pt x="233" y="120" on="0"/>
        <pt x="233" y="80" on="1"/>
        <pt x="233" y="41" on="0"/>
        <pt x="180" y="-12" on="0"/>
        <pt x="139" y="-12" on="1"/>
        <pt x="98" y="-12" on="0"/>
        <pt x="45" y="41" on="0"/>
      </contour>
    </TTGlyph>
    <TTGlyph name="comma" xMin="45" yMin="-185" xMax="233" yMax="172">
      <contour>
        <pt x="60" y="-185" on="1"/>
        <pt x="106" y="-7" on="1"/>
        <pt x="80" y="1" on="0"/>
        <pt x="45" y="46" on="0"/>
        <pt x="45" y="80" on="1"/>
        <pt x="45" y="120" on="0"/>
        <pt x="98" y="172" on="0"/>
        <pt x="139" y="172" on="1"/>
        <pt x="180" y="172" on="0"/>
        <pt x="233" y="119" on="0"/>
        <pt x="233" y="77" on="1"/>
        <pt x="233" y="46" on="0"/>
        <pt x="217" y="-8" on="0"/>
        <pt x="201" y="-49" on="1"/>
        <pt x="148" y="-185" on="1"/>
      </contour>
    </TTGlyph>
    <TTGlyph name="commaaccent" xMin="220" yMin="-350" xMax="380" yMax="-70">
      <contour>
        <pt x="240" y="-350" on="1"/>
        <pt x="272" y="-222" on="1"/>
        <pt x="250" y="-215" on="0"/>
        <pt x="220" y="-177" on="0"/>
        <pt x="220" y="-148" on="1"/>
        <pt x="220" y="-114" on="0"/>
        <pt x="265" y="-70" on="0"/>
        <pt x="300" y="-70" on="1"/>
        <pt x="335" y="-70" on="0"/>
        <pt x="380" y="-115" on="0"/>
        <pt x="380" y="-151" on="1"/>
        <pt x="380" y="-177" on="0"/>
        <pt x="366" y="-225" on="0"/>
        <pt x="352" y="-258" on="1"/>
        <pt x="315" y="-350" on="1"/>
      </contour>
    </TTGlyph>
    <TTGlyph name="commaaccent.alt" xMin="220" yMin="615" xMax="380" yMax="895">
      <contour>
        <pt x="220" y="696" on="1"/>
        <pt x="220" y="722" on="0"/>
        <pt x="234" y="770" on="0"/>
        <pt x="248" y="803" on="1"/>
        <pt x="285" y="895" on="1"/>
        <pt x="360" y="895" on="1"/>
        <pt x="328" y="767" on="1"/>
        <pt x="350" y="760" on="0"/>
        <pt x="380" y="722" on="0"/>
        <pt x="380" y="693" on="1"/>
        <pt x="380" y="659" on="0"/>
        <pt x="335" y="615" on="0"/>
        <pt x="300" y="615" on="1"/>
        <pt x="265" y="615" on="0"/>
        <pt x="220" y="660" on="0"/>
      </contour>
    </TTGlyph>
    <TTGlyph name="copyright" xMin="50" yMin="-10" xMax="760" yMax="700">
      <contour>
        <pt x="405" y="-10" on="1"/>
        <pt x="330" y="-10" on="0"/>
        <pt x="201" y="44" on="0"/>
        <pt x="104" y="141" on="0"/>
        <pt x="50" y="270" on="0"/>
        <pt x="50" y="345" on="1"/>
        <pt x="50" y="420" on="0"/>
        <pt x="104" y="549" on="0"/>
        <pt x="201" y="646" on="0"/>
        <pt x="330" y="700" on="0"/>
        <pt x="405" y="700" on="1"/>
        <pt x="480" y="700" on="0"/>
        <pt x="609" y="646" on="0"/>
        <pt x="706" y="549" on="0"/>
        <pt x="760" y="420" on="0"/>
        <pt x="760" y="345" on="1"/>
        <pt x="760" y="270" on="0"/>
        <pt x="706" y="141" on="0"/>
        <pt x="609" y="44" on="0"/>
        <pt x="480" y="-10" on="0"/>
      </contour>
      <contour>
        <pt x="405" y="60" on="1"/>
        <pt x="485" y="60" on="0"/>
        <pt x="613" y="136" on="0"/>
        <pt x="688" y="265" on="0"/>
        <pt x="688" y="345" on="1"/>
        <pt x="688" y="425" on="0"/>
        <pt x="613" y="554" on="0"/>
        <pt x="485" y="630" on="0"/>
        <pt x="405" y="630" on="1"/>
        <pt x="325" y="630" on="0"/>
        <pt x="197" y="554" on="0"/>
        <pt x="122" y="425" on="0"/>
        <pt x="122" y="345" on="1"/>
        <pt x="122" y="265" on="0"/>
        <pt x="197" y="136" on="0"/>
        <pt x="325" y="60" on="0"/>
      </contour>
      <contour>
        <pt x="220" y="345" on="1"/>
        <pt x="220" y="412" on="0"/>
        <pt x="273" y="506" on="0"/>
        <pt x="360" y="555" on="0"/>
        <pt x="410" y="555" on="1"/>
        <pt x="450" y="555" on="0"/>
        <pt x="515" y="526" on="0"/>
        <pt x="542" y="500" on="1"/>
        <pt x="475" y="419" on="1"/>
        <pt x="450" y="445" on="0"/>
        <pt x="415" y="445" on="1"/>
        <pt x="384" y="445" on="0"/>
        <pt x="340" y="390" on="0"/>
        <pt x="340" y="345" on="1"/>
        <pt x="340" y="300" on="0"/>
        <pt x="384" y="245" on="0"/>
        <pt x="415" y="245" on="1"/>
        <pt x="453" y="245" on="0"/>
        <pt x="478" y="273" on="1"/>
        <pt x="547" y="191" on="1"/>
        <pt x="520" y="164" on="0"/>
        <pt x="453" y="135" on="0"/>
        <pt x="410" y="135" on="1"/>
        <pt x="360" y="135" on="0"/>
        <pt x="273" y="184" on="0"/>
        <pt x="220" y="278" on="0"/>
      </contour>
    </TTGlyph>
    <TTGlyph name="currency" xMin="24" yMin="69" xMax="576" yMax="621">
      <contour>
        <pt x="24" y="166" on="1"/>
        <pt x="94" y="236" on="1"/>
        <pt x="75" y="285" on="0"/>
        <pt x="75" y="345" on="1"/>
        <pt x="75" y="405" on="0"/>
        <pt x="94" y="454" on="1"/>
        <pt x="24" y="524" on="1"/>
        <pt x="121" y="621" on="1"/>
        <pt x="185" y="557" on="1"/>
        <pt x="235" y="585" on="0"/>
        <pt x="300" y="585" on="1"/>
        <pt x="365" y="585" on="0"/>
        <pt x="415" y="557" on="1"/>
        <pt x="479" y="621" on="1"/>
        <pt x="576" y="524" on="1"/>
        <pt x="506" y="454" on="1"/>
        <pt x="525" y="405" on="0"/>
        <pt x="525" y="345" on="1"/>
        <pt x="525" y="285" on="0"/>
        <pt x="506" y="236" on="1"/>
        <pt x="576" y="166" on="1"/>
        <pt x="479" y="69" on="1"/>
        <pt x="415" y="133" on="1"/>
        <pt x="365" y="105" on="0"/>
        <pt x="300" y="105" on="1"/>
        <pt x="235" y="105" on="0"/>
        <pt x="185" y="133" on="1"/>
        <pt x="121" y="69" on="1"/>
      </contour>
      <contour>
        <pt x="205" y="345" on="1"/>
        <pt x="205" y="290" on="0"/>
        <pt x="256" y="230" on="0"/>
        <pt x="300" y="230" on="1"/>
        <pt x="344" y="230" on="0"/>
        <pt x="395" y="290" on="0"/>
        <pt x="395" y="345" on="1"/>
        <pt x="395" y="400" on="0"/>
        <pt x="344" y="460" on="0"/>
        <pt x="300" y="460" on="1"/>
        <pt x="256" y="460" on="0"/>
        <pt x="205" y="400" on="0"/>
      </contour>
    </TTGlyph>
    <TTGlyph name="d" xMin="38" yMin="-12" xMax="550" yMax="735">
      <contour>
        <pt x="38" y="264" on="1"/>
        <pt x="38" y="352" on="0"/>
        <pt x="96" y="474" on="0"/>
        <pt x="196" y="537" on="0"/>
        <pt x="259" y="537" on="1"/>
        <pt x="336" y="537" on="0"/>
        <pt x="385" y="476" on="1"/>
        <pt x="385" y="715" on="1"/>
        <pt x="535" y="735" on="1"/>
        <pt x="535" y="125" on="1"/>
        <pt x="535" y="104" on="0"/>
        <pt x="538" y="71" on="0"/>
        <pt x="542" y="49" on="1"/>
        <pt x="550" y="0" on="1"/>
        <pt x="404" y="0" on="1"/>
        <pt x="391" y="71" on="1"/>
        <pt x="361" y="34" on="0"/>
        <pt x="284" y="-12" on="0"/>
        <pt x="235" y="-12" on="1"/>
        <pt x="182" y="-12" on="0"/>
        <pt x="92" y="56" on="0"/>
        <pt x="38" y="180" on="0"/>
      </contour>
      <contour>
        <pt x="188" y="272" on="1"/>
        <pt x="188" y="197" on="0"/>
        <pt x="242" y="124" on="0"/>
        <pt x="285" y="124" on="1"/>
        <pt x="339" y="124" on="0"/>
        <pt x="385" y="166" on="1"/>
        <pt x="385" y="298" on="1"/>
        <pt x="385" y="360" on="0"/>
        <pt x="339" y="419" on="0"/>
        <pt x="299" y="419" on="1"/>
        <pt x="251" y="419" on="0"/>
        <pt x="188" y="342" on="0"/>
      </contour>
    </TTGlyph>
    <TTGlyph name="dagger" xMin="30" yMin="-185" xMax="450" yMax="720">
      <contour>
        <pt x="170" y="-185" on="1"/>
        <pt x="170" y="405" on="1"/>
        <pt x="30" y="405" on="1"/>
        <pt x="30" y="525" on="1"/>
        <pt x="170" y="525" on="1"/>
        <pt x="170" y="720" on="1"/>
        <pt x="310" y="720" on="1"/>
        <pt x="310" y="525" on="1"/>
        <pt x="450" y="525" on="1"/>
        <pt x="450" y="405" on="1"/>
        <pt x="310" y="405" on="1"/>
        <pt x="310" y="-185" on="1"/>
      </contour>
    </TTGlyph>
    <TTGlyph name="daggerdbl" xMin="30" yMin="-185" xMax="450" yMax="720">
      <contour>
        <pt x="30" y="10" on="1"/>
        <pt x="30" y="130" on="1"/>
        <pt x="170" y="130" on="1"/>
        <pt x="170" y="405" on="1"/>
        <pt x="30" y="405" on="1"/>
        <pt x="30" y="525" on="1"/>
        <pt x="170" y="525" on="1"/>
        <pt x="170" y="720" on="1"/>
        <pt x="310" y="720" on="1"/>
        <pt x="310" y="525" on="1"/>
        <pt x="450" y="525" on="1"/>
        <pt x="450" y="405" on="1"/>
        <pt x="310" y="405" on="1"/>
        <pt x="310" y="130" on="1"/>
        <pt x="450" y="130" on="1"/>
        <pt x="450" y="10" on="1"/>
        <pt x="310" y="10" on="1"/>
        <pt x="310" y="-185" on="1"/>
        <pt x="170" y="-185" on="1"/>
        <pt x="170" y="10" on="1"/>
      </contour>
    </TTGlyph>
    <TTGlyph name="dcaron" xMin="38" yMin="-12" xMax="742" yMax="735">
      <component glyphName="d" x="0" y="0" flags="0x204"/>
      <component glyphName="caron.alt" x="310" y="0" flags="0x4"/>
    </TTGlyph>
    <TTGlyph name="dcroat" xMin="38" yMin="-12" xMax="595" yMax="735">
      <contour>
        <pt x="38" y="254" on="1"/>
        <pt x="38" y="340" on="0"/>
        <pt x="96" y="457" on="0"/>
        <pt x="196" y="517" on="0"/>
        <pt x="259" y="517" on="1"/>
        <pt x="336" y="517" on="0"/>
        <pt x="385" y="456" on="1"/>
        <pt x="385" y="565" on="1"/>
        <pt x="265" y="565" on="1"/>
        <pt x="265" y="670" on="1"/>
        <pt x="385" y="670" on="1"/>
        <pt x="385" y="715" on="1"/>
        <pt x="535" y="735" on="1"/>
        <pt x="535" y="670" on="1"/>
        <pt x="595" y="670" on="1"/>
        <pt x="595" y="565" on="1"/>
        <pt x="535" y="565" on="1"/>
        <pt x="535" y="125" on="1"/>
        <pt x="535" y="104" on="0"/>
        <pt x="538" y="71" on="0"/>
        <pt x="542" y="49" on="1"/>
        <pt x="550" y="0" on="1"/>
        <pt x="404" y="0" on="1"/>
        <pt x="391" y="71" on="1"/>
        <pt x="361" y="34" on="0"/>
        <pt x="284" y="-12" on="0"/>
        <pt x="235" y="-12" on="1"/>
        <pt x="182" y="-12" on="0"/>
        <pt x="92" y="53" on="0"/>
        <pt x="38" y="173" on="0"/>
      </contour>
      <contour>
        <pt x="188" y="262" on="1"/>
        <pt x="188" y="192" on="0"/>
        <pt x="242" y="124" on="0"/>
        <pt x="285" y="124" on="1"/>
        <pt x="339" y="124" on="0"/>
        <pt x="385" y="166" on="1"/>
        <pt x="385" y="278" on="1"/>
        <pt x="385" y="340" on="0"/>
        <pt x="339" y="399" on="0"/>
        <pt x="299" y="399" on="1"/>
        <pt x="251" y="399" on="0"/>
        <pt x="188" y="328" on="0"/>
      </contour>
    </TTGlyph>
    <TTGlyph name="degree" xMin="30" yMin="362" xMax="374" yMax="702">
      <contour>
        <pt x="30" y="532" on="1"/>
        <pt x="30" y="580" on="0"/>
        <pt x="76" y="657" on="0"/>
        <pt x="154" y="702" on="0"/>
        <pt x="202" y="702" on="1"/>
        <pt x="250" y="702" on="0"/>
        <pt x="328" y="657" on="0"/>
        <pt x="374" y="580" on="0"/>
        <pt x="374" y="532" on="1"/>
        <pt x="374" y="484" on="0"/>
        <pt x="328" y="407" on="0"/>
        <pt x="250" y="362" on="0"/>
        <pt x="202" y="362" on="1"/>
        <pt x="154" y="362" on="0"/>
        <pt x="76" y="407" on="0"/>
        <pt x="30" y="484" on="0"/>
      </contour>
      <contour>
        <pt x="130" y="532" on="1"/>
        <pt x="130" y="500" on="0"/>
        <pt x="170" y="456" on="0"/>
        <pt x="202" y="456" on="1"/>
        <pt x="234" y="456" on="0"/>
        <pt x="274" y="500" on="0"/>
        <pt x="274" y="532" on="1"/>
        <pt x="274" y="564" on="0"/>
        <pt x="234" y="608" on="0"/>
        <pt x="202" y="608" on="1"/>
        <pt x="170" y="608" on="0"/>
        <pt x="130" y="564" on="0"/>
      </contour>
    </TTGlyph>
    <TTGlyph name="dieresis" xMin="119" yMin="595" xMax="481" yMax="745">
      <contour>
        <pt x="119" y="670" on="1"/>
        <pt x="119" y="704" on="0"/>
        <pt x="162" y="745" on="0"/>
        <pt x="196" y="745" on="1"/>
        <pt x="230" y="745" on="0"/>
        <pt x="273" y="704" on="0"/>
        <pt x="273" y="670" on="1"/>
        <pt x="273" y="636" on="0"/>
        <pt x="230" y="595" on="0"/>
        <pt x="196" y="595" on="1"/>
        <pt x="162" y="595" on="0"/>
        <pt x="119" y="636" on="0"/>
      </contour>
      <contour>
        <pt x="327" y="670" on="1"/>
        <pt x="327" y="704" on="0"/>
        <pt x="370" y="745" on="0"/>
        <pt x="404" y="745" on="1"/>
        <pt x="438" y="745" on="0"/>
        <pt x="481" y="704" on="0"/>
        <pt x="481" y="670" on="1"/>
        <pt x="481" y="636" on="0"/>
        <pt x="438" y="595" on="0"/>
        <pt x="404" y="595" on="1"/>
        <pt x="370" y="595" on="0"/>
        <pt x="327" y="636" on="0"/>
      </contour>
    </TTGlyph>
    <TTGlyph name="dieresis.cap" xMin="109" yMin="755" xMax="491" yMax="905">
      <contour>
        <pt x="109" y="830" on="1"/>
        <pt x="109" y="864" on="0"/>
        <pt x="152" y="905" on="0"/>
        <pt x="186" y="905" on="1"/>
        <pt x="220" y="905" on="0"/>
        <pt x="263" y="864" on="0"/>
        <pt x="263" y="830" on="1"/>
        <pt x="263" y="796" on="0"/>
        <pt x="220" y="755" on="0"/>
        <pt x="186" y="755" on="1"/>
        <pt x="152" y="755" on="0"/>
        <pt x="109" y="796" on="0"/>
      </contour>
      <contour>
        <pt x="337" y="830" on="1"/>
        <pt x="337" y="864" on="0"/>
        <pt x="380" y="905" on="0"/>
        <pt x="414" y="905" on="1"/>
        <pt x="448" y="905" on="0"/>
        <pt x="491" y="864" on="0"/>
        <pt x="491" y="830" on="1"/>
        <pt x="491" y="796" on="0"/>
        <pt x="448" y="755" on="0"/>
        <pt x="414" y="755" on="1"/>
        <pt x="380" y="755" on="0"/>
        <pt x="337" y="796" on="0"/>
      </contour>
    </TTGlyph>
    <TTGlyph name="divide" xMin="62" yMin="1" xMax="538" yMax="579">
      <contour>
        <pt x="208" y="488" on="1"/>
        <pt x="208" y="526" on="0"/>
        <pt x="260" y="579" on="0"/>
        <pt x="300" y="579" on="1"/>
        <pt x="340" y="579" on="0"/>
        <pt x="392" y="526" on="0"/>
        <pt x="392" y="488" on="1"/>
        <pt x="392" y="450" on="0"/>
        <pt x="340" y="397" on="0"/>
        <pt x="300" y="397" on="1"/>
        <pt x="260" y="397" on="0"/>
        <pt x="208" y="450" on="0"/>
      </contour>
      <contour>
        <pt x="62" y="223" on="1"/>
        <pt x="62" y="357" on="1"/>
        <pt x="538" y="357" on="1"/>
        <pt x="538" y="223" on="1"/>
      </contour>
      <contour>
        <pt x="208" y="92" on="1"/>
        <pt x="208" y="130" on="0"/>
        <pt x="260" y="183" on="0"/>
        <pt x="300" y="183" on="1"/>
        <pt x="340" y="183" on="0"/>
        <pt x="392" y="130" on="0"/>
        <pt x="392" y="92" on="1"/>
        <pt x="392" y="54" on="0"/>
        <pt x="340" y="1" on="0"/>
        <pt x="300" y="1" on="1"/>
        <pt x="260" y="1" on="0"/>
        <pt x="208" y="54" on="0"/>
      </contour>
    </TTGlyph>
    <TTGlyph name="divisionslash" xMin="0" yMin="0" xMax="580" yMax="690">
      <contour>
        <pt x="0" y="0" on="1"/>
        <pt x="420" y="690" on="1"/>
        <pt x="580" y="690" on="1"/>
        <pt x="160" y="0" on="1"/>
      </contour>
    </TTGlyph>
    <TTGlyph name="dollar" xMin="16" yMin="-100" xMax="574" yMax="790">
      <contour>
        <pt x="16" y="74" on="1"/>
        <pt x="92" y="207" on="1"/>
        <pt x="136" y="171" on="0"/>
        <pt x="252" y="126" on="0"/>
        <pt x="307" y="126" on="1"/>
        <pt x="356" y="126" on="0"/>
        <pt x="409" y="160" on="0"/>
        <pt x="409" y="184" on="1"/>
        <pt x="409" y="198" on="0"/>
        <pt x="388" y="228" on="0"/>
        <pt x="332" y="260" on="0"/>
        <pt x="280" y="277" on="1"/>
        <pt x="157" y="317" on="0"/>
        <pt x="51" y="432" on="0"/>
        <pt x="51" y="500" on="1"/>
        <pt x="51" y="570" on="0"/>
        <pt x="147" y="680" on="0"/>
        <pt x="241" y="696" on="1"/>
        <pt x="241" y="790" on="1"/>
        <pt x="381" y="790" on="1"/>
        <pt x="381" y="696" on="1"/>
        <pt x="432" y="687" on="0"/>
        <pt x="526" y="650" on="0"/>
        <pt x="560" y="627" on="1"/>
        <pt x="489" y="500" on="1"/>
        <pt x="448" y="529" on="0"/>
        <pt x="350" y="566" on="0"/>
        <pt x="298" y="566" on="1"/>
        <pt x="256" y="566" on="0"/>
        <pt x="212" y="534" on="0"/>
        <pt x="212" y="513" on="1"/>
        <pt x="212" y="490" on="0"/>
        <pt x="266" y="449" on="0"/>
        <pt x="337" y="426" on="1"/>
        <pt x="464" y="384" on="0"/>
        <pt x="574" y="271" on="0"/>
        <pt x="574" y="195" on="1"/>
        <pt x="574" y="127" on="0"/>
        <pt x="478" y="16" on="0"/>
        <pt x="381" y="-4" on="1"/>
        <pt x="381" y="-100" on="1"/>
        <pt x="241" y="-100" on="1"/>
        <pt x="241" y="-9" on="1"/>
        <pt x="183" y="-2" on="0"/>
        <pt x="69" y="41" on="0"/>
      </contour>
    </TTGlyph>
    <TTGlyph name="dotaccent" xMin="223" yMin="595" xMax="377" yMax="745">
      <contour>
        <pt x="223" y="670" on="1"/>
        <pt x="223" y="704" on="0"/>
        <pt x="266" y="745" on="0"/>
        <pt x="300" y="745" on="1"/>
        <pt x="334" y="745" on="0"/>
        <pt x="377" y="704" on="0"/>
        <pt x="377" y="670" on="1"/>
        <pt x="377" y="636" on="0"/>
        <pt x="334" y="595" on="0"/>
        <pt x="300" y="595" on="1"/>
        <pt x="266" y="595" on="0"/>
        <pt x="223" y="636" on="0"/>
      </contour>
    </TTGlyph>
    <TTGlyph name="dotaccent.cap" xMin="223" yMin="755" xMax="377" yMax="905">
      <contour>
        <pt x="223" y="830" on="1"/>
        <pt x="223" y="864" on="0"/>
        <pt x="266" y="905" on="0"/>
        <pt x="300" y="905" on="1"/>
        <pt x="334" y="905" on="0"/>
        <pt x="377" y="864" on="0"/>
        <pt x="377" y="830" on="1"/>
        <pt x="377" y="796" on="0"/>
        <pt x="334" y="755" on="0"/>
        <pt x="300" y="755" on="1"/>
        <pt x="266" y="755" on="0"/>
        <pt x="223" y="796" on="0"/>
      </contour>
    </TTGlyph>
    <TTGlyph name="dotbelow" xMin="223" yMin="-220" xMax="377" yMax="-70">
      <component glyphName="dotaccent" x="0" y="-815" flags="0x204"/>
    </TTGlyph>
    <TTGlyph name="dotlessi" xMin="75" yMin="0" xMax="225" yMax="525">
      <contour>
        <pt x="75" y="0" on="1"/>
        <pt x="75" y="525" on="1"/>
        <pt x="225" y="525" on="1"/>
        <pt x="225" y="0" on="1"/>
      </contour>
    </TTGlyph>
    <TTGlyph name="dotlessj" xMin="-61" yMin="-197" xMax="225" yMax="525">
      <contour>
        <pt x="-61" y="-181" on="1"/>
        <pt x="-45" y="-57" on="1"/>
        <pt x="-29" y="-62" on="0"/>
        <pt x="-6" y="-66" on="0"/>
        <pt x="6" y="-66" on="1"/>
        <pt x="38" y="-66" on="0"/>
        <pt x="75" y="-30" on="0"/>
        <pt x="75" y="16" on="1"/>
        <pt x="75" y="525" on="1"/>
        <pt x="225" y="525" on="1"/>
        <pt x="225" y="8" on="1"/>
        <pt x="225" y="-95" on="0"/>
        <pt x="122" y="-197" on="0"/>
        <pt x="36" y="-197" on="1"/>
        <pt x="13" y="-197" on="0"/>
        <pt x="-41" y="-188" on="0"/>
      </contour>
    </TTGlyph>
    <TTGlyph name="e" xMin="38" yMin="-12" xMax="529" yMax="537">
      <contour>
        <pt x="38" y="252" on="1"/>
        <pt x="38" y="338" on="0"/>
        <pt x="104" y="466" on="0"/>
        <pt x="220" y="537" on="0"/>
        <pt x="295" y="537" on="1"/>
        <pt x="402" y="537" on="0"/>
        <pt x="529" y="396" on="0"/>
        <pt x="529" y="274" on="1"/>
        <pt x="529" y="257" on="0"/>
        <pt x="526" y="227" on="0"/>
        <pt x="524" y="218" on="1"/>
        <pt x="188" y="218" on="1"/>
        <pt x="199" y="162" on="0"/>
        <pt x="277" y="110" on="0"/>
        <pt x="334" y="110" on="1"/>
        <pt x="364" y="110" on="0"/>
        <pt x="428" y="126" on="0"/>
        <pt x="454" y="140" on="1"/>
        <pt x="495" y="28" on="1"/>
        <pt x="459" y="12" on="0"/>
        <pt x="370" y="-12" on="0"/>
        <pt x="317" y="-12" on="1"/>
        <pt x="228" y="-12" on="0"/>
        <pt x="104" y="54" on="0"/>
        <pt x="38" y="173" on="0"/>
      </contour>
      <contour>
        <pt x="292" y="420" on="1"/>
        <pt x="253" y="420" on="0"/>
        <pt x="197" y="369" on="0"/>
        <pt x="188" y="313" on="1"/>
        <pt x="383" y="313" on="1"/>
        <pt x="377" y="369" on="0"/>
        <pt x="330" y="420" on="0"/>
      </contour>
    </TTGlyph>
    <TTGlyph name="eacute" xMin="38" yMin="-12" xMax="529" yMax="750">
      <component glyphName="e" x="0" y="0" flags="0x204"/>
      <component glyphName="acute" x="-5" y="0" flags="0x4"/>
    </TTGlyph>
    <TTGlyph name="ebreve" xMin="38" yMin="-12" xMax="529" yMax="750">
      <component glyphName="e" x="0" y="0" flags="0x204"/>
      <component glyphName="breve" x="-5" y="0" flags="0x4"/>
    </TTGlyph>
    <TTGlyph name="ecaron" xMin="38" yMin="-12" xMax="529" yMax="750">
      <component glyphName="e" x="0" y="0" flags="0x204"/>
      <component glyphName="caron" x="-5" y="0" flags="0x4"/>
    </TTGlyph>
    <TTGlyph name="ecircumflex" xMin="38" yMin="-12" xMax="529" yMax="750">
      <component glyphName="e" x="0" y="0" flags="0x204"/>
      <component glyphName="circumflex" x="-5" y="0" flags="0x4"/>
    </TTGlyph>
    <TTGlyph name="edieresis" xMin="38" yMin="-12" xMax="529" yMax="745">
      <component glyphName="e" x="0" y="0" flags="0x204"/>
      <component glyphName="dieresis" x="-5" y="0" flags="0x4"/>
    </TTGlyph>
    <TTGlyph name="edotaccent" xMin="38" yMin="-12" xMax="529" yMax="745">
      <component glyphName="e" x="0" y="0" flags="0x204"/>
      <component glyphName="dotaccent" x="-5" y="0" flags="0x4"/>
    </TTGlyph>
    <TTGlyph name="edotbelow" xMin="38" yMin="-220" xMax="529" yMax="537">
      <component glyphName="e" x="0" y="0" flags="0x204"/>
      <component glyphName="dotbelow" x="-5" y="0" flags="0x4"/>
    </TTGlyph>
    <TTGlyph name="egrave" xMin="38" yMin="-12" xMax="529" yMax="750">
      <component glyphName="e" x="0" y="0" flags="0x204"/>
      <component glyphName="grave" x="-5" y="0" flags="0x4"/>
    </TTGlyph>
    <TTGlyph name="eight" xMin="39" yMin="-12" xMax="561" yMax="702">
      <contour>
        <pt x="39" y="173" on="1"/>
        <pt x="39" y="234" on="0"/>
        <pt x="107" y="322" on="0"/>
        <pt x="170" y="341" on="1"/>
        <pt x="111" y="376" on="0"/>
        <pt x="63" y="460" on="0"/>
        <pt x="63" y="512" on="1"/>
        <pt x="63" y="564" on="0"/>
        <pt x="122" y="650" on="0"/>
        <pt x="228" y="702" on="0"/>
        <pt x="299" y="702" on="1"/>
        <pt x="369" y="702" on="0"/>
        <pt x="475" y="654" on="0"/>
        <pt x="534" y="573" on="0"/>
        <pt x="534" y="522" on="1"/>
        <pt x="534" y="472" on="0"/>
        <pt x="480" y="399" on="0"/>
        <pt x="427" y="382" on="1"/>
        <pt x="502" y="342" on="0"/>
        <pt x="561" y="241" on="0"/>
        <pt x="561" y="184" on="1"/>
        <pt x="561" y="131" on="0"/>
        <pt x="501" y="42" on="0"/>
        <pt x="384" y="-12" on="0"/>
        <pt x="298" y="-12" on="1"/>
        <pt x="218" y="-12" on="0"/>
        <pt x="102" y="35" on="0"/>
        <pt x="39" y="118" on="0"/>
      </contour>
      <contour>
        <pt x="213" y="509" on="1"/>
        <pt x="213" y="486" on="0"/>
        <pt x="261" y="444" on="0"/>
        <pt x="326" y="424" on="1"/>
        <pt x="356" y="438" on="0"/>
        <pt x="389" y="483" on="0"/>
        <pt x="389" y="506" on="1"/>
        <pt x="389" y="535" on="0"/>
        <pt x="342" y="576" on="0"/>
        <pt x="298" y="576" on="1"/>
        <pt x="254" y="576" on="0"/>
        <pt x="213" y="534" on="0"/>
      </contour>
      <contour>
        <pt x="188" y="197" on="1"/>
        <pt x="188" y="162" on="0"/>
        <pt x="245" y="117" on="0"/>
        <pt x="297" y="117" on="1"/>
        <pt x="350" y="117" on="0"/>
        <pt x="403" y="159" on="0"/>
        <pt x="403" y="186" on="1"/>
        <pt x="403" y="213" on="0"/>
        <pt x="358" y="266" on="0"/>
        <pt x="288" y="290" on="1"/>
        <pt x="278" y="293" on="0"/>
        <pt x="269" y="297" on="1"/>
        <pt x="231" y="284" on="0"/>
        <pt x="188" y="228" on="0"/>
      </contour>
    </TTGlyph>
    <TTGlyph name="eight.pl" xMin="39" yMin="-12" xMax="561" yMax="702">
      <component glyphName="eight" x="0" y="0" flags="0x204"/>
    </TTGlyph>
    <TTGlyph name="ellipsis" xMin="45" yMin="-12" xMax="789" yMax="172">
      <component glyphName="period" x="0" y="0" flags="0x4"/>
      <component glyphName="period" x="278" y="0" flags="0x4"/>
      <component glyphName="period" x="556" y="0" flags="0x4"/>
    </TTGlyph>
    <TTGlyph name="emacron" xMin="38" yMin="-12" xMax="529" yMax="732">
      <component glyphName="e" x="0" y="0" flags="0x204"/>
      <component glyphName="macron" x="-5" y="0" flags="0x4"/>
    </TTGlyph>
    <TTGlyph name="emdash" xMin="55" yMin="220" xMax="880" yMax="340">
      <contour>
        <pt x="55" y="220" on="1"/>
        <pt x="55" y="340" on="1"/>
        <pt x="880" y="340" on="1"/>
        <pt x="880" y="220" on="1"/>
      </contour>
    </TTGlyph>
    <TTGlyph name="endash" xMin="55" yMin="220" xMax="579" yMax="340">
      <contour>
        <pt x="55" y="220" on="1"/>
        <pt x="55" y="340" on="1"/>
        <pt x="579" y="340" on="1"/>
        <pt x="579" y="220" on="1"/>
      </contour>
    </TTGlyph>
    <TTGlyph name="eng" xMin="60" yMin="-197" xMax="564" yMax="537">
      <contour>
        <pt x="278" y="-181" on="1"/>
        <pt x="294" y="-57" on="1"/>
        <pt x="310" y="-62" on="0"/>
        <pt x="333" y="-66" on="0"/>
        <pt x="345" y="-66" on="1"/>
        <pt x="377" y="-66" on="0"/>
        <pt x="414" y="-30" on="0"/>
        <pt x="414" y="16" on="1"/>
        <pt x="414" y="303" on="1"/>
        <pt x="414" y="352" on="0"/>
        <pt x="364" y="399" on="0"/>
        <pt x="325" y="399" on="1"/>
        <pt x="300" y="399" on="0"/>
        <pt x="247" y="379" on="0"/>
        <pt x="225" y="359" on="1"/>
        <pt x="225" y="0" on="1"/>
        <pt x="75" y="0" on="1"/>
        <pt x="75" y="400" on="1"/>
        <pt x="75" y="421" on="0"/>
        <pt x="72" y="454" on="0"/>
        <pt x="68" y="476" on="1"/>
        <pt x="60" y="525" on="1"/>
        <pt x="206" y="525" on="1"/>
        <pt x="219" y="454" on="1"/>
        <pt x="250" y="491" on="0"/>
        <pt x="330" y="537" on="0"/>
        <pt x="380" y="537" on="1"/>
        <pt x="426" y="537" on="0"/>
        <pt x="511" y="490" on="0"/>
        <pt x="564" y="396" on="0"/>
        <pt x="564" y="326" on="1"/>
        <pt x="564" y="8" on="1"/>
        <pt x="564" y="-95" on="0"/>
        <pt x="461" y="-197" on="0"/>
        <pt x="375" y="-197" on="1"/>
        <pt x="352" y="-197" on="0"/>
        <pt x="298" y="-188" on="0"/>
      </contour>
    </TTGlyph>
    <TTGlyph name="eogonek" xMin="38" yMin="-197" xMax="529" yMax="537">
      <contour>
        <pt x="38" y="252" on="1"/>
        <pt x="38" y="338" on="0"/>
        <pt x="104" y="466" on="0"/>
        <pt x="220" y="537" on="0"/>
        <pt x="295" y="537" on="1"/>
        <pt x="402" y="537" on="0"/>
        <pt x="529" y="396" on="0"/>
        <pt x="529" y="274" on="1"/>
        <pt x="529" y="257" on="0"/>
        <pt x="526" y="227" on="0"/>
        <pt x="524" y="218" on="1"/>
        <pt x="188" y="218" on="1"/>
        <pt x="199" y="162" on="0"/>
        <pt x="277" y="110" on="0"/>
        <pt x="334" y="110" on="1"/>
        <pt x="364" y="110" on="0"/>
        <pt x="428" y="126" on="0"/>
        <pt x="454" y="140" on="1"/>
        <pt x="495" y="28" on="1"/>
        <pt x="442" y="-16" on="0"/>
        <pt x="400" y="-68" on="0"/>
        <pt x="400" y="-90" on="1"/>
        <pt x="400" y="-101" on="0"/>
        <pt x="414" y="-117" on="0"/>
        <pt x="427" y="-117" on="1"/>
        <pt x="440" y="-117" on="0"/>
        <pt x="463" y="-106" on="0"/>
        <pt x="475" y="-99" on="1"/>
        <pt x="505" y="-170" on="1"/>
        <pt x="486" y="-181" on="0"/>
        <pt x="441" y="-197" on="0"/>
        <pt x="415" y="-197" on="1"/>
        <pt x="370" y="-197" on="0"/>
        <pt x="315" y="-151" on="0"/>
        <pt x="315" y="-110" on="1"/>
        <pt x="315" y="-51" on="0"/>
        <pt x="364" y="-9" on="1"/>
        <pt x="340" y="-12" on="0"/>
        <pt x="317" y="-12" on="1"/>
        <pt x="228" y="-12" on="0"/>
        <pt x="104" y="54" on="0"/>
        <pt x="38" y="173" on="0"/>
      </contour>
      <contour>
        <pt x="292" y="420" on="1"/>
        <pt x="253" y="420" on="0"/>
        <pt x="197" y="369" on="0"/>
        <pt x="188" y="313" on="1"/>
        <pt x="383" y="313" on="1"/>
        <pt x="377" y="369" on="0"/>
        <pt x="330" y="420" on="0"/>
      </contour>
    </TTGlyph>
    <TTGlyph name="equal" xMin="62" yMin="98" xMax="538" yMax="482">
      <contour>
        <pt x="62" y="348" on="1"/>
        <pt x="62" y="482" on="1"/>
        <pt x="538" y="482" on="1"/>
        <pt x="538" y="348" on="1"/>
      </contour>
      <contour>
        <pt x="62" y="98" on="1"/>
        <pt x="62" y="232" on="1"/>
        <pt x="538" y="232" on="1"/>
        <pt x="538" y="98" on="1"/>
      </contour>
    </TTGlyph>
    <TTGlyph name="estimated" xMin="60" yMin="-10" xMax="646" yMax="700">
      <contour>
        <pt x="60" y="345" on="1"/>
        <pt x="60" y="462" on="0"/>
        <pt x="139" y="620" on="0"/>
        <pt x="272" y="700" on="0"/>
        <pt x="352" y="700" on="1"/>
        <pt x="432" y="700" on="0"/>
        <pt x="566" y="621" on="0"/>
        <pt x="646" y="472" on="0"/>
        <pt x="646" y="365" on="1"/>
        <pt x="646" y="358" on="0"/>
        <pt x="645" y="338" on="0"/>
        <pt x="644" y="330" on="1"/>
        <pt x="220" y="330" on="1"/>
        <pt x="220" y="96" on="1"/>
        <pt x="282" y="50" on="0"/>
        <pt x="376" y="50" on="1"/>
        <pt x="434" y="50" on="0"/>
        <pt x="535" y="89" on="0"/>
        <pt x="573" y="116" on="1"/>
        <pt x="604" y="64" on="1"/>
        <pt x="558" y="31" on="0"/>
        <pt x="442" y="-10" on="0"/>
        <pt x="372" y="-10" on="1"/>
        <pt x="282" y="-10" on="0"/>
        <pt x="141" y="70" on="0"/>
        <pt x="60" y="228" on="0"/>
      </contour>
      <contour>
        <pt x="352" y="640" on="1"/>
        <pt x="275" y="640" on="0"/>
        <pt x="220" y="598" on="1"/>
        <pt x="220" y="390" on="1"/>
        <pt x="485" y="390" on="1"/>
        <pt x="485" y="599" on="1"/>
        <pt x="429" y="640" on="0"/>
      </contour>
      <contour>
        <pt x="495" y="591" on="1"/>
        <pt x="509" y="577" on="1"/>
        <pt x="503" y="584" on="0"/>
      </contour>
    </TTGlyph>
    <TTGlyph name="eth" xMin="45" yMin="-12" xMax="530" yMax="732">
      <contour>
        <pt x="45" y="235" on="1"/>
        <pt x="45" y="315" on="0"/>
        <pt x="109" y="425" on="0"/>
        <pt x="208" y="482" on="0"/>
        <pt x="260" y="482" on="1"/>
        <pt x="279" y="482" on="0"/>
        <pt x="314" y="474" on="0"/>
        <pt x="329" y="467" on="1"/>
        <pt x="302" y="516" on="0"/>
        <pt x="264" y="564" on="1"/>
        <pt x="166" y="523" on="1"/>
        <pt x="130" y="605" on="1"/>
        <pt x="200" y="635" on="1"/>
        <pt x="154" y="679" on="0"/>
        <pt x="100" y="720" on="1"/>
        <pt x="280" y="720" on="1"/>
        <pt x="302" y="705" on="0"/>
        <pt x="324" y="687" on="1"/>
        <pt x="430" y="732" on="1"/>
        <pt x="466" y="650" on="1"/>
        <pt x="391" y="618" on="1"/>
        <pt x="430" y="573" on="0"/>
        <pt x="493" y="463" on="0"/>
        <pt x="530" y="342" on="0"/>
        <pt x="530" y="280" on="1"/>
        <pt x="530" y="182" on="0"/>
        <pt x="464" y="53" on="0"/>
        <pt x="353" y="-12" on="0"/>
        <pt x="286" y="-12" on="1"/>
        <pt x="220" y="-12" on="0"/>
        <pt x="111" y="45" on="0"/>
        <pt x="45" y="155" on="0"/>
      </contour>
      <contour>
        <pt x="190" y="235" on="1"/>
        <pt x="190" y="175" on="0"/>
        <pt x="246" y="110" on="0"/>
        <pt x="286" y="110" on="1"/>
        <pt x="327" y="110" on="0"/>
        <pt x="380" y="194" on="0"/>
        <pt x="380" y="280" on="1"/>
        <pt x="380" y="297" on="0"/>
        <pt x="378" y="314" on="1"/>
        <pt x="341" y="360" on="0"/>
        <pt x="286" y="360" on="1"/>
        <pt x="246" y="360" on="0"/>
        <pt x="190" y="295" on="0"/>
      </contour>
    </TTGlyph>
    <TTGlyph name="etilde" xMin="38" yMin="-12" xMax="529" yMax="745">
      <component glyphName="e" x="0" y="0" flags="0x204"/>
      <component glyphName="tilde" x="-5" y="0" flags="0x4"/>
    </TTGlyph>
    <TTGlyph name="exclam" xMin="85" yMin="-12" xMax="273" yMax="690">
      <contour>
        <pt x="122" y="260" on="1"/>
        <pt x="96" y="525" on="1"/>
        <pt x="96" y="690" on="1"/>
        <pt x="262" y="690" on="1"/>
        <pt x="262" y="525" on="1"/>
        <pt x="236" y="260" on="1"/>
      </contour>
      <contour>
        <pt x="85" y="80" on="1"/>
        <pt x="85" y="120" on="0"/>
        <pt x="138" y="172" on="0"/>
        <pt x="179" y="172" on="1"/>
        <pt x="220" y="172" on="0"/>
        <pt x="273" y="120" on="0"/>
        <pt x="273" y="80" on="1"/>
        <pt x="273" y="41" on="0"/>
        <pt x="220" y="-12" on="0"/>
        <pt x="179" y="-12" on="1"/>
        <pt x="138" y="-12" on="0"/>
        <pt x="85" y="41" on="0"/>
      </contour>
    </TTGlyph>
    <TTGlyph name="exclamdown" xMin="85" yMin="-185" xMax="273" yMax="537">
      <contour>
        <pt x="85" y="445" on="1"/>
        <pt x="85" y="484" on="0"/>
        <pt x="138" y="537" on="0"/>
        <pt x="179" y="537" on="1"/>
        <pt x="220" y="537" on="0"/>
        <pt x="273" y="484" on="0"/>
        <pt x="273" y="445" on="1"/>
        <pt x="273" y="405" on="0"/>
        <pt x="220" y="353" on="0"/>
        <pt x="179" y="353" on="1"/>
        <pt x="138" y="353" on="0"/>
        <pt x="85" y="405" on="0"/>
      </contour>
      <contour>
        <pt x="96" y="-185" on="1"/>
        <pt x="96" y="0" on="1"/>
        <pt x="122" y="265" on="1"/>
        <pt x="236" y="265" on="1"/>
        <pt x="262" y="0" on="1"/>
        <pt x="262" y="-185" on="1"/>
      </contour>
    </TTGlyph>
    <TTGlyph name="f" xMin="15" yMin="0" xMax="406" yMax="732">
      <contour>
        <pt x="105" y="0" on="1"/>
        <pt x="105" y="410" on="1"/>
        <pt x="15" y="410" on="1"/>
        <pt x="15" y="525" on="1"/>
        <pt x="105" y="525" on="1"/>
        <pt x="106" y="622" on="0"/>
        <pt x="208" y="732" on="0"/>
        <pt x="298" y="732" on="1"/>
        <pt x="322" y="732" on="0"/>
        <pt x="381" y="722" on="0"/>
        <pt x="406" y="713" on="1"/>
        <pt x="390" y="600" on="1"/>
        <pt x="374" y="604" on="0"/>
        <pt x="341" y="610" on="0"/>
        <pt x="326" y="610" on="1"/>
        <pt x="288" y="610" on="0"/>
        <pt x="255" y="567" on="0"/>
        <pt x="255" y="525" on="1"/>
        <pt x="391" y="525" on="1"/>
        <pt x="391" y="410" on="1"/>
        <pt x="255" y="410" on="1"/>
        <pt x="255" y="0" on="1"/>
      </contour>
    </TTGlyph>
    <TTGlyph name="f_f" xMin="15" yMin="0" xMax="766" yMax="732">
      <contour>
        <pt x="105" y="0" on="1"/>
        <pt x="105" y="410" on="1"/>
        <pt x="15" y="410" on="1"/>
        <pt x="15" y="525" on="1"/>
        <pt x="105" y="525" on="1"/>
        <pt x="106" y="622" on="0"/>
        <pt x="208" y="732" on="0"/>
        <pt x="298" y="732" on="1"/>
        <pt x="322" y="732" on="0"/>
        <pt x="381" y="722" on="0"/>
        <pt x="406" y="713" on="1"/>
        <pt x="390" y="600" on="1"/>
        <pt x="374" y="604" on="0"/>
        <pt x="341" y="610" on="0"/>
        <pt x="326" y="610" on="1"/>
        <pt x="288" y="610" on="0"/>
        <pt x="255" y="567" on="0"/>
        <pt x="255" y="525" on="1"/>
        <pt x="465" y="525" on="1"/>
        <pt x="466" y="622" on="0"/>
        <pt x="568" y="732" on="0"/>
        <pt x="658" y="732" on="1"/>
        <pt x="682" y="732" on="0"/>
        <pt x="741" y="722" on="0"/>
        <pt x="766" y="713" on="1"/>
        <pt x="750" y="600" on="1"/>
        <pt x="734" y="604" on="0"/>
        <pt x="701" y="610" on="0"/>
        <pt x="686" y="610" on="1"/>
        <pt x="648" y="610" on="0"/>
        <pt x="615" y="567" on="0"/>
        <pt x="615" y="525" on="1"/>
        <pt x="751" y="525" on="1"/>
        <pt x="751" y="410" on="1"/>
        <pt x="615" y="410" on="1"/>
        <pt x="615" y="0" on="1"/>
        <pt x="465" y="0" on="1"/>
        <pt x="465" y="410" on="1"/>
        <pt x="255" y="410" on="1"/>
        <pt x="255" y="0" on="1"/>
      </contour>
    </TTGlyph>
    <TTGlyph name="f_f_i" xMin="15" yMin="0" xMax="987" yMax="762">
      <component glyphName="f_f" x="0" y="0" flags="0x4"/>
      <component glyphName="i" x="751" y="0" flags="0x4"/>
    </TTGlyph>
    <TTGlyph name="f_f_ij" xMin="15" yMin="-197" xMax="1287" yMax="762">
      <component glyphName="f_f" x="0" y="0" flags="0x4"/>
      <component glyphName="ij" x="751" y="0" flags="0x4"/>
    </TTGlyph>
    <TTGlyph name="f_f_l" xMin="15" yMin="0" xMax="976" yMax="735">
      <component glyphName="f_f" x="0" y="0" flags="0x4"/>
      <component glyphName="l" x="751" y="0" flags="0x4"/>
    </TTGlyph>
    <TTGlyph name="f_i" xMin="15" yMin="0" xMax="627" yMax="762">
      <component glyphName="fi" x="0" y="0" flags="0x204"/>
    </TTGlyph>
    <TTGlyph name="f_ij" xMin="15" yMin="-197" xMax="927" yMax="762">
      <component glyphName="f" x="0" y="0" flags="0x4"/>
      <component glyphName="ij" x="391" y="0" flags="0x4"/>
    </TTGlyph>
    <TTGlyph name="f_l" xMin="15" yMin="0" xMax="616" yMax="735">
      <component glyphName="fl" x="0" y="0" flags="0x204"/>
    </TTGlyph>
    <TTGlyph name="fi" xMin="15" yMin="0" xMax="627" yMax="762">
      <component glyphName="f" x="0" y="0" flags="0x4"/>
      <component glyphName="i" x="391" y="0" flags="0x4"/>
    </TTGlyph>
    <TTGlyph name="five" xMin="40" yMin="-12" xMax="559" yMax="690">
      <contour>
        <pt x="40" y="84" on="1"/>
        <pt x="123" y="198" on="1"/>
        <pt x="154" y="165" on="0"/>
        <pt x="230" y="128" on="0"/>
        <pt x="276" y="128" on="1"/>
        <pt x="332" y="128" on="0"/>
        <pt x="400" y="176" on="0"/>
        <pt x="400" y="220" on="1"/>
        <pt x="400" y="259" on="0"/>
        <pt x="338" y="315" on="0"/>
        <pt x="276" y="315" on="1"/>
        <pt x="238" y="315" on="0"/>
        <pt x="174" y="287" on="0"/>
        <pt x="145" y="262" on="1"/>
        <pt x="78" y="307" on="1"/>
        <pt x="100" y="690" on="1"/>
        <pt x="512" y="690" on="1"/>
        <pt x="512" y="550" on="1"/>
        <pt x="226" y="550" on="1"/>
        <pt x="218" y="413" on="1"/>
        <pt x="267" y="435" on="0"/>
        <pt x="320" y="435" on="1"/>
        <pt x="390" y="435" on="0"/>
        <pt x="498" y="381" on="0"/>
        <pt x="559" y="282" on="0"/>
        <pt x="559" y="215" on="1"/>
        <pt x="559" y="140" on="0"/>
        <pt x="486" y="39" on="0"/>
        <pt x="366" y="-12" on="0"/>
        <pt x="295" y="-12" on="1"/>
        <pt x="216" y="-12" on="0"/>
        <pt x="90" y="38" on="0"/>
      </contour>
    </TTGlyph>
    <TTGlyph name="five.pl" xMin="40" yMin="-12" xMax="559" yMax="690">
      <component glyphName="five" x="0" y="0" flags="0x204"/>
    </TTGlyph>
    <TTGlyph name="fl" xMin="15" yMin="0" xMax="616" yMax="735">
      <component glyphName="f" x="0" y="0" flags="0x4"/>
      <component glyphName="l" x="391" y="0" flags="0x4"/>
    </TTGlyph>
    <TTGlyph name="florin" xMin="74" yMin="-197" xMax="511" yMax="732">
      <contour>
        <pt x="74" y="-181" on="1"/>
        <pt x="90" y="-57" on="1"/>
        <pt x="106" y="-62" on="0"/>
        <pt x="129" y="-66" on="0"/>
        <pt x="141" y="-66" on="1"/>
        <pt x="173" y="-66" on="0"/>
        <pt x="210" y="-30" on="0"/>
        <pt x="210" y="16" on="1"/>
        <pt x="210" y="410" on="1"/>
        <pt x="120" y="410" on="1"/>
        <pt x="120" y="525" on="1"/>
        <pt x="210" y="525" on="1"/>
        <pt x="211" y="622" on="0"/>
        <pt x="313" y="732" on="0"/>
        <pt x="403" y="732" on="1"/>
        <pt x="427" y="732" on="0"/>
        <pt x="486" y="722" on="0"/>
        <pt x="511" y="713" on="1"/>
        <pt x="495" y="600" on="1"/>
        <pt x="479" y="604" on="0"/>
        <pt x="446" y="610" on="0"/>
        <pt x="431" y="610" on="1"/>
        <pt x="394" y="610" on="0"/>
        <pt x="360" y="567" on="0"/>
        <pt x="360" y="525" on="1"/>
        <pt x="496" y="525" on="1"/>
        <pt x="496" y="410" on="1"/>
        <pt x="360" y="410" on="1"/>
        <pt x="360" y="8" on="1"/>
        <pt x="360" y="-95" on="0"/>
        <pt x="257" y="-197" on="0"/>
        <pt x="171" y="-197" on="1"/>
        <pt x="148" y="-197" on="0"/>
        <pt x="94" y="-188" on="0"/>
      </contour>
    </TTGlyph>
    <TTGlyph name="four" xMin="20" yMin="0" xMax="580" yMax="690">
      <contour>
        <pt x="20" y="116" on="1"/>
        <pt x="20" y="221" on="1"/>
        <pt x="275" y="690" on="1"/>
        <pt x="488" y="690" on="1"/>
        <pt x="488" y="256" on="1"/>
        <pt x="580" y="256" on="1"/>
        <pt x="580" y="116" on="1"/>
        <pt x="488" y="116" on="1"/>
        <pt x="488" y="0" on="1"/>
        <pt x="328" y="0" on="1"/>
        <pt x="328" y="116" on="1"/>
      </contour>
      <contour>
        <pt x="175" y="256" on="1"/>
        <pt x="328" y="256" on="1"/>
        <pt x="328" y="539" on="1"/>
      </contour>
    </TTGlyph>
    <TTGlyph name="four.pl" xMin="20" yMin="0" xMax="580" yMax="690">
      <component glyphName="four" x="0" y="0" flags="0x204"/>
    </TTGlyph>
    <TTGlyph name="fraction" xMin="0" yMin="0" xMax="580" yMax="690">
      <contour>
        <pt x="0" y="0" on="1"/>
        <pt x="420" y="690" on="1"/>
        <pt x="580" y="690" on="1"/>
        <pt x="160" y="0" on="1"/>
      </contour>
    </TTGlyph>
    <TTGlyph name="g" xMin="38" yMin="-197" xMax="550" yMax="537">
      <contour>
        <pt x="70" y="-157" on="1"/>
        <pt x="106" y="-33" on="1"/>
        <pt x="136" y="-48" on="0"/>
        <pt x="210" y="-68" on="0"/>
        <pt x="247" y="-68" on="1"/>
        <pt x="312" y="-68" on="0"/>
        <pt x="385" y="-1" on="0"/>
        <pt x="385" y="72" on="1"/>
        <pt x="385" y="94" on="1"/>
        <pt x="356" y="62" on="0"/>
        <pt x="281" y="30" on="0"/>
        <pt x="240" y="30" on="1"/>
        <pt x="182" y="30" on="0"/>
        <pt x="91" y="90" on="0"/>
        <pt x="38" y="202" on="0"/>
        <pt x="38" y="279" on="1"/>
        <pt x="38" y="363" on="0"/>
        <pt x="96" y="478" on="0"/>
        <pt x="194" y="537" on="0"/>
        <pt x="255" y="537" on="1"/>
        <pt x="344" y="537" on="0"/>
        <pt x="393" y="468" on="1"/>
        <pt x="404" y="525" on="1"/>
        <pt x="550" y="525" on="1"/>
        <pt x="542" y="476" on="1"/>
        <pt x="538" y="454" on="0"/>
        <pt x="535" y="421" on="0"/>
        <pt x="535" y="400" on="1"/>
        <pt x="535" y="74" on="1"/>
        <pt x="535" y="-12" on="0"/>
        <pt x="463" y="-133" on="0"/>
        <pt x="338" y="-197" on="0"/>
        <pt x="258" y="-197" on="1"/>
        <pt x="200" y="-197" on="0"/>
        <pt x="107" y="-173" on="0"/>
      </contour>
      <contour>
        <pt x="188" y="287" on="1"/>
        <pt x="188" y="225" on="0"/>
        <pt x="242" y="161" on="0"/>
        <pt x="285" y="161" on="1"/>
        <pt x="339" y="161" on="0"/>
        <pt x="385" y="193" on="1"/>
        <pt x="385" y="298" on="1"/>
        <pt x="385" y="360" on="0"/>
        <pt x="339" y="419" on="0"/>
        <pt x="299" y="419" on="1"/>
        <pt x="251" y="419" on="0"/>
        <pt x="188" y="350" on="0"/>
      </contour>
    </TTGlyph>
    <TTGlyph name="gbreve" xMin="38" yMin="-197" xMax="550" yMax="740">
      <component glyphName="g" x="0" y="0" flags="0x204"/>
      <component glyphName="breve" x="-14" y="-10" flags="0x4"/>
    </TTGlyph>
    <TTGlyph name="gcaron" xMin="38" yMin="-197" xMax="550" yMax="740">
      <component glyphName="g" x="0" y="0" flags="0x204"/>
      <component glyphName="caron" x="-14" y="-10" flags="0x4"/>
    </TTGlyph>
    <TTGlyph name="gcedilla" xMin="38" yMin="-197" xMax="550" yMax="885">
      <component glyphName="g" x="0" y="0" flags="0x204"/>
      <component glyphName="commaaccent.alt" x="-14" y="-10" flags="0x4"/>
    </TTGlyph>
    <TTGlyph name="gcircumflex" xMin="38" yMin="-197" xMax="550" yMax="740">
      <component glyphName="g" x="0" y="0" flags="0x204"/>
      <component glyphName="circumflex" x="-14" y="-10" flags="0x4"/>
    </TTGlyph>
    <TTGlyph name="gdotaccent" xMin="38" yMin="-197" xMax="550" yMax="735">
      <component glyphName="g" x="0" y="0" flags="0x204"/>
      <component glyphName="dotaccent" x="-14" y="-10" flags="0x4"/>
    </TTGlyph>
    <TTGlyph name="gem" xMin="40" yMin="-180" xMax="1040" yMax="820">
      <contour>
        <pt x="387" y="733" on="1"/>
        <pt x="410" y="771" on="0"/>
        <pt x="492" y="820" on="0"/>
        <pt x="540" y="820" on="1"/>
        <pt x="588" y="820" on="0"/>
        <pt x="670" y="771" on="0"/>
        <pt x="693" y="733" on="1"/>
      </contour>
      <contour>
        <pt x="361" y="526" on="1"/>
        <pt x="361" y="575" on="0"/>
        <pt x="409" y="656" on="0"/>
        <pt x="490" y="704" on="0"/>
        <pt x="540" y="704" on="1"/>
        <pt x="590" y="704" on="0"/>
        <pt x="671" y="656" on="0"/>
        <pt x="719" y="575" on="0"/>
        <pt x="719" y="526" on="1"/>
      </contour>
      <contour>
        <pt x="164" y="526" on="1"/>
        <pt x="164" y="573" on="0"/>
        <pt x="210" y="650" on="0"/>
        <pt x="287" y="696" on="0"/>
        <pt x="334" y="696" on="1"/>
        <pt x="334" y="526" on="1"/>
      </contour>
      <contour>
        <pt x="746" y="526" on="1"/>
        <pt x="746" y="696" on="1"/>
        <pt x="793" y="696" on="0"/>
        <pt x="870" y="650" on="0"/>
        <pt x="916" y="573" on="0"/>
        <pt x="916" y="526" on="1"/>
      </contour>
      <contour>
        <pt x="156" y="320" on="1"/>
        <pt x="156" y="370" on="0"/>
        <pt x="204" y="451" on="0"/>
        <pt x="285" y="499" on="0"/>
        <pt x="334" y="499" on="1"/>
        <pt x="334" y="141" on="1"/>
        <pt x="285" y="141" on="0"/>
        <pt x="204" y="189" on="0"/>
        <pt x="156" y="270" on="0"/>
      </contour>
      <contour>
        <pt x="361" y="320" on="1"/>
        <pt x="361" y="370" on="0"/>
        <pt x="409" y="451" on="0"/>
        <pt x="490" y="499" on="0"/>
        <pt x="540" y="499" on="1"/>
        <pt x="590" y="499" on="0"/>
        <pt x="671" y="451" on="0"/>
        <pt x="719" y="370" on="0"/>
        <pt x="719" y="320" on="1"/>
        <pt x="719" y="270" on="0"/>
        <pt x="671" y="189" on="0"/>
        <pt x="590" y="141" on="0"/>
        <pt x="540" y="141" on="1"/>
        <pt x="490" y="141" on="0"/>
        <pt x="409" y="189" on="0"/>
        <pt x="361" y="270" on="0"/>
      </contour>
      <contour>
        <pt x="746" y="141" on="1"/>
        <pt x="746" y="499" on="1"/>
        <pt x="795" y="499" on="0"/>
        <pt x="876" y="451" on="0"/>
        <pt x="924" y="370" on="0"/>
        <pt x="924" y="320" on="1"/>
        <pt x="924" y="270" on="0"/>
        <pt x="876" y="189" on="0"/>
        <pt x="795" y="141" on="0"/>
      </contour>
      <contour>
        <pt x="40" y="320" on="1"/>
        <pt x="40" y="368" on="0"/>
        <pt x="89" y="450" on="0"/>
        <pt x="127" y="473" on="1"/>
        <pt x="127" y="167" on="1"/>
        <pt x="89" y="190" on="0"/>
        <pt x="40" y="272" on="0"/>
      </contour>
      <contour>
        <pt x="953" y="167" on="1"/>
        <pt x="953" y="473" on="1"/>
        <pt x="991" y="450" on="0"/>
        <pt x="1040" y="368" on="0"/>
        <pt x="1040" y="320" on="1"/>
        <pt x="1040" y="272" on="0"/>
        <pt x="991" y="190" on="0"/>
      </contour>
      <contour>
        <pt x="164" y="114" on="1"/>
        <pt x="334" y="114" on="1"/>
        <pt x="334" y="-56" on="1"/>
        <pt x="287" y="-56" on="0"/>
        <pt x="210" y="-10" on="0"/>
        <pt x="164" y="67" on="0"/>
      </contour>
      <contour>
        <pt x="361" y="114" on="1"/>
        <pt x="719" y="114" on="1"/>
        <pt x="719" y="65" on="0"/>
        <pt x="671" y="-16" on="0"/>
        <pt x="590" y="-64" on="0"/>
        <pt x="540" y="-64" on="1"/>
        <pt x="490" y="-64" on="0"/>
        <pt x="409" y="-16" on="0"/>
        <pt x="361" y="65" on="0"/>
      </contour>
      <contour>
        <pt x="746" y="-56" on="1"/>
        <pt x="746" y="114" on="1"/>
        <pt x="916" y="114" on="1"/>
        <pt x="916" y="67" on="0"/>
        <pt x="870" y="-10" on="0"/>
        <pt x="793" y="-56" on="0"/>
      </contour>
      <contour>
        <pt x="387" y="-93" on="1"/>
        <pt x="693" y="-93" on="1"/>
        <pt x="670" y="-131" on="0"/>
        <pt x="588" y="-180" on="0"/>
        <pt x="540" y="-180" on="1"/>
        <pt x="492" y="-180" on="0"/>
        <pt x="410" y="-131" on="0"/>
      </contour>
    </TTGlyph>
    <TTGlyph name="germandbls" xMin="75" yMin="-12" xMax="580" yMax="732">
      <contour>
        <pt x="75" y="0" on="1"/>
        <pt x="75" y="502" on="1"/>
        <pt x="75" y="617" on="0"/>
        <pt x="194" y="732" on="0"/>
        <pt x="295" y="732" on="1"/>
        <pt x="389" y="732" on="0"/>
        <pt x="505" y="630" on="0"/>
        <pt x="505" y="540" on="1"/>
        <pt x="505" y="500" on="0"/>
        <pt x="476" y="433" on="0"/>
        <pt x="432" y="380" on="0"/>
        <pt x="410" y="360" on="1"/>
        <pt x="455" y="335" on="1"/>
        <pt x="526" y="295" on="0"/>
        <pt x="580" y="212" on="0"/>
        <pt x="580" y="160" on="1"/>
        <pt x="580" y="110" on="0"/>
        <pt x="531" y="32" on="0"/>
        <pt x="445" y="-12" on="0"/>
        <pt x="390" y="-12" on="1"/>
        <pt x="345" y="-12" on="0"/>
        <pt x="272" y="15" on="0"/>
        <pt x="250" y="30" on="1"/>
        <pt x="295" y="136" on="1"/>
        <pt x="314" y="124" on="0"/>
        <pt x="352" y="108" on="0"/>
        <pt x="375" y="108" on="1"/>
        <pt x="401" y="108" on="0"/>
        <pt x="430" y="138" on="0"/>
        <pt x="430" y="160" on="1"/>
        <pt x="430" y="205" on="0"/>
        <pt x="365" y="240" on="1"/>
        <pt x="270" y="290" on="1"/>
        <pt x="270" y="400" on="1"/>
        <pt x="315" y="438" on="0"/>
        <pt x="360" y="502" on="0"/>
        <pt x="360" y="540" on="1"/>
        <pt x="360" y="570" on="0"/>
        <pt x="325" y="602" on="0"/>
        <pt x="295" y="602" on="1"/>
        <pt x="265" y="602" on="0"/>
        <pt x="225" y="552" on="0"/>
        <pt x="225" y="500" on="1"/>
        <pt x="225" y="0" on="1"/>
      </contour>
    </TTGlyph>
    <TTGlyph name="grave" xMin="106" yMin="600" xMax="366" yMax="750">
      <contour>
        <pt x="106" y="750" on="1"/>
        <pt x="277" y="750" on="1"/>
        <pt x="366" y="600" on="1"/>
        <pt x="245" y="600" on="1"/>
      </contour>
    </TTGlyph>
    <TTGlyph name="grave.cap" xMin="90" yMin="750" xMax="368" yMax="885">
      <contour>
        <pt x="90" y="885" on="1"/>
        <pt x="264" y="885" on="1"/>
        <pt x="368" y="750" on="1"/>
        <pt x="242" y="750" on="1"/>
      </contour>
    </TTGlyph>
    <TTGlyph name="greater" xMin="90" yMin="39" xMax="532" yMax="537">
      <contour>
        <pt x="90" y="39" on="1"/>
        <pt x="90" y="189" on="1"/>
        <pt x="348" y="285" on="1"/>
        <pt x="90" y="383" on="1"/>
        <pt x="90" y="537" on="1"/>
        <pt x="532" y="349" on="1"/>
        <pt x="532" y="227" on="1"/>
      </contour>
    </TTGlyph>
    <TTGlyph name="greaterequal" xMin="90" yMin="60" xMax="532" yMax="577">
      <contour>
        <pt x="90" y="60" on="1"/>
        <pt x="90" y="323" on="1"/>
        <pt x="342" y="381" on="1"/>
        <pt x="90" y="437" on="1"/>
        <pt x="90" y="577" on="1"/>
        <pt x="532" y="449" on="1"/>
        <pt x="532" y="307" on="1"/>
        <pt x="142" y="194" on="1"/>
        <pt x="532" y="194" on="1"/>
        <pt x="532" y="60" on="1"/>
      </contour>
    </TTGlyph>
    <TTGlyph name="guillemetleft" xMin="30" yMin="88" xMax="536" yMax="463">
      <contour>
        <pt x="30" y="239" on="1"/>
        <pt x="30" y="312" on="1"/>
        <pt x="127" y="463" on="1"/>
        <pt x="289" y="463" on="1"/>
        <pt x="165" y="276" on="1"/>
        <pt x="289" y="88" on="1"/>
        <pt x="127" y="88" on="1"/>
      </contour>
      <contour>
        <pt x="277" y="239" on="1"/>
        <pt x="277" y="312" on="1"/>
        <pt x="374" y="463" on="1"/>
        <pt x="536" y="463" on="1"/>
        <pt x="412" y="276" on="1"/>
        <pt x="536" y="88" on="1"/>
        <pt x="374" y="88" on="1"/>
      </contour>
    </TTGlyph>
    <TTGlyph name="guillemetright" xMin="10" yMin="88" xMax="516" yMax="463">
      <contour>
        <pt x="10" y="88" on="1"/>
        <pt x="134" y="276" on="1"/>
        <pt x="10" y="463" on="1"/>
        <pt x="172" y="463" on="1"/>
        <pt x="269" y="312" on="1"/>
        <pt x="269" y="239" on="1"/>
        <pt x="172" y="88" on="1"/>
      </contour>
      <contour>
        <pt x="257" y="88" on="1"/>
        <pt x="381" y="276" on="1"/>
        <pt x="257" y="463" on="1"/>
        <pt x="419" y="463" on="1"/>
        <pt x="516" y="312" on="1"/>
        <pt x="516" y="239" on="1"/>
        <pt x="419" y="88" on="1"/>
      </contour>
    </TTGlyph>
    <TTGlyph name="guilsinglleft" xMin="35" yMin="88" xMax="294" yMax="463">
      <contour>
        <pt x="35" y="239" on="1"/>
        <pt x="35" y="312" on="1"/>
        <pt x="132" y="463" on="1"/>
        <pt x="294" y="463" on="1"/>
        <pt x="170" y="276" on="1"/>
        <pt x="294" y="88" on="1"/>
        <pt x="132" y="88" on="1"/>
      </contour>
    </TTGlyph>
    <TTGlyph name="guilsinglright" xMin="20" yMin="88" xMax="279" yMax="463">
      <contour>
        <pt x="20" y="88" on="1"/>
        <pt x="144" y="276" on="1"/>
        <pt x="20" y="463" on="1"/>
        <pt x="182" y="463" on="1"/>
        <pt x="279" y="312" on="1"/>
        <pt x="279" y="239" on="1"/>
        <pt x="182" y="88" on="1"/>
      </contour>
    </TTGlyph>
    <TTGlyph name="h" xMin="75" yMin="0" xMax="564" yMax="735">
      <contour>
        <pt x="75" y="0" on="1"/>
        <pt x="75" y="715" on="1"/>
        <pt x="225" y="735" on="1"/>
        <pt x="225" y="461" on="1"/>
        <pt x="255" y="495" on="0"/>
        <pt x="332" y="537" on="0"/>
        <pt x="380" y="537" on="1"/>
        <pt x="426" y="537" on="0"/>
        <pt x="511" y="490" on="0"/>
        <pt x="564" y="396" on="0"/>
        <pt x="564" y="326" on="1"/>
        <pt x="564" y="0" on="1"/>
        <pt x="414" y="0" on="1"/>
        <pt x="414" y="303" on="1"/>
        <pt x="414" y="352" on="0"/>
        <pt x="364" y="399" on="0"/>
        <pt x="325" y="399" on="1"/>
        <pt x="300" y="399" on="0"/>
        <pt x="247" y="380" on="0"/>
        <pt x="225" y="361" on="1"/>
        <pt x="225" y="0" on="1"/>
      </contour>
    </TTGlyph>
    <TTGlyph name="hbar" xMin="20" yMin="0" xMax="569" yMax="735">
      <contour>
        <pt x="80" y="0" on="1"/>
        <pt x="80" y="565" on="1"/>
        <pt x="20" y="565" on="1"/>
        <pt x="20" y="670" on="1"/>
        <pt x="80" y="670" on="1"/>
        <pt x="80" y="715" on="1"/>
        <pt x="230" y="735" on="1"/>
        <pt x="230" y="670" on="1"/>
        <pt x="350" y="670" on="1"/>
        <pt x="350" y="565" on="1"/>
        <pt x="230" y="565" on="1"/>
        <pt x="230" y="441" on="1"/>
        <pt x="260" y="475" on="0"/>
        <pt x="337" y="517" on="0"/>
        <pt x="385" y="517" on="1"/>
        <pt x="432" y="517" on="0"/>
        <pt x="516" y="470" on="0"/>
        <pt x="569" y="376" on="0"/>
        <pt x="569" y="306" on="1"/>
        <pt x="569" y="0" on="1"/>
        <pt x="419" y="0" on="1"/>
        <pt x="419" y="283" on="1"/>
        <pt x="419" y="332" on="0"/>
        <pt x="369" y="379" on="0"/>
        <pt x="330" y="379" on="1"/>
        <pt x="305" y="379" on="0"/>
        <pt x="252" y="360" on="0"/>
        <pt x="230" y="341" on="1"/>
        <pt x="230" y="0" on="1"/>
      </contour>
    </TTGlyph>
    <TTGlyph name="hcircumflex" xMin="-25" yMin="0" xMax="564" yMax="945">
      <component glyphName="h" x="0" y="0" flags="0x204"/>
      <component glyphName="circumflex" x="-150" y="195" flags="0x4"/>
    </TTGlyph>
    <TTGlyph name="hungarumlaut" xMin="145" yMin="600" xMax="530" yMax="750">
      <contour>
        <pt x="145" y="600" on="1"/>
        <pt x="200" y="750" on="1"/>
        <pt x="340" y="750" on="1"/>
        <pt x="245" y="600" on="1"/>
      </contour>
      <contour>
        <pt x="325" y="600" on="1"/>
        <pt x="390" y="750" on="1"/>
        <pt x="530" y="750" on="1"/>
        <pt x="425" y="600" on="1"/>
      </contour>
    </TTGlyph>
    <TTGlyph name="hungarumlaut.cap" xMin="145" yMin="750" xMax="555" yMax="885">
      <contour>
        <pt x="145" y="750" on="1"/>
        <pt x="215" y="885" on="1"/>
        <pt x="355" y="885" on="1"/>
        <pt x="245" y="750" on="1"/>
      </contour>
      <contour>
        <pt x="335" y="750" on="1"/>
        <pt x="415" y="885" on="1"/>
        <pt x="555" y="885" on="1"/>
        <pt x="435" y="750" on="1"/>
      </contour>
    </TTGlyph>
    <TTGlyph name="hyphen" xMin="55" yMin="217" xMax="341" yMax="338">
      <contour>
        <pt x="55" y="217" on="1"/>
        <pt x="55" y="338" on="1"/>
        <pt x="341" y="338" on="1"/>
        <pt x="341" y="217" on="1"/>
      </contour>
    </TTGlyph>
    <TTGlyph name="i" xMin="64" yMin="0" xMax="236" yMax="762">
      <contour>
        <pt x="64" y="676" on="1"/>
        <pt x="64" y="711" on="0"/>
        <pt x="112" y="762" on="0"/>
        <pt x="150" y="762" on="1"/>
        <pt x="188" y="762" on="0"/>
        <pt x="236" y="711" on="0"/>
        <pt x="236" y="676" on="1"/>
        <pt x="236" y="641" on="0"/>
        <pt x="188" y="590" on="0"/>
        <pt x="150" y="590" on="1"/>
        <pt x="112" y="590" on="0"/>
        <pt x="64" y="641" on="0"/>
      </contour>
      <contour>
        <pt x="75" y="0" on="1"/>
        <pt x="75" y="525" on="1"/>
        <pt x="225" y="525" on="1"/>
        <pt x="225" y="0" on="1"/>
      </contour>
    </TTGlyph>
    <TTGlyph name="i.TRK" xMin="73" yMin="0" xMax="227" yMax="745">
      <component glyphName="dotlessi" x="0" y="0" flags="0x204"/>
      <component glyphName="dotaccent" x="-150" y="0" flags="0x4"/>
    </TTGlyph>
    <TTGlyph name="iacute" xMin="75" yMin="0" xMax="344" yMax="750">
      <component glyphName="dotlessi" x="0" y="0" flags="0x204"/>
      <component glyphName="acute" x="-150" y="0" flags="0x4"/>
    </TTGlyph>
    <TTGlyph name="ibreve" xMin="0" yMin="0" xMax="300" yMax="750">
      <component glyphName="dotlessi" x="0" y="0" flags="0x204"/>
      <component glyphName="breve" x="-150" y="0" flags="0x4"/>
    </TTGlyph>
    <TTGlyph name="icircumflex" xMin="-25" yMin="0" xMax="325" yMax="750">
      <component glyphName="dotlessi" x="0" y="0" flags="0x204"/>
      <component glyphName="circumflex" x="-150" y="0" flags="0x4"/>
    </TTGlyph>
    <TTGlyph name="idieresis" xMin="-31" yMin="0" xMax="331" yMax="745">
      <component glyphName="dotlessi" x="0" y="0" flags="0x204"/>
      <component glyphName="dieresis" x="-150" y="0" flags="0x4"/>
    </TTGlyph>
    <TTGlyph name="idotbelow" xMin="64" yMin="-220" xMax="236" yMax="762">
      <component glyphName="i" x="0" y="0" flags="0x204"/>
      <component glyphName="dotbelow" x="-150" y="0" flags="0x4"/>
    </TTGlyph>
    <TTGlyph name="igrave" xMin="-44" yMin="0" xMax="225" yMax="750">
      <component glyphName="dotlessi" x="0" y="0" flags="0x204"/>
      <component glyphName="grave" x="-150" y="0" flags="0x4"/>
    </TTGlyph>
    <TTGlyph name="ij" xMin="64" yMin="-197" xMax="536" yMax="762">
      <component glyphName="i" x="0" y="0" flags="0x4"/>
      <component glyphName="j" x="300" y="0" flags="0x4"/>
    </TTGlyph>
    <TTGlyph name="ijacute" xMin="75" yMin="-197" xMax="644" yMax="750">
      <component glyphName="dotlessi" x="0" y="0" flags="0x4"/>
      <component glyphName="dotlessj" x="300" y="0" flags="0x4"/>
      <component glyphName="acute" x="-150" y="0" flags="0x4"/>
      <component glyphName="acute" x="150" y="0" flags="0x4"/>
    </TTGlyph>
    <TTGlyph name="imacron" xMin="-20" yMin="0" xMax="320" yMax="732">
      <component glyphName="dotlessi" x="0" y="0" flags="0x204"/>
      <component glyphName="macron" x="-150" y="0" flags="0x4"/>
    </TTGlyph>
    <TTGlyph name="increment" xMin="0" yMin="0" xMax="656" yMax="690">
      <component glyphName="Delta" x="0" y="0" flags="0x204"/>
    </TTGlyph>
    <TTGlyph name="infinity" xMin="30" yMin="88" xMax="630" yMax="492">
      <contour>
        <pt x="30" y="290" on="1"/>
        <pt x="30" y="350" on="0"/>
        <pt x="73" y="441" on="0"/>
        <pt x="148" y="492" on="0"/>
        <pt x="196" y="492" on="1"/>
        <pt x="281" y="492" on="0"/>
        <pt x="316" y="404" on="1"/>
        <pt x="345" y="452" on="0"/>
        <pt x="417" y="492" on="0"/>
        <pt x="458" y="492" on="1"/>
        <pt x="506" y="492" on="0"/>
        <pt x="584" y="442" on="0"/>
        <pt x="630" y="351" on="0"/>
        <pt x="630" y="290" on="1"/>
        <pt x="630" y="230" on="0"/>
        <pt x="587" y="139" on="0"/>
        <pt x="512" y="88" on="0"/>
        <pt x="464" y="88" on="1"/>
        <pt x="379" y="88" on="0"/>
        <pt x="344" y="176" on="1"/>
        <pt x="315" y="128" on="0"/>
        <pt x="243" y="88" on="0"/>
        <pt x="202" y="88" on="1"/>
        <pt x="154" y="88" on="0"/>
        <pt x="76" y="138" on="0"/>
        <pt x="30" y="229" on="0"/>
      </contour>
      <contour>
        <pt x="386" y="270" on="1"/>
        <pt x="386" y="270" on="1"/>
        <pt x="408" y="208" on="0"/>
        <pt x="458" y="208" on="1"/>
        <pt x="483" y="208" on="0"/>
        <pt x="515" y="254" on="0"/>
        <pt x="515" y="290" on="1"/>
        <pt x="515" y="332" on="0"/>
        <pt x="485" y="372" on="0"/>
        <pt x="465" y="372" on="1"/>
        <pt x="442" y="372" on="0"/>
        <pt x="404" y="325" on="0"/>
      </contour>
      <contour>
        <pt x="145" y="290" on="1"/>
        <pt x="145" y="248" on="0"/>
        <pt x="175" y="208" on="0"/>
        <pt x="195" y="208" on="1"/>
        <pt x="218" y="208" on="0"/>
        <pt x="256" y="255" on="0"/>
        <pt x="274" y="310" on="1"/>
        <pt x="274" y="310" on="1"/>
        <pt x="252" y="372" on="0"/>
        <pt x="202" y="372" on="1"/>
        <pt x="177" y="372" on="0"/>
        <pt x="145" y="326" on="0"/>
      </contour>
    </TTGlyph>
    <TTGlyph name="integral" xMin="-11" yMin="-197" xMax="441" yMax="732">
      <contour>
        <pt x="-11" y="-178" on="1"/>
        <pt x="5" y="-65" on="1"/>
        <pt x="21" y="-70" on="0"/>
        <pt x="54" y="-75" on="0"/>
        <pt x="69" y="-75" on="1"/>
        <pt x="106" y="-75" on="0"/>
        <pt x="140" y="-32" on="0"/>
        <pt x="140" y="10" on="1"/>
        <pt x="140" y="523" on="1"/>
        <pt x="140" y="620" on="0"/>
        <pt x="242" y="732" on="0"/>
        <pt x="333" y="732" on="1"/>
        <pt x="357" y="732" on="0"/>
        <pt x="416" y="722" on="0"/>
        <pt x="441" y="713" on="1"/>
        <pt x="425" y="600" on="1"/>
        <pt x="409" y="604" on="0"/>
        <pt x="376" y="610" on="0"/>
        <pt x="361" y="610" on="1"/>
        <pt x="324" y="610" on="0"/>
        <pt x="290" y="567" on="0"/>
        <pt x="290" y="525" on="1"/>
        <pt x="290" y="12" on="1"/>
        <pt x="290" y="-86" on="0"/>
        <pt x="188" y="-197" on="0"/>
        <pt x="97" y="-197" on="1"/>
        <pt x="73" y="-197" on="0"/>
        <pt x="14" y="-187" on="0"/>
      </contour>
    </TTGlyph>
    <TTGlyph name="iogonek" xMin="15" yMin="-197" xMax="236" yMax="762">
      <component glyphName="i" x="0" y="0" flags="0x204"/>
      <component glyphName="ogonek" x="-225" y="0" flags="0x4"/>
    </TTGlyph>
    <TTGlyph name="ipa:schwa" xMin="38" yMin="-12" xMax="529" yMax="537">
      <contour>
        <pt x="38" y="251" on="1"/>
        <pt x="38" y="268" on="0"/>
        <pt x="42" y="298" on="0"/>
        <pt x="43" y="307" on="1"/>
        <pt x="379" y="307" on="1"/>
        <pt x="368" y="363" on="0"/>
        <pt x="290" y="415" on="0"/>
        <pt x="233" y="415" on="1"/>
        <pt x="203" y="415" on="0"/>
        <pt x="138" y="398" on="0"/>
        <pt x="113" y="385" on="1"/>
        <pt x="72" y="497" on="1"/>
        <pt x="108" y="513" on="0"/>
        <pt x="197" y="537" on="0"/>
        <pt x="250" y="537" on="1"/>
        <pt x="338" y="537" on="0"/>
        <pt x="463" y="471" on="0"/>
        <pt x="529" y="352" on="0"/>
        <pt x="529" y="273" on="1"/>
        <pt x="529" y="187" on="0"/>
        <pt x="463" y="59" on="0"/>
        <pt x="348" y="-12" on="0"/>
        <pt x="272" y="-12" on="1"/>
        <pt x="165" y="-12" on="0"/>
        <pt x="38" y="129" on="0"/>
      </contour>
      <contour>
        <pt x="275" y="105" on="1"/>
        <pt x="314" y="105" on="0"/>
        <pt x="370" y="156" on="0"/>
        <pt x="379" y="212" on="1"/>
        <pt x="184" y="212" on="1"/>
        <pt x="190" y="156" on="0"/>
        <pt x="237" y="105" on="0"/>
      </contour>
    </TTGlyph>
    <TTGlyph name="itilde" xMin="-6" yMin="0" xMax="306" yMax="745">
      <component glyphName="dotlessi" x="0" y="0" flags="0x204"/>
      <component glyphName="tilde" x="-150" y="0" flags="0x4"/>
    </TTGlyph>
    <TTGlyph name="j" xMin="-61" yMin="-197" xMax="236" yMax="762">
      <contour>
        <pt x="64" y="676" on="1"/>
        <pt x="64" y="711" on="0"/>
        <pt x="112" y="762" on="0"/>
        <pt x="150" y="762" on="1"/>
        <pt x="188" y="762" on="0"/>
        <pt x="236" y="711" on="0"/>
        <pt x="236" y="676" on="1"/>
        <pt x="236" y="641" on="0"/>
        <pt x="188" y="590" on="0"/>
        <pt x="150" y="590" on="1"/>
        <pt x="112" y="590" on="0"/>
        <pt x="64" y="641" on="0"/>
      </contour>
      <contour>
        <pt x="-61" y="-181" on="1"/>
        <pt x="-45" y="-57" on="1"/>
        <pt x="-29" y="-62" on="0"/>
        <pt x="-6" y="-66" on="0"/>
        <pt x="6" y="-66" on="1"/>
        <pt x="38" y="-66" on="0"/>
        <pt x="75" y="-30" on="0"/>
        <pt x="75" y="16" on="1"/>
        <pt x="75" y="525" on="1"/>
        <pt x="225" y="525" on="1"/>
        <pt x="225" y="8" on="1"/>
        <pt x="225" y="-95" on="0"/>
        <pt x="122" y="-197" on="0"/>
        <pt x="36" y="-197" on="1"/>
        <pt x="13" y="-197" on="0"/>
        <pt x="-41" y="-188" on="0"/>
      </contour>
    </TTGlyph>
    <TTGlyph name="jcircumflex" xMin="-61" yMin="-197" xMax="325" yMax="750">
      <component glyphName="dotlessj" x="0" y="0" flags="0x204"/>
      <component glyphName="circumflex" x="-150" y="0" flags="0x4"/>
    </TTGlyph>
    <TTGlyph name="k" xMin="75" yMin="0" xMax="575" yMax="735">
      <contour>
        <pt x="75" y="0" on="1"/>
        <pt x="75" y="715" on="1"/>
        <pt x="225" y="735" on="1"/>
        <pt x="225" y="341" on="1"/>
        <pt x="376" y="525" on="1"/>
        <pt x="562" y="525" on="1"/>
        <pt x="368" y="316" on="1"/>
        <pt x="575" y="0" on="1"/>
        <pt x="404" y="0" on="1"/>
        <pt x="275" y="215" on="1"/>
        <pt x="225" y="161" on="1"/>
        <pt x="225" y="0" on="1"/>
      </contour>
    </TTGlyph>
    <TTGlyph name="kcedilla" xMin="75" yMin="-340" xMax="575" yMax="735">
      <component glyphName="k" x="0" y="0" flags="0x204"/>
      <component glyphName="commaaccent" x="10" y="10" flags="0x4"/>
    </TTGlyph>
    <TTGlyph name="kra" xMin="75" yMin="0" xMax="575" yMax="525">
      <contour>
        <pt x="75" y="0" on="1"/>
        <pt x="75" y="525" on="1"/>
        <pt x="225" y="525" on="1"/>
        <pt x="225" y="341" on="1"/>
        <pt x="376" y="525" on="1"/>
        <pt x="562" y="525" on="1"/>
        <pt x="368" y="316" on="1"/>
        <pt x="575" y="0" on="1"/>
        <pt x="404" y="0" on="1"/>
        <pt x="275" y="215" on="1"/>
        <pt x="225" y="161" on="1"/>
        <pt x="225" y="0" on="1"/>
      </contour>
    </TTGlyph>
    <TTGlyph name="l" xMin="75" yMin="0" xMax="225" yMax="735">
      <contour>
        <pt x="75" y="0" on="1"/>
        <pt x="75" y="715" on="1"/>
        <pt x="225" y="735" on="1"/>
        <pt x="225" y="0" on="1"/>
      </contour>
    </TTGlyph>
    <TTGlyph name="lacute" xMin="75" yMin="0" xMax="344" yMax="945">
      <component glyphName="l" x="0" y="0" flags="0x204"/>
      <component glyphName="acute" x="-150" y="195" flags="0x4"/>
    </TTGlyph>
    <TTGlyph name="lcaron" xMin="75" yMin="0" xMax="432" yMax="735">
      <component glyphName="l" x="0" y="0" flags="0x204"/>
      <component glyphName="caron.alt" x="0" y="0" flags="0x4"/>
    </TTGlyph>
    <TTGlyph name="lcedilla" xMin="70" yMin="-340" xMax="230" yMax="735">
      <component glyphName="l" x="0" y="0" flags="0x204"/>
      <component glyphName="commaaccent" x="-150" y="10" flags="0x4"/>
    </TTGlyph>
    <TTGlyph name="ldot" xMin="75" yMin="0" xMax="488" yMax="735">
      <component glyphName="l" x="0" y="0" flags="0x4"/>
      <component glyphName="periodcentered" x="255" y="0" flags="0x4"/>
    </TTGlyph>
    <TTGlyph name="less" xMin="68" yMin="39" xMax="510" yMax="537">
      <contour>
        <pt x="68" y="227" on="1"/>
        <pt x="68" y="349" on="1"/>
        <pt x="510" y="537" on="1"/>
        <pt x="510" y="387" on="1"/>
        <pt x="252" y="291" on="1"/>
        <pt x="510" y="193" on="1"/>
        <pt x="510" y="39" on="1"/>
      </contour>
    </TTGlyph>
    <TTGlyph name="lessequal" xMin="68" yMin="60" xMax="510" yMax="577">
      <contour>
        <pt x="68" y="60" on="1"/>
        <pt x="68" y="194" on="1"/>
        <pt x="458" y="194" on="1"/>
        <pt x="68" y="307" on="1"/>
        <pt x="68" y="449" on="1"/>
        <pt x="510" y="577" on="1"/>
        <pt x="510" y="437" on="1"/>
        <pt x="258" y="381" on="1"/>
        <pt x="510" y="323" on="1"/>
        <pt x="510" y="60" on="1"/>
      </contour>
    </TTGlyph>
    <TTGlyph name="litre" xMin="20" yMin="-12" xMax="480" yMax="732">
      <contour>
        <pt x="397" y="8" on="1"/>
        <pt x="372" y="-1" on="0"/>
        <pt x="314" y="-12" on="0"/>
        <pt x="285" y="-12" on="1"/>
        <pt x="204" y="-12" on="0"/>
        <pt x="106" y="74" on="0"/>
        <pt x="101" y="161" on="1"/>
        <pt x="81" y="155" on="0"/>
        <pt x="60" y="150" on="1"/>
        <pt x="20" y="260" on="1"/>
        <pt x="41" y="267" on="0"/>
        <pt x="81" y="281" on="0"/>
        <pt x="100" y="288" on="1"/>
        <pt x="100" y="540" on="1"/>
        <pt x="100" y="595" on="0"/>
        <pt x="145" y="682" on="0"/>
        <pt x="232" y="732" on="0"/>
        <pt x="295" y="732" on="1"/>
        <pt x="358" y="732" on="0"/>
        <pt x="440" y="682" on="0"/>
        <pt x="480" y="595" on="0"/>
        <pt x="480" y="540" on="1"/>
        <pt x="480" y="458" on="0"/>
        <pt x="418" y="336" on="0"/>
        <pt x="314" y="247" on="0"/>
        <pt x="250" y="216" on="1"/>
        <pt x="250" y="201" on="1"/>
        <pt x="250" y="158" on="0"/>
        <pt x="284" y="124" on="0"/>
        <pt x="317" y="124" on="1"/>
        <pt x="344" y="124" on="0"/>
        <pt x="381" y="137" on="1"/>
      </contour>
      <contour>
        <pt x="250" y="535" on="1"/>
        <pt x="250" y="364" on="1"/>
        <pt x="292" y="395" on="0"/>
        <pt x="340" y="478" on="0"/>
        <pt x="340" y="535" on="1"/>
        <pt x="340" y="569" on="0"/>
        <pt x="318" y="612" on="0"/>
        <pt x="295" y="612" on="1"/>
        <pt x="272" y="612" on="0"/>
        <pt x="250" y="569" on="0"/>
      </contour>
    </TTGlyph>
    <TTGlyph name="logicalnot" xMin="62" yMin="55" xMax="538" yMax="357">
      <contour>
        <pt x="62" y="223" on="1"/>
        <pt x="62" y="357" on="1"/>
        <pt x="538" y="357" on="1"/>
        <pt x="538" y="55" on="1"/>
        <pt x="398" y="55" on="1"/>
        <pt x="398" y="223" on="1"/>
      </contour>
    </TTGlyph>
    <TTGlyph name="lozenge" xMin="40" yMin="-110" xMax="620" yMax="690">
      <contour>
        <pt x="40" y="290" on="1"/>
        <pt x="278" y="690" on="1"/>
        <pt x="382" y="690" on="1"/>
        <pt x="620" y="290" on="1"/>
        <pt x="382" y="-110" on="1"/>
        <pt x="278" y="-110" on="1"/>
      </contour>
      <contour>
        <pt x="198" y="294" on="1"/>
        <pt x="332" y="67" on="1"/>
        <pt x="462" y="286" on="1"/>
        <pt x="328" y="513" on="1"/>
      </contour>
    </TTGlyph>
    <TTGlyph name="lslash" xMin="20" yMin="0" xMax="295" yMax="735">
      <contour>
        <pt x="80" y="0" on="1"/>
        <pt x="80" y="203" on="1"/>
        <pt x="20" y="170" on="1"/>
        <pt x="20" y="310" on="1"/>
        <pt x="80" y="343" on="1"/>
        <pt x="80" y="715" on="1"/>
        <pt x="230" y="735" on="1"/>
        <pt x="230" y="425" on="1"/>
        <pt x="295" y="460" on="1"/>
        <pt x="295" y="320" on="1"/>
        <pt x="230" y="285" on="1"/>
        <pt x="230" y="0" on="1"/>
      </contour>
    </TTGlyph>
    <TTGlyph name="m" xMin="60" yMin="0" xMax="865" yMax="537">
      <contour>
        <pt x="60" y="525" on="1"/>
        <pt x="206" y="525" on="1"/>
        <pt x="219" y="455" on="1"/>
        <pt x="248" y="492" on="0"/>
        <pt x="328" y="537" on="0"/>
        <pt x="375" y="537" on="1"/>
        <pt x="420" y="537" on="0"/>
        <pt x="498" y="492" on="0"/>
        <pt x="521" y="447" on="1"/>
        <pt x="550" y="486" on="0"/>
        <pt x="637" y="537" on="0"/>
        <pt x="690" y="537" on="1"/>
        <pt x="737" y="537" on="0"/>
        <pt x="817" y="492" on="0"/>
        <pt x="865" y="400" on="0"/>
        <pt x="865" y="331" on="1"/>
        <pt x="865" y="0" on="1"/>
        <pt x="715" y="0" on="1"/>
        <pt x="715" y="308" on="1"/>
        <pt x="715" y="355" on="0"/>
        <pt x="672" y="399" on="0"/>
        <pt x="638" y="399" on="1"/>
        <pt x="615" y="399" on="0"/>
        <pt x="564" y="379" on="0"/>
        <pt x="544" y="359" on="1"/>
        <pt x="545" y="345" on="0"/>
        <pt x="545" y="331" on="1"/>
        <pt x="545" y="0" on="1"/>
        <pt x="395" y="0" on="1"/>
        <pt x="395" y="308" on="1"/>
        <pt x="395" y="355" on="0"/>
        <pt x="352" y="399" on="0"/>
        <pt x="318" y="399" on="1"/>
        <pt x="295" y="399" on="0"/>
        <pt x="245" y="379" on="0"/>
        <pt x="225" y="360" on="1"/>
        <pt x="225" y="0" on="1"/>
        <pt x="75" y="0" on="1"/>
        <pt x="75" y="400" on="1"/>
        <pt x="75" y="421" on="0"/>
        <pt x="72" y="454" on="0"/>
        <pt x="68" y="476" on="1"/>
      </contour>
    </TTGlyph>
    <TTGlyph name="macron" xMin="130" yMin="620" xMax="470" yMax="732">
      <contour>
        <pt x="130" y="620" on="1"/>
        <pt x="130" y="732" on="1"/>
        <pt x="470" y="732" on="1"/>
        <pt x="470" y="620" on="1"/>
      </contour>
    </TTGlyph>
    <TTGlyph name="macron.cap" xMin="130" yMin="770" xMax="470" yMax="882">
      <contour>
        <pt x="130" y="770" on="1"/>
        <pt x="130" y="882" on="1"/>
        <pt x="470" y="882" on="1"/>
        <pt x="470" y="770" on="1"/>
      </contour>
    </TTGlyph>
    <TTGlyph name="macronmod" xMin="-170" yMin="620" xMax="170" yMax="732">
      <component glyphName="macron" x="-300" y="0" flags="0x4"/>
    </TTGlyph>
    <TTGlyph name="minus" xMin="62" yMin="223" xMax="538" yMax="357">
      <contour>
        <pt x="62" y="223" on="1"/>
        <pt x="62" y="357" on="1"/>
        <pt x="538" y="357" on="1"/>
        <pt x="538" y="223" on="1"/>
      </contour>
    </TTGlyph>
    <TTGlyph name="mu" xMin="70" yMin="-185" xMax="594" yMax="525">
      <contour>
        <pt x="70" y="-185" on="1"/>
        <pt x="70" y="525" on="1"/>
        <pt x="220" y="525" on="1"/>
        <pt x="220" y="222" on="1"/>
        <pt x="220" y="172" on="0"/>
        <pt x="267" y="126" on="0"/>
        <pt x="306" y="126" on="1"/>
        <pt x="360" y="126" on="0"/>
        <pt x="403" y="166" on="1"/>
        <pt x="403" y="525" on="1"/>
        <pt x="553" y="525" on="1"/>
        <pt x="553" y="147" on="1"/>
        <pt x="553" y="118" on="0"/>
        <pt x="576" y="118" on="1"/>
        <pt x="585" y="118" on="0"/>
        <pt x="594" y="121" on="1"/>
        <pt x="594" y="0" on="1"/>
        <pt x="580" y="-5" on="0"/>
        <pt x="546" y="-12" on="0"/>
        <pt x="530" y="-12" on="1"/>
        <pt x="487" y="-12" on="0"/>
        <pt x="425" y="31" on="0"/>
        <pt x="416" y="80" on="1"/>
        <pt x="390" y="40" on="0"/>
        <pt x="316" y="-12" on="0"/>
        <pt x="270" y="-12" on="1"/>
        <pt x="228" y="-12" on="0"/>
        <pt x="200" y="9" on="1"/>
        <pt x="220" y="-185" on="1"/>
      </contour>
    </TTGlyph>
    <TTGlyph name="mu.math" xMin="70" yMin="-185" xMax="594" yMax="525">
      <component glyphName="mu" x="0" y="0" flags="0x204"/>
    </TTGlyph>
    <TTGlyph name="multiply" xMin="63" yMin="53" xMax="537" yMax="527">
      <contour>
        <pt x="63" y="148" on="1"/>
        <pt x="203" y="288" on="1"/>
        <pt x="63" y="428" on="1"/>
        <pt x="162" y="527" on="1"/>
        <pt x="302" y="387" on="1"/>
        <pt x="442" y="527" on="1"/>
        <pt x="537" y="432" on="1"/>
        <pt x="397" y="292" on="1"/>
        <pt x="537" y="152" on="1"/>
        <pt x="438" y="53" on="1"/>
        <pt x="298" y="193" on="1"/>
        <pt x="158" y="53" on="1"/>
      </contour>
    </TTGlyph>
    <TTGlyph name="n" xMin="60" yMin="0" xMax="564" yMax="537">
      <contour>
        <pt x="60" y="525" on="1"/>
        <pt x="206" y="525" on="1"/>
        <pt x="219" y="454" on="1"/>
        <pt x="250" y="491" on="0"/>
        <pt x="330" y="537" on="0"/>
        <pt x="380" y="537" on="1"/>
        <pt x="426" y="537" on="0"/>
        <pt x="511" y="490" on="0"/>
        <pt x="564" y="396" on="0"/>
        <pt x="564" y="326" on="1"/>
        <pt x="564" y="0" on="1"/>
        <pt x="414" y="0" on="1"/>
        <pt x="414" y="303" on="1"/>
        <pt x="414" y="352" on="0"/>
        <pt x="364" y="399" on="0"/>
        <pt x="325" y="399" on="1"/>
        <pt x="300" y="399" on="0"/>
        <pt x="247" y="379" on="0"/>
        <pt x="225" y="359" on="1"/>
        <pt x="225" y="0" on="1"/>
        <pt x="75" y="0" on="1"/>
        <pt x="75" y="400" on="1"/>
        <pt x="75" y="421" on="0"/>
        <pt x="72" y="454" on="0"/>
        <pt x="68" y="476" on="1"/>
      </contour>
    </TTGlyph>
    <TTGlyph name="nacute" xMin="60" yMin="0" xMax="564" yMax="750">
      <component glyphName="n" x="0" y="0" flags="0x204"/>
      <component glyphName="acute" x="25" y="0" flags="0x4"/>
    </TTGlyph>
    <TTGlyph name="napostrophe" xMin="45" yMin="0" xMax="814" yMax="732">
      <component glyphName="quoteright" x="0" y="0" flags="0x4"/>
      <component glyphName="n" x="250" y="0" flags="0x4"/>
    </TTGlyph>
    <TTGlyph name="ncaron" xMin="60" yMin="0" xMax="564" yMax="750">
      <component glyphName="n" x="0" y="0" flags="0x204"/>
      <component glyphName="caron" x="25" y="0" flags="0x4"/>
    </TTGlyph>
    <TTGlyph name="ncedilla" xMin="60" yMin="-340" xMax="564" yMax="537">
      <component glyphName="n" x="0" y="0" flags="0x204"/>
      <component glyphName="commaaccent" x="20" y="10" flags="0x4"/>
    </TTGlyph>
    <TTGlyph name="nhookleft" xMin="-61" yMin="-197" xMax="564" yMax="537">
      <contour>
        <pt x="-61" y="-181" on="1"/>
        <pt x="-45" y="-57" on="1"/>
        <pt x="-29" y="-62" on="0"/>
        <pt x="-6" y="-66" on="0"/>
        <pt x="6" y="-66" on="1"/>
        <pt x="38" y="-66" on="0"/>
        <pt x="75" y="-30" on="0"/>
        <pt x="75" y="16" on="1"/>
        <pt x="75" y="400" on="1"/>
        <pt x="75" y="421" on="0"/>
        <pt x="72" y="454" on="0"/>
        <pt x="68" y="476" on="1"/>
        <pt x="60" y="525" on="1"/>
        <pt x="206" y="525" on="1"/>
        <pt x="219" y="454" on="1"/>
        <pt x="250" y="491" on="0"/>
        <pt x="330" y="537" on="0"/>
        <pt x="380" y="537" on="1"/>
        <pt x="426" y="537" on="0"/>
        <pt x="511" y="490" on="0"/>
        <pt x="564" y="396" on="0"/>
        <pt x="564" y="326" on="1"/>
        <pt x="564" y="0" on="1"/>
        <pt x="414" y="0" on="1"/>
        <pt x="414" y="303" on="1"/>
        <pt x="414" y="352" on="0"/>
        <pt x="364" y="399" on="0"/>
        <pt x="325" y="399" on="1"/>
        <pt x="300" y="399" on="0"/>
        <pt x="247" y="379" on="0"/>
        <pt x="225" y="359" on="1"/>
        <pt x="225" y="8" on="1"/>
        <pt x="225" y="-95" on="0"/>
        <pt x="122" y="-197" on="0"/>
        <pt x="36" y="-197" on="1"/>
        <pt x="13" y="-197" on="0"/>
        <pt x="-41" y="-188" on="0"/>
      </contour>
    </TTGlyph>
    <TTGlyph name="nine" xMin="35" yMin="-12" xMax="563" yMax="702">
      <contour>
        <pt x="35" y="465" on="1"/>
        <pt x="35" y="534" on="0"/>
        <pt x="98" y="641" on="0"/>
        <pt x="213" y="702" on="0"/>
        <pt x="290" y="702" on="1"/>
        <pt x="368" y="702" on="0"/>
        <pt x="492" y="624" on="0"/>
        <pt x="563" y="475" on="0"/>
        <pt x="563" y="370" on="1"/>
        <pt x="563" y="275" on="0"/>
        <pt x="511" y="132" on="0"/>
        <pt x="421" y="36" on="0"/>
        <pt x="305" y="-12" on="0"/>
        <pt x="242" y="-12" on="1"/>
        <pt x="193" y="-12" on="0"/>
        <pt x="102" y="12" on="0"/>
        <pt x="65" y="37" on="1"/>
        <pt x="134" y="161" on="1"/>
        <pt x="160" y="139" on="0"/>
        <pt x="212" y="121" on="0"/>
        <pt x="239" y="121" on="1"/>
        <pt x="274" y="121" on="0"/>
        <pt x="342" y="159" on="0"/>
        <pt x="392" y="242" on="0"/>
        <pt x="401" y="308" on="1"/>
        <pt x="375" y="278" on="0"/>
        <pt x="296" y="241" on="0"/>
        <pt x="251" y="241" on="1"/>
        <pt x="189" y="241" on="0"/>
        <pt x="91" y="297" on="0"/>
        <pt x="35" y="398" on="0"/>
      </contour>
      <contour>
        <pt x="189" y="468" on="1"/>
        <pt x="189" y="421" on="0"/>
        <pt x="245" y="365" on="0"/>
        <pt x="289" y="365" on="1"/>
        <pt x="317" y="365" on="0"/>
        <pt x="379" y="392" on="0"/>
        <pt x="403" y="411" on="1"/>
        <pt x="396" y="492" on="0"/>
        <pt x="329" y="567" on="0"/>
        <pt x="285" y="567" on="1"/>
        <pt x="243" y="567" on="0"/>
        <pt x="189" y="509" on="0"/>
      </contour>
    </TTGlyph>
    <TTGlyph name="nine.pl" xMin="35" yMin="-12" xMax="563" yMax="702">
      <component glyphName="nine" x="0" y="0" flags="0x204"/>
    </TTGlyph>
    <TTGlyph name="notequal" xMin="62" yMin="-30" xMax="538" yMax="610">
      <contour>
        <pt x="62" y="98" on="1"/>
        <pt x="62" y="232" on="1"/>
        <pt x="210" y="232" on="1"/>
        <pt x="250" y="348" on="1"/>
        <pt x="62" y="348" on="1"/>
        <pt x="62" y="482" on="1"/>
        <pt x="296" y="482" on="1"/>
        <pt x="340" y="610" on="1"/>
        <pt x="480" y="610" on="1"/>
        <pt x="436" y="482" on="1"/>
        <pt x="538" y="482" on="1"/>
        <pt x="538" y="348" on="1"/>
        <pt x="390" y="348" on="1"/>
        <pt x="350" y="232" on="1"/>
        <pt x="538" y="232" on="1"/>
        <pt x="538" y="98" on="1"/>
        <pt x="304" y="98" on="1"/>
        <pt x="260" y="-30" on="1"/>
        <pt x="120" y="-30" on="1"/>
        <pt x="164" y="98" on="1"/>
      </contour>
    </TTGlyph>
    <TTGlyph name="ntilde" xMin="60" yMin="0" xMax="564" yMax="745">
      <component glyphName="n" x="0" y="0" flags="0x204"/>
      <component glyphName="tilde" x="25" y="0" flags="0x4"/>
    </TTGlyph>
    <TTGlyph name="numbersign" xMin="55" yMin="0" xMax="752" yMax="690">
      <contour>
        <pt x="111" y="0" on="1"/>
        <pt x="148" y="150" on="1"/>
        <pt x="55" y="150" on="1"/>
        <pt x="55" y="284" on="1"/>
        <pt x="180" y="284" on="1"/>
        <pt x="210" y="406" on="1"/>
        <pt x="118" y="406" on="1"/>
        <pt x="118" y="540" on="1"/>
        <pt x="242" y="540" on="1"/>
        <pt x="279" y="690" on="1"/>
        <pt x="421" y="690" on="1"/>
        <pt x="384" y="540" on="1"/>
        <pt x="517" y="540" on="1"/>
        <pt x="554" y="690" on="1"/>
        <pt x="696" y="690" on="1"/>
        <pt x="659" y="540" on="1"/>
        <pt x="752" y="540" on="1"/>
        <pt x="752" y="406" on="1"/>
        <pt x="627" y="406" on="1"/>
        <pt x="597" y="284" on="1"/>
        <pt x="689" y="284" on="1"/>
        <pt x="689" y="150" on="1"/>
        <pt x="565" y="150" on="1"/>
        <pt x="528" y="0" on="1"/>
        <pt x="386" y="0" on="1"/>
        <pt x="423" y="150" on="1"/>
        <pt x="290" y="150" on="1"/>
        <pt x="253" y="0" on="1"/>
      </contour>
      <contour>
        <pt x="322" y="284" on="1"/>
        <pt x="455" y="284" on="1"/>
        <pt x="485" y="406" on="1"/>
        <pt x="352" y="406" on="1"/>
      </contour>
    </TTGlyph>
    <TTGlyph name="numero" xMin="85" yMin="0" xMax="1096" yMax="702">
      <contour>
        <pt x="756" y="490" on="1"/>
        <pt x="756" y="562" on="0"/>
        <pt x="802" y="656" on="0"/>
        <pt x="880" y="702" on="0"/>
        <pt x="926" y="702" on="1"/>
        <pt x="973" y="702" on="0"/>
        <pt x="1050" y="656" on="0"/>
        <pt x="1096" y="562" on="0"/>
        <pt x="1096" y="490" on="1"/>
        <pt x="1096" y="418" on="0"/>
        <pt x="1050" y="324" on="0"/>
        <pt x="973" y="278" on="0"/>
        <pt x="926" y="278" on="1"/>
        <pt x="880" y="278" on="0"/>
        <pt x="802" y="324" on="0"/>
        <pt x="756" y="418" on="0"/>
      </contour>
      <contour>
        <pt x="85" y="0" on="1"/>
        <pt x="85" y="690" on="1"/>
        <pt x="290" y="690" on="1"/>
        <pt x="530" y="202" on="1"/>
        <pt x="530" y="690" on="1"/>
        <pt x="674" y="690" on="1"/>
        <pt x="674" y="0" on="1"/>
        <pt x="480" y="0" on="1"/>
        <pt x="229" y="511" on="1"/>
        <pt x="229" y="0" on="1"/>
      </contour>
      <contour>
        <pt x="866" y="490" on="1"/>
        <pt x="866" y="434" on="0"/>
        <pt x="901" y="380" on="0"/>
        <pt x="926" y="380" on="1"/>
        <pt x="951" y="380" on="0"/>
        <pt x="986" y="434" on="0"/>
        <pt x="986" y="490" on="1"/>
        <pt x="986" y="546" on="0"/>
        <pt x="951" y="600" on="0"/>
        <pt x="926" y="600" on="1"/>
        <pt x="901" y="600" on="0"/>
        <pt x="866" y="546" on="0"/>
      </contour>
      <contour>
        <pt x="766" y="80" on="1"/>
        <pt x="766" y="200" on="1"/>
        <pt x="1086" y="200" on="1"/>
        <pt x="1086" y="80" on="1"/>
      </contour>
    </TTGlyph>
    <TTGlyph name="o" xMin="38" yMin="-12" xMax="554" yMax="537">
      <contour>
        <pt x="38" y="262" on="1"/>
        <pt x="38" y="346" on="0"/>
        <pt x="104" y="470" on="0"/>
        <pt x="220" y="537" on="0"/>
        <pt x="296" y="537" on="1"/>
        <pt x="372" y="537" on="0"/>
        <pt x="488" y="470" on="0"/>
        <pt x="554" y="346" on="0"/>
        <pt x="554" y="262" on="1"/>
        <pt x="554" y="178" on="0"/>
        <pt x="488" y="55" on="0"/>
        <pt x="372" y="-12" on="0"/>
        <pt x="296" y="-12" on="1"/>
        <pt x="220" y="-12" on="0"/>
        <pt x="104" y="55" on="0"/>
        <pt x="38" y="178" on="0"/>
      </contour>
      <contour>
        <pt x="190" y="262" on="1"/>
        <pt x="190" y="182" on="0"/>
        <pt x="248" y="109" on="0"/>
        <pt x="296" y="109" on="1"/>
        <pt x="344" y="109" on="0"/>
        <pt x="402" y="182" on="0"/>
        <pt x="402" y="262" on="1"/>
        <pt x="402" y="342" on="0"/>
        <pt x="344" y="416" on="0"/>
        <pt x="296" y="416" on="1"/>
        <pt x="248" y="416" on="0"/>
        <pt x="190" y="342" on="0"/>
      </contour>
    </TTGlyph>
    <TTGlyph name="oacute" xMin="38" yMin="-12" xMax="554" yMax="750">
      <component glyphName="o" x="0" y="0" flags="0x204"/>
      <component glyphName="acute" x="-4" y="0" flags="0x4"/>
    </TTGlyph>
    <TTGlyph name="obreve" xMin="38" yMin="-12" xMax="554" yMax="750">
      <component glyphName="o" x="0" y="0" flags="0x204"/>
      <component glyphName="breve" x="-4" y="0" flags="0x4"/>
    </TTGlyph>
    <TTGlyph name="ocircumflex" xMin="38" yMin="-12" xMax="554" yMax="750">
      <component glyphName="o" x="0" y="0" flags="0x204"/>
      <component glyphName="circumflex" x="-4" y="0" flags="0x4"/>
    </TTGlyph>
    <TTGlyph name="odieresis" xMin="38" yMin="-12" xMax="554" yMax="745">
      <component glyphName="o" x="0" y="0" flags="0x204"/>
      <component glyphName="dieresis" x="-4" y="0" flags="0x4"/>
    </TTGlyph>
    <TTGlyph name="odotbelow" xMin="38" yMin="-220" xMax="554" yMax="537">
      <component glyphName="o" x="0" y="0" flags="0x204"/>
      <component glyphName="dotbelow" x="-4" y="0" flags="0x4"/>
    </TTGlyph>
</ttFont>
